SplineFontDB: 3.2
FontName: SeriousShannsBoldItalic
FullName: Serious Shanns Bold Italic
FamilyName: Serious Shanns Bold Italic
Weight: Bold
Copyright: https://github.com/kaBeech/serious-shanns/blob/main/LICENSE
Version: 6.0.0
ItalicAngle: -12.5
UnderlinePosition: 0
UnderlineWidth: 0
Ascent: 800
Descent: 200
InvalidEm: 0
sfntRevision: 0x00003333
LayerCount: 2
Layer: 0 0 "Back" 1
Layer: 1 0 "Fore" 0
XUID: [1021 45 630387186 10904090]
StyleMap: 0x0040
FSType: 4
OS2Version: 3
OS2_WeightWidthSlopeOnly: 0
OS2_UseTypoMetrics: 0
CreationTime: 1532631502
ModificationTime: 315532800
PfmFamily: 81
TTFWeight: 700
TTFWidth: 5
LineGap: 0
VLineGap: 0
Panose: 0 0 0 0 0 0 0 0 0 0
OS2TypoAscent: 613
OS2TypoAOffset: 0
OS2TypoDescent: -188
OS2TypoDOffset: 0
OS2TypoLinegap: 98
OS2WinAscent: 778
OS2WinAOffset: 0
OS2WinDescent: 308
OS2WinDOffset: 0
HheadAscent: 796
HheadAOffset: 0
HheadDescent: -317
HheadDOffset: 0
OS2SubXSize: 317
OS2SubYSize: 293
OS2SubXOff: 0
OS2SubYOff: 37
OS2SupXSize: 317
OS2SupYSize: 293
OS2SupXOff: 0
OS2SupYOff: 171
OS2StrikeYSize: 0
OS2StrikeYPos: 132
OS2CapHeight: 576
OS2XHeight: 485
OS2Vendor: 'NONE'
OS2CodePages: 00000001.00000000
OS2UnicodeRanges: 00000001.00000000.00000000.00000000
MarkAttachClasses: 1
DEI: 91125
LangName: 1033 "" "" "Normal" "" "" "Version 0.2.0"
Encoding: UnicodeBmp
Compacted: 1
UnicodeInterp: none
NameList: AGL For New Fonts
DisplaySize: -48
AntiAlias: 1
FitToEm: 0
WinInfo: 0 17 8
BeginPrivate: 0
EndPrivate
BeginChars: 65537 121

StartChar: .notdef
Encoding: 65536 -1 0
Width: 700
GlyphClass: 1
Flags: W
HStem: -280 78<110 386> 683 78<314 590>
LayerCount: 2
Fore
SplineSet
19 -280 m 1
 260 761 l 1
 680 761 l 1
 440 -280 l 1
 19 -280 l 1
314 683 m 1
 110 -202 l 1
 386 -202 l 1
 590 683 l 1
 314 683 l 1
EndSplineSet
Validated: 1
EndChar

StartChar: exclam
Encoding: 33 33 8
Width: 700
GlyphClass: 2
Flags: HMW
HStem: -36.998 179<243.002 319.335 254.002 319.335>
VStem: 195.002 309.998
LayerCount: 2
Fore
SplineSet
505 738 m 0
 503.666992188 732 494.001953125 694.668945312 476.001953125 626.001953125 c 0
 458.001953125 557.334960938 444.334960938 502.334960938 435.001953125 461.001953125 c 0
 430.334960938 441.668945312 425.834960938 421.501953125 421.501953125 400.501953125 c 0
 417.168945312 379.501953125 413.168945312 361.501953125 409.501953125 346.501953125 c 0
 405.834960938 331.501953125 403.001953125 321.168945312 401.001953125 315.501953125 c 0
 399.001953125 309.834960938 397.168945312 302.66796875 395.501953125 294.000976562 c 0
 393.834960938 285.333984375 392.001953125 277.333984375 390.001953125 270.000976562 c 0
 384.001953125 251.333984375 374.001953125 237.000976562 360.001953125 227.000976562 c 0
 346.668945312 217.66796875 332.668945312 212.66796875 318.001953125 212.000976562 c 2
 315.001953125 212.000976562 l 2
 299.668945312 212.000976562 288.3359375 217.66796875 281.002929688 229.000976562 c 0
 276.557617188 235.66796875 274.3359375 243.96484375 274.3359375 253.891601562 c 0
 274.3359375 258.854492188 274.890625 264.223632812 276.001953125 270.000976562 c 0
 278.001953125 278.000976562 281.501953125 288.500976562 286.501953125 301.500976562 c 0
 291.501953125 314.500976562 295.001953125 324.000976562 297.001953125 330.000976562 c 0
 299.001953125 336.000976562 301.834960938 346.16796875 305.501953125 360.500976562 c 0
 309.168945312 374.833984375 312.501953125 388.666992188 315.501953125 402 c 0
 318.501953125 415.333007812 322.668945312 435.666015625 328.001953125 462.999023438 c 0
 334.001953125 494.999023438 340.334960938 525.666015625 347.001953125 554.999023438 c 0
 353.668945312 584.33203125 359.168945312 607.33203125 363.501953125 623.999023438 c 0
 367.834960938 640.666015625 373.16796875 661.333007812 379.500976562 686 c 0
 385.833984375 710.666992188 390.000976562 727 392.000976562 735 c 0
 397.333984375 756.333007812 406.833984375 772.833007812 420.500976562 784.5 c 0
 434.16796875 796.166992188 448.66796875 802 464.000976562 802 c 2
 468.000976562 802 l 2
 482.66796875 802 493.66796875 796.666992188 501.000976562 786 c 0
 505.482421875 779.481445312 507.72265625 770.971679688 507.72265625 760.470703125 c 0
 507.72265625 753.787109375 506.815429688 746.296875 505 738 c 0
254.001953125 -36.998046875 m 2
 232.001953125 -36.998046875 215.668945312 -28.998046875 205.001953125 -12.998046875 c 0
 196.40625 -0.3310546875 192.109375 14.0234375 192.109375 30.06640625 c 0
 192.109375 37.666015625 193.073242188 45.64453125 195.001953125 54.001953125 c 0
 200.334960938 78.001953125 214.001953125 98.3349609375 236.001953125 115.001953125 c 0
 260.001953125 133.001953125 283.834960938 142.001953125 307.501953125 142.001953125 c 0
 331.168945312 142.001953125 348.668945312 134.001953125 360.001953125 118.001953125 c 0
 368.001953125 106.890625 372.001953125 93.927734375 372.001953125 79.11328125 c 0
 372.001953125 71.7060546875 371.001953125 63.8349609375 369.001953125 55.501953125 c 0
 363.001953125 30.501953125 350.501953125 9.6689453125 331.501953125 -6.998046875 c 0
 312.501953125 -23.6650390625 290.001953125 -33.6650390625 264.001953125 -36.998046875 c 2
 254.001953125 -36.998046875 l 2
EndSplineSet
Validated: 1
EndChar

StartChar: quotedbl
Encoding: 34 34 9
Width: 700
GlyphClass: 2
Flags: W
LayerCount: 2
Fore
SplineSet
366 739 m 0
 364.666992188 730.333007812 361.6640625 716.333984375 356.997070312 697.000976562 c 0
 352.330078125 677.66796875 343.330078125 641.66796875 329.997070312 589.000976562 c 0
 315.997070312 533.66796875 304.997070312 495.000976562 296.997070312 473.000976562 c 0
 290.997070312 456.333984375 281.330078125 443.666992188 267.997070312 435 c 0
 255.997070312 427 244.330078125 423 232.997070312 423 c 0
 217.6640625 423 204.331054688 428 192.998046875 438 c 0
 186.46484375 444.533203125 183.198242188 452.700195312 183.198242188 462.5 c 0
 183.198242188 466.700195312 183.797851562 471.200195312 184.998046875 476 c 2
 186.998046875 482 l 2
 194.331054688 508 202.331054688 540 210.998046875 578 c 0
 213.665039062 588.666992188 215.998046875 600 217.998046875 612 c 0
 232.665039062 679.333007812 242.33203125 724.666015625 246.999023438 747.999023438 c 0
 248.999023438 756.666015625 252.666015625 764.333007812 257.999023438 771 c 0
 264.666015625 779 272.333007812 785 281 789 c 0
 291.499023438 793.083007812 301.744140625 795.125 311.732421875 795.125 c 0
 313.16015625 795.125 314.583007812 795.083007812 316 795 c 0
 325.333007812 795 332.833007812 794.166992188 338.5 792.5 c 0
 344.166992188 790.833007812 349.666992188 788 355 784 c 0
 360.333007812 780 364 774 366 766 c 0
 368 758 368 749 366 739 c 0
514.997070312 738.000976562 m 0
 513.6640625 731.333984375 512.330078125 725.001953125 510.997070312 719.001953125 c 0
 502.997070312 685.001953125 492.330078125 641.668945312 478.997070312 589.001953125 c 0
 464.997070312 533.668945312 454.330078125 495.001953125 446.997070312 473.001953125 c 0
 440.997070312 456.334960938 430.997070312 443.66796875 416.997070312 435.000976562 c 0
 404.997070312 427.000976562 392.997070312 423.000976562 380.997070312 423.000976562 c 0
 365.6640625 423.000976562 352.997070312 428.000976562 342.997070312 438.000976562 c 0
 336.120117188 444.877929688 332.681640625 453.565429688 332.681640625 464.0625 c 0
 332.681640625 467.811523438 333.120117188 471.791015625 333.997070312 476.000976562 c 2
 335.997070312 482.000976562 l 2
 342.6640625 504.66796875 349.6640625 532.000976562 356.997070312 564.000976562 c 0
 372.330078125 631.333984375 384.997070312 691.000976562 394.997070312 743.000976562 c 1
 394.997070312 746.000976562 l 2
 396.997070312 755.333984375 401.1640625 763.833984375 407.497070312 771.500976562 c 0
 413.830078125 779.16796875 421.330078125 785.000976562 429.997070312 789.000976562 c 0
 440.49609375 793.083984375 450.741210938 795.125976562 460.729492188 795.125976562 c 0
 462.157226562 795.125976562 463.580078125 795.083984375 464.997070312 795.000976562 c 0
 474.330078125 795.000976562 481.830078125 794.16796875 487.497070312 792.500976562 c 0
 493.1640625 790.833984375 498.6640625 788.333984375 503.997070312 785.000976562 c 0
 509.997070312 781.000976562 513.830078125 774.833984375 515.497070312 766.500976562 c 0
 517.1640625 758.16796875 516.997070312 748.66796875 514.997070312 738.000976562 c 0
EndSplineSet
Validated: 1
EndChar

StartChar: numbersign
Encoding: 35 35 10
Width: 700
GlyphClass: 2
Flags: HMW
HStem: -14 21G<100.666 108> 178.501 108.501<282 282> 433.002 109.002<388.996 427.996 343.996 469.996>
LayerCount: 2
Fore
SplineSet
227 431 m 1
 209.666992188 430.333007812 199.99609375 430.334960938 197.99609375 431.001953125 c 0
 181.329101562 431.001953125 169.329101562 435.334960938 161.99609375 444.001953125 c 0
 156.348632812 451.060546875 153.525390625 459.448242188 153.525390625 469.165039062 c 0
 153.525390625 473.212890625 154.015625 477.4921875 154.99609375 482.001953125 c 2
 154.99609375 485.001953125 l 2
 158.329101562 499.001953125 166.162109375 511.334960938 178.495117188 522.001953125 c 0
 190.828125 532.668945312 206.328125 538.3359375 224.995117188 539.002929688 c 0
 235.662109375 539.669921875 250.995117188 540.002929688 270.995117188 540.002929688 c 1
 329.995117188 686.002929688 l 2
 340.662109375 706.669921875 353.329101562 721.002929688 367.99609375 729.002929688 c 0
 377.99609375 734.3359375 387.99609375 737.002929688 397.99609375 737.002929688 c 0
 401.99609375 737.002929688 406.329101562 736.3359375 410.99609375 735.002929688 c 0
 426.329101562 731.669921875 436.662109375 723.336914062 441.995117188 710.00390625 c 0
 444.395507812 704.404296875 445.595703125 698.204101562 445.595703125 691.404296875 c 0
 445.595703125 686.87109375 445.061523438 682.0703125 443.995117188 677.00390625 c 0
 442.662109375 671.00390625 440.329101562 665.00390625 436.99609375 659.00390625 c 2
 388.99609375 542.00390625 l 1
 469.99609375 542.00390625 l 1
 524.99609375 678.00390625 l 2
 535.663085938 699.336914062 548.330078125 714.00390625 562.997070312 722.00390625 c 0
 572.997070312 727.336914062 582.997070312 729.669921875 592.997070312 729.002929688 c 0
 597.6640625 729.002929688 602.331054688 728.669921875 606.998046875 728.002929688 c 0
 622.331054688 724.669921875 632.998046875 716.336914062 638.998046875 703.00390625 c 0
 641.3984375 697.803710938 642.598632812 692.00390625 642.598632812 685.603515625 c 0
 642.598632812 681.336914062 642.064453125 676.803710938 640.998046875 672.00390625 c 0
 639.665039062 665.336914062 636.998046875 658.336914062 632.998046875 651.00390625 c 0
 620.998046875 626.336914062 605.665039062 590.336914062 586.998046875 543.00390625 c 1
 603.665039062 542.336914062 616.33203125 537.00390625 624.999023438 527.00390625 c 0
 633.33203125 517.559570312 637.499023438 507.189453125 637.499023438 495.892578125 c 0
 637.499023438 493.633789062 637.33203125 491.336914062 636.999023438 489.00390625 c 0
 633.666015625 473.670898438 625.833007812 460.670898438 613.5 450.00390625 c 0
 601.166992188 439.336914062 586 433.669921875 568 433.002929688 c 2
 567 433.002929688 l 1
 543 433.002929688 l 1
 486 286.002929688 l 1
 511 286.002929688 l 2
 529 286.002929688 540.666992188 281.3359375 546 272.002929688 c 0
 549.5546875 265.78125 551.333007812 258.522460938 551.333007812 250.2265625 c 0
 551.333007812 246.078125 550.887695312 241.669921875 549.999023438 237.002929688 c 2
 549.999023438 236.002929688 l 2
 546.666015625 220.002929688 540.333007812 207.669921875 531 199.002929688 c 0
 519 186.3359375 504 180.002929688 486 180.002929688 c 2
 444 180.002929688 l 1
 416 109.3359375 396.333007812 60.6689453125 385 34.001953125 c 0
 374.333007812 16.6689453125 360.333007812 3.3359375 343 -5.9970703125 c 0
 332.80078125 -11.396484375 323.411132812 -14.0966796875 314.83203125 -14.0966796875 c 0
 313.877929688 -14.0966796875 312.934570312 -14.0634765625 312.000976562 -13.9970703125 c 0
 306.66796875 -13.9970703125 301.66796875 -13.330078125 297.000976562 -11.9970703125 c 0
 283.000976562 -8.6640625 274.000976562 1.6689453125 270.000976562 19.001953125 c 0
 268.000976562 28.3349609375 268.333984375 37.66796875 271.000976562 47.0009765625 c 0
 273.000976562 55.0009765625 276.000976562 63.333984375 280.000976562 72.0009765625 c 0
 291.333984375 96.0009765625 306.666992188 131.66796875 326 179.000976562 c 1
 314.666992188 179.000976562 300 178.833984375 282 178.500976562 c 0
 264 178.16796875 249.333007812 178.000976562 238 178.000976562 c 1
 200 88.0009765625 180.333007812 41.333984375 179 38.0009765625 c 0
 169.666992188 21.333984375 155.666992188 7.6669921875 137 -3 c 0
 124.333007812 -10.3330078125 113 -14 103 -14 c 0
 98.3330078125 -14 93.3330078125 -13.3330078125 88 -12 c 0
 74 -8.6669921875 65.6669921875 2.3330078125 63 21 c 0
 61.6669921875 30.3330078125 62 39.5 64 48.5 c 0
 66 57.5 69.3330078125 66.6669921875 74 76 c 0
 82 92 97.3330078125 125.666992188 120 177 c 1
 106 177 l 2
 88 177 75 181 67 189 c 0
 60.740234375 195.259765625 57.6103515625 203.2578125 57.6103515625 212.995117188 c 0
 57.6103515625 216.739257812 58.0732421875 220.741210938 58.9990234375 225 c 2
 58.9990234375 229 l 2
 62.33203125 243 69.83203125 255 81.4990234375 265 c 0
 93.166015625 275 108.333007812 280.666992188 127 282 c 0
 132.333007812 282 139 282.166992188 147 282.5 c 0
 155 282.833007812 161 283 165 283 c 2
 227 431 l 1
427.99609375 433.001953125 m 1
 343.99609375 433.001953125 l 1
 282.99609375 287.001953125 l 1
 368.99609375 287.001953125 l 1
 388.99609375 334.334960938 408.663085938 383.001953125 427.99609375 433.001953125 c 1
EndSplineSet
Validated: 1
EndChar

StartChar: dollar
Encoding: 36 36 11
Width: 700
GlyphClass: 2
Flags: HMW
HStem: 623.002 101
VStem: 475.01 117.492
LayerCount: 2
Fore
SplineSet
285.5 -130 m 0
 271.166992188 -140 255.67578125 -144.999023438 239.008789062 -144.999023438 c 2
 238.008789062 -144.999023438 l 2
 221.341796875 -144.999023438 210.008789062 -138.999023438 204.008789062 -126.999023438 c 0
 201.286132812 -121.943359375 199.924804688 -115.866210938 199.924804688 -108.767578125 c 0
 199.924804688 -103.698242188 200.619140625 -98.1083984375 202.0078125 -91.998046875 c 0
 202.674804688 -88.6650390625 204.174804688 -82.83203125 206.5078125 -74.4990234375 c 0
 208.840820312 -66.166015625 212.673828125 -51.9990234375 218.006835938 -31.9990234375 c 1
 196.006835938 -31.33203125 175.006835938 -27.9990234375 155.006835938 -21.9990234375 c 0
 136.33984375 -16.666015625 120.33984375 -8.666015625 107.006835938 2.0009765625 c 0
 81.673828125 22.0009765625 65.673828125 46.0009765625 59.0068359375 74.0009765625 c 0
 57.482421875 82.3818359375 56.720703125 90.3271484375 56.720703125 97.8369140625 c 0
 56.720703125 103.469726562 57.1494140625 108.857421875 58.0068359375 114.000976562 c 0
 58.673828125 118.000976562 60.0068359375 121.66796875 62.0068359375 125.000976562 c 0
 68.673828125 139.66796875 79.673828125 150.66796875 95.0068359375 158.000976562 c 0
 103.673828125 162.000976562 110.506835938 164.500976562 115.506835938 165.500976562 c 0
 120.506835938 166.500976562 124.506835938 167.000976562 127.506835938 167.000976562 c 2
 136.006835938 167.000976562 l 2
 143.33984375 166.333984375 149.506835938 163.000976562 154.506835938 157.000976562 c 0
 159.506835938 151.000976562 164.006835938 143.333984375 168.006835938 134.000976562 c 0
 176.006835938 115.333984375 186.673828125 100.666992188 200.006835938 90 c 0
 211.33984375 81.3330078125 226.33984375 76.3330078125 245.006835938 75 c 1
 269.006835938 174.333007812 290.33984375 263.666015625 309.006835938 342.999023438 c 1
 307.006835938 342.999023438 303.33984375 343.666015625 298.006835938 344.999023438 c 0
 294.673828125 345.666015625 290.006835938 345.999023438 284.006835938 345.999023438 c 0
 258.673828125 348.666015625 237.006835938 355.333007812 219.006835938 366 c 0
 202.33984375 376.666992188 189.506835938 389.333984375 180.506835938 404.000976562 c 0
 171.506835938 418.66796875 165.673828125 434.500976562 163.006835938 451.500976562 c 0
 161.940429688 458.30078125 161.40625 465.07421875 161.40625 471.8203125 c 0
 161.40625 481.940429688 162.606445312 492.000976562 165.006835938 502.000976562 c 0
 171.006835938 526.66796875 180.173828125 550.334960938 192.506835938 573.001953125 c 0
 204.83984375 595.668945312 220.672851562 616.8359375 240.005859375 636.502929688 c 0
 259.338867188 656.169921875 283.005859375 673.002929688 311.005859375 687.002929688 c 0
 337.672851562 699.669921875 366.005859375 709.002929688 396.005859375 715.002929688 c 1
 399.338867188 728.3359375 403.338867188 744.002929688 408.005859375 762.002929688 c 0
 416.005859375 794.002929688 431.005859375 814.3359375 453.005859375 823.002929688 c 0
 460.338867188 825.669921875 469.005859375 827.002929688 479.005859375 827.002929688 c 0
 499.672851562 827.002929688 513.005859375 820.002929688 519.005859375 806.002929688 c 0
 521.518554688 800.259765625 522.775390625 793.645507812 522.775390625 786.163085938 c 0
 522.775390625 779.748046875 521.852539062 772.694335938 520.005859375 765.001953125 c 0
 515.338867188 745.001953125 512.005859375 731.334960938 510.005859375 724.001953125 c 1
 524.005859375 722.668945312 542.338867188 719.001953125 565.005859375 713.001953125 c 0
 587.005859375 707.668945312 604.005859375 702.668945312 616.005859375 698.001953125 c 0
 629.338867188 692.668945312 637.671875 683.668945312 641.004882812 671.001953125 c 0
 643.671875 661.668945312 644.004882812 652.001953125 642.004882812 642.001953125 c 0
 641.337890625 638.668945312 640.337890625 635.001953125 639.004882812 631.001953125 c 0
 635.671875 621.001953125 630.171875 613.001953125 622.504882812 607.001953125 c 0
 614.837890625 601.001953125 606.670898438 597.334960938 598.00390625 596.001953125 c 0
 594.00390625 595.334960938 590.336914062 595.001953125 587.00390625 595.001953125 c 0
 583.670898438 595.001953125 580.00390625 595.168945312 576.00390625 595.501953125 c 0
 572.00390625 595.834960938 567.336914062 597.001953125 562.00390625 599.001953125 c 0
 555.336914062 600.334960938 547.669921875 603.001953125 539.002929688 607.001953125 c 0
 523.002929688 615.668945312 505.3359375 621.001953125 486.002929688 623.001953125 c 1
 470.002929688 558.334960938 454.669921875 497.001953125 440.002929688 439.001953125 c 1
 466.669921875 434.334960938 491.002929688 427.334960938 513.002929688 418.001953125 c 0
 533.002929688 408.001953125 548.669921875 396.001953125 560.002929688 382.001953125 c 0
 571.3359375 368.001953125 579.668945312 352.168945312 585.001953125 334.501953125 c 0
 590.021484375 317.873046875 592.53125 301.245117188 592.53125 284.616210938 c 0
 592.53125 270.657226562 590.9453125 250.924804688 585.001953125 228.000976562 c 0
 577.668945312 196.66796875 565.668945312 167.000976562 549.001953125 139.000976562 c 0
 532.334960938 111.000976562 512.66796875 86.66796875 490.000976562 66.0009765625 c 0
 467.333984375 45.333984375 442.000976562 27.6669921875 414.000976562 13 c 0
 387.333984375 -0.3330078125 359.666992188 -11 331 -19 c 1
 323 -53 318.333007812 -76 317 -88 c 0
 310.333007812 -106 299.833007812 -120 285.5 -130 c 0
317.008789062 585.000976562 m 0
 298.341796875 569.66796875 286.341796875 551.666992188 281.008789062 531 c 0
 280.008789062 526.666992188 279.508789062 522.4375 279.508789062 518.3125 c 0
 279.508789062 505.9375 284.008789062 494.5 293.008789062 484 c 0
 303.008789062 472 317.008789062 463 335.008789062 457 c 1
 345.008789062 498.333007812 357.67578125 551.333007812 373.008789062 616 c 1
 351.67578125 608.666992188 333.008789062 598.333984375 317.008789062 585.000976562 c 0
426.008789062 137 m 0
 450.008789062 157.666992188 465.009765625 181.33203125 471.009765625 207.999023438 c 0
 473.676757812 219.999023438 475.009765625 230.33203125 475.009765625 238.999023438 c 0
 475.009765625 248.999023438 472.676757812 259.33203125 468.009765625 269.999023438 c 0
 460.676757812 288.666015625 441.676757812 304.333007812 411.009765625 317 c 1
 393.009765625 240.333007812 381.176757812 190.5 375.509765625 167.5 c 0
 369.842773438 144.5 363.67578125 119.666992188 357.008789062 93 c 1
 383.008789062 105 406.008789062 119.666992188 426.008789062 137 c 0
EndSplineSet
Validated: 1
EndChar

StartChar: percent
Encoding: 37 37 12
Width: 700
GlyphClass: 2
Flags: HMW
HStem: -40.0059 100.999<389.007 436.007 402.007 436.007> 158.993 98<464.007 465.004> 420 98.9951<229.333 275.006> 607.994 97.0068<285.006 340.668>
VStem: 307.007 97.998<102.993 103.993 103.993 103.993> 324.007 101.995 486.005 96.002
LayerCount: 2
Fore
SplineSet
149.5 491.5 m 0xf6
 147.557617188 500.612304688 146.586914062 509.959960938 146.586914062 519.541015625 c 0
 146.586914062 531.338867188 148.05859375 543.4921875 151.001953125 556 c 0
 151.001953125 556.666992188 151.334960938 557.333984375 152.001953125 558.000976562 c 0
 162.001953125 600.000976562 181.834960938 635.000976562 211.501953125 663.000976562 c 0
 241.168945312 691.000976562 278.001953125 705.000976562 322.001953125 705.000976562 c 0
 359.334960938 705.000976562 388.001953125 693.000976562 408.001953125 669.000976562 c 0
 418.668945312 656.333984375 424.668945312 640.000976562 426.001953125 620.000976562 c 0
 426.297851562 616.446289062 426.446289062 612.79296875 426.446289062 609.041015625 c 0
 426.446289062 595.904296875 424.630859375 581.557617188 421.000976562 566.000976562 c 0
 409.000976562 515.333984375 387.000976562 477.666992188 355.000976562 453 c 0
 326.333984375 431 288.666992188 420 242 420 c 0
 216.666992188 420 196 426.833007812 180 440.5 c 0
 164 454.166992188 153.833007812 471.166992188 149.5 491.5 c 0xf6
58.001953125 -45 m 0
 50.6689453125 -41 45.005859375 -36.0048828125 41.005859375 -30.0048828125 c 0
 36.3388671875 -22.0048828125 35.3388671875 -12.5048828125 38.005859375 -1.5048828125 c 0
 40.6728515625 9.4951171875 46.6728515625 21.328125 56.005859375 33.9951171875 c 0
 75.3388671875 61.9951171875 119.671875 120.328125 189.004882812 208.995117188 c 0
 335.671875 387.662109375 409.004882812 477.329101562 409.004882812 477.99609375 c 0
 482.337890625 567.99609375 532.670898438 632.663085938 560.00390625 671.99609375 c 0
 573.336914062 685.99609375 588.336914062 694.99609375 605.00390625 698.99609375 c 2
 619.00390625 700.99609375 l 2
 629.00390625 700.99609375 637.670898438 698.329101562 645.00390625 692.99609375 c 0
 657.037109375 686.030273438 663.053710938 676.356445312 663.053710938 663.975585938 c 0
 663.053710938 659.627929688 662.573242188 656.840820312 662.00390625 653.997070312 c 0
 659.336914062 642.6640625 652.669921875 630.331054688 642.002929688 616.998046875 c 0
 610.002929688 577.665039062 529.002929688 477.33203125 399.002929688 315.999023438 c 0
 268.3359375 154.666015625 181.668945312 45.666015625 139.001953125 -11.0009765625 c 0
 118.827148438 -37.6826171875 99.2880859375 -51.0234375 80.384765625 -51.0234375 c 0
 79.923828125 -51.0234375 79.462890625 -51.015625 79.001953125 -51 c 0
 71.6689453125 -51 64.6689453125 -49 58.001953125 -45 c 0
321.505859375 597.495117188 m 0
 315.838867188 604.495117188 305.672851562 607.994140625 291.005859375 607.994140625 c 0
 279.005859375 607.994140625 269.672851562 604.327148438 263.005859375 596.994140625 c 0
 254.338867188 588.327148438 247.338867188 576.327148438 242.005859375 560.994140625 c 0
 242.005859375 559.661132812 241.672851562 558.328125 241.005859375 556.995117188 c 0
 238.338867188 544.995117188 238.838867188 535.995117188 242.505859375 529.995117188 c 0
 246.172851562 523.995117188 256.672851562 520.328125 274.005859375 518.995117188 c 2
 275.005859375 518.995117188 l 2
 287.005859375 518.995117188 296.672851562 522.328125 304.005859375 528.995117188 c 0
 312.672851562 536.995117188 319.33984375 547.662109375 324.006835938 560.995117188 c 0
 324.006835938 561.662109375 324.33984375 562.662109375 325.006835938 563.995117188 c 0
 326.241210938 569.673828125 326.858398438 574.780273438 326.858398438 579.31640625 c 0
 326.858398438 587.02734375 325.07421875 593.087890625 321.505859375 597.495117188 c 0
305.506835938 33.994140625 m 0
 303.234375 43.69140625 302.09765625 53.6630859375 302.09765625 63.9111328125 c 0
 302.09765625 76.2080078125 303.734375 88.90234375 307.006835938 101.993164062 c 1
 307.006835938 103.993164062 l 1xfa
 317.006835938 147.993164062 338.006835938 184.493164062 370.006835938 213.493164062 c 0
 402.006835938 242.493164062 441.006835938 256.993164062 487.006835938 256.993164062 c 0
 522.33984375 256.993164062 549.006835938 244.66015625 567.006835938 219.993164062 c 0
 576.33984375 206.66015625 581.33984375 189.327148438 582.006835938 167.994140625 c 0
 582.08984375 165.993164062 582.131835938 163.966796875 582.131835938 161.9140625 c 0
 582.131835938 147.549804688 580.08984375 131.909179688 576.006835938 114.994140625 c 0
 574.673828125 108.327148438 573.006835938 101.66015625 571.006835938 94.9931640625 c 0
 559.006835938 51.66015625 539.506835938 18.3271484375 512.506835938 -5.005859375 c 0
 485.506835938 -28.3388671875 450.33984375 -40.005859375 407.006835938 -40.005859375 c 2
 402.006835938 -40.005859375 l 2
 376.006835938 -40.005859375 354.673828125 -33.005859375 338.006835938 -19.005859375 c 0
 321.33984375 -5.005859375 310.506835938 12.6611328125 305.506835938 33.994140625 c 0
436.006835938 60.9931640625 m 2
 439.00390625 60.9921875 l 2
 450.336914062 60.9921875 459.336914062 64.3251953125 466.00390625 70.9921875 c 0
 474.670898438 79.6591796875 481.337890625 91.326171875 486.004882812 105.993164062 c 1
 486.004882812 108.993164062 l 2
 487.856445312 117.880859375 488.782226562 125.53515625 488.782226562 131.954101562 c 0
 488.782226562 137.090820312 488.189453125 141.4375 487.00390625 144.993164062 c 0
 483.00390625 154.326171875 473.00390625 158.993164062 457.00390625 158.993164062 c 0
 445.00390625 158.993164062 435.00390625 154.66015625 427.00390625 145.993164062 c 0
 417.670898438 135.993164062 410.337890625 122.66015625 405.004882812 105.993164062 c 1
 405.004882812 102.993164062 l 2
 401.671875 89.66015625 401.838867188 79.4931640625 405.505859375 72.4931640625 c 0
 409.172851562 65.4931640625 419.33984375 61.66015625 436.006835938 60.9931640625 c 2
EndSplineSet
Validated: 1
EndChar

StartChar: ampersand
Encoding: 38 38 13
Width: 700
GlyphClass: 2
Flags: HMW
HStem: -53.9971 117.999<215.334 269.001> 633.001 103.001<423.333 467.668>
LayerCount: 2
Fore
SplineSet
541 11 m 0
 540.333007812 7.6669921875 539.333007812 4.0009765625 538 0.0009765625 c 0
 530.666992188 -23.33203125 519.666992188 -38.6650390625 505 -45.998046875 c 0
 492.333007812 -50.6650390625 484.333007812 -52.998046875 481 -52.998046875 c 2
 480 -52.998046875 l 2
 472 -52.998046875 464 -50.3310546875 456 -44.998046875 c 0
 442 -36.3310546875 432 -21.3310546875 426 0.001953125 c 0
 425.333007812 3.3349609375 424.166015625 10.8349609375 422.499023438 22.501953125 c 2
 418.999023438 47.001953125 l 1
 410.999023438 38.3349609375 404.83203125 31.8349609375 400.499023438 27.501953125 c 0
 396.166015625 23.1689453125 389.333007812 16.8359375 380 8.5029296875 c 0
 370.666992188 0.169921875 362.833984375 -6.330078125 356.500976562 -10.9970703125 c 0
 350.16796875 -15.6640625 341.66796875 -21.1640625 331.000976562 -27.4970703125 c 0
 320.333984375 -33.830078125 310.333984375 -38.4970703125 301.000976562 -41.4970703125 c 0
 291.66796875 -44.4970703125 281.16796875 -47.330078125 269.500976562 -49.9970703125 c 0
 257.833984375 -52.6640625 246.000976562 -53.9970703125 234.000976562 -53.9970703125 c 0
 196.66796875 -53.9970703125 165.16796875 -43.830078125 139.500976562 -23.4970703125 c 0
 113.833984375 -3.1640625 96.333984375 23.6689453125 87.0009765625 57.001953125 c 0
 82.162109375 74.28515625 79.7421875 92.28515625 79.7421875 111.002929688 c 0
 79.7421875 128.383789062 81.8291015625 146.383789062 86.001953125 165.001953125 c 0
 99.3349609375 223.001953125 121.001953125 272.668945312 151.001953125 314.001953125 c 0
 185.668945312 362.668945312 231.001953125 400.668945312 287.001953125 428.001953125 c 1
 277.001953125 455.501953125 l 2
 273.001953125 466.501953125 270.001953125 475.001953125 268.001953125 481.001953125 c 0
 266.001953125 487.001953125 263.834960938 494.834960938 261.501953125 504.501953125 c 0
 259.168945312 514.168945312 258.001953125 522.668945312 258.001953125 530.001953125 c 0
 258.001953125 550.001953125 260.334960938 569.668945312 265.001953125 589.001953125 c 0
 267.668945312 601.668945312 272.168945312 614.501953125 278.501953125 627.501953125 c 0
 284.834960938 640.501953125 293.501953125 653.668945312 304.501953125 667.001953125 c 0
 315.501953125 680.334960938 328.168945312 692.001953125 342.501953125 702.001953125 c 0
 356.834960938 712.001953125 374.001953125 720.168945312 394.001953125 726.501953125 c 0
 414.001953125 732.834960938 435.334960938 736.001953125 458.001953125 736.001953125 c 0
 477.334960938 736.001953125 495.501953125 732.668945312 512.501953125 726.001953125 c 0
 529.501953125 719.334960938 544.334960938 709.834960938 557.001953125 697.501953125 c 0
 569.668945312 685.168945312 578.168945312 668.668945312 582.501953125 648.001953125 c 0
 584.319335938 639.334960938 585.227539062 630.2578125 585.227539062 620.770507812 c 0
 585.227539062 607.633789062 583.485351562 593.7109375 580.001953125 579.001953125 c 0
 574.668945312 556.334960938 567.168945312 535.16796875 557.501953125 515.500976562 c 0
 547.834960938 495.833984375 537.334960938 479.333984375 526.001953125 466.000976562 c 0
 514.668945312 452.66796875 501.3359375 440.16796875 486.002929688 428.500976562 c 0
 470.669921875 416.833984375 457.836914062 408.000976562 447.50390625 402.000976562 c 0
 437.170898438 396.000976562 427.00390625 390.66796875 417.00390625 386.000976562 c 1
 423.670898438 366.000976562 433.670898438 340.833984375 447.00390625 310.500976562 c 0
 460.336914062 280.16796875 469.669921875 257.66796875 475.002929688 243.000976562 c 1
 477.669921875 247.000976562 481.669921875 253.16796875 487.002929688 261.500976562 c 0
 492.3359375 269.833984375 497.668945312 278.000976562 503.001953125 286.000976562 c 0
 508.334960938 294.000976562 512.66796875 300.000976562 516.000976562 304.000976562 c 0
 532.66796875 324.000976562 548.000976562 336.333984375 562.000976562 341.000976562 c 0
 567.333984375 343.000976562 572.666992188 344.000976562 578 344.000976562 c 0
 586.666992188 344.000976562 595 341.66796875 603 337.000976562 c 0
 614.4609375 330.366210938 620.19140625 319.091796875 620.19140625 303.178710938 c 0
 620.19140625 301.50390625 620.127929688 299.778320312 620.000976562 298.000976562 c 0
 620.000976562 294.000976562 619.333984375 290.000976562 618.000976562 286.000976562 c 0
 614.66796875 272.000976562 607.66796875 257.333984375 597.000976562 242.000976562 c 0
 592.333984375 235.333984375 580.333984375 222.166992188 561.000976562 202.5 c 0
 541.66796875 182.833007812 525.66796875 165.333007812 513.000976562 150 c 1
 517.000976562 138 522.16796875 121.166992188 528.500976562 99.5 c 0
 534.833984375 77.8330078125 538.666992188 65 540 61 c 0
 542.512695312 52.384765625 543.76953125 43.576171875 543.76953125 34.57421875 c 0
 543.76953125 26.8583984375 542.846679688 19 541 11 c 0
372 572.000976562 m 0
 370.333984375 564.66796875 369.5 557.000976562 369.5 549.000976562 c 0
 369.5 541.001953125 370.333984375 532.668945312 372 524.001953125 c 0
 375.333007812 506.668945312 380 491.668945312 386 479.001953125 c 1
 397.333007812 482.334960938 407.333007812 486.16796875 416 490.500976562 c 0
 424.666992188 494.833984375 433.5 500.333984375 442.5 507.000976562 c 0
 451.5 513.66796875 458.833007812 522.000976562 464.5 532.000976562 c 0
 470.166992188 542.000976562 474.666992188 554.333984375 478 569.000976562 c 0
 479.59375 576.057617188 480.390625 582.551757812 480.390625 588.481445312 c 0
 480.390625 599.916992188 477.426757812 609.256835938 471.5 616.500976562 c 0
 462.5 627.500976562 449.333007812 633.000976562 432 633.000976562 c 0
 414.666992188 633.000976562 401 627.333984375 391 616.000976562 c 0
 383 606.000976562 376.666992188 591.333984375 372 572.000976562 c 0
204 174.001953125 m 0
 201.067382812 161.203125 199.600585938 149.310546875 199.600585938 138.32421875 c 0
 199.600585938 121.842773438 202.900390625 107.40234375 209.500976562 95.001953125 c 0
 220.500976562 74.3349609375 238.000976562 64.001953125 262.000976562 64.001953125 c 0
 276.000976562 64.001953125 291.000976562 66.6689453125 307.000976562 72.001953125 c 0
 312.333984375 73.3349609375 318.500976562 76.3349609375 325.500976562 81.001953125 c 2
 342.000976562 92.001953125 l 2
 346.000976562 94.6689453125 351.000976562 99.001953125 357.000976562 105.001953125 c 0
 363.000976562 111.001953125 367.333984375 115.168945312 370.000976562 117.501953125 c 0
 372.66796875 119.834960938 376.000976562 123.501953125 380.000976562 128.501953125 c 0
 384.000976562 133.501953125 386.66796875 136.668945312 388.000976562 138.001953125 c 0
 384.000976562 158.001953125 380.000976562 176.001953125 376.000976562 192.001953125 c 0
 372.000976562 207.334960938 363.500976562 230.834960938 350.500976562 262.501953125 c 0
 337.500976562 294.168945312 328.000976562 318.001953125 322.000976562 334.001953125 c 1
 306.66796875 326.668945312 292.66796875 318.001953125 280.000976562 308.001953125 c 0
 265.333984375 296.001953125 253.166992188 283.001953125 243.5 269.001953125 c 0
 233.833007812 255.001953125 225.833007812 240.334960938 219.5 225.001953125 c 0
 213.166992188 209.668945312 208 192.668945312 204 174.001953125 c 0
EndSplineSet
Validated: 1
EndChar

StartChar: quotesingle
Encoding: 39 39 14
Width: 700
GlyphClass: 2
Flags: W
LayerCount: 2
Fore
SplineSet
438 728 m 0
 436 719.333007812 433 705.833007812 429 687.5 c 0
 425 669.166992188 418.333007812 641.333984375 409 604.000976562 c 0
 394.333007812 546.000976562 383 506.000976562 375 484.000976562 c 0
 369 466.66796875 359 453.66796875 345 445.000976562 c 0
 333 437.66796875 321.333007812 434.000976562 310 434.000976562 c 0
 294 434.000976562 280.666992188 439.000976562 270 449.000976562 c 0
 263.466796875 455.534179688 260.200195312 463.701171875 260.200195312 473.500976562 c 0
 260.200195312 477.701171875 260.799804688 482.201171875 262 487.000976562 c 0
 262 489.000976562 262.666992188 491.000976562 264 493.000976562 c 0
 272 519.66796875 279.333007812 549.66796875 286 583.000976562 c 0
 296.666992188 630.333984375 307.333984375 680.000976562 318.000976562 732.000976562 c 1
 318.000976562 735.000976562 l 2
 320.000976562 744.333984375 324.000976562 752.666992188 330.000976562 760 c 0
 336.66796875 768.666992188 344.334960938 774.666992188 353.001953125 778 c 0
 365.001953125 782.666992188 377.001953125 785 389.001953125 785 c 0
 398.334960938 785 405.66796875 784 411.000976562 782 c 0
 416.333984375 780 421.666992188 777.333007812 427 774 c 0
 433 770 436.833007812 763.833007812 438.5 755.5 c 0
 440.166992188 747.166992188 440 738 438 728 c 0
EndSplineSet
Validated: 1
EndChar

StartChar: parenleft
Encoding: 40 40 15
Width: 700
GlyphClass: 2
Flags: HMW
HStem: -144 109<280.005 334.668> 721 105<493.672 534.671>
LayerCount: 2
Fore
SplineSet
362 -93 m 0
 358.666992188 -107.666992188 350.671875 -119.833007812 338.004882812 -129.5 c 0
 325.337890625 -139.166992188 313.337890625 -144 302.004882812 -144 c 0
 258.004882812 -144 222.004882812 -127 194.004882812 -93 c 0
 166.004882812 -59 147.837890625 -13 139.504882812 45 c 0
 135.850585938 70.4375 134.022460938 97.5419921875 134.022460938 126.314453125 c 0
 134.022460938 163.14453125 137.017578125 202.706054688 143.005859375 245 c 0
 145.672851562 265.666992188 150.672851562 291.5 158.005859375 322.5 c 0
 165.338867188 354.166992188 176.005859375 392.666992188 190.005859375 438 c 0
 214.672851562 517.333007812 242.005859375 582.333007812 272.005859375 633 c 0
 285.338867188 656.333007812 301.671875 679 321.004882812 701 c 0
 340.337890625 723 361.004882812 743.5 383.004882812 762.5 c 0
 405.004882812 781.5 428.837890625 796.833007812 454.504882812 808.5 c 0
 480.171875 820.166992188 504.004882812 826 526.004882812 826 c 0
 543.337890625 826 555.004882812 820.333007812 561.004882812 809 c 0
 563.727539062 803.944335938 565.088867188 797.75390625 565.088867188 790.428710938 c 0
 565.088867188 785.197265625 564.39453125 779.387695312 563.005859375 773 c 0
 559.005859375 755 550.672851562 741.666992188 538.005859375 733 c 0
 526.672851562 725 514.172851562 721 500.505859375 721 c 0
 486.838867188 721 472.671875 716.5 458.004882812 707.5 c 0
 443.337890625 698.5 429.337890625 685.666992188 416.004882812 669 c 0
 388.671875 637 364.671875 597.333007812 344.004882812 550 c 0
 328.004882812 514.666992188 311.671875 468 295.004882812 410 c 0
 286.337890625 379.333007812 279.170898438 351.833007812 273.50390625 327.5 c 0
 267.836914062 303.166992188 263.669921875 281.666992188 261.002929688 263 c 0
 255.860351562 228.713867188 253.2890625 195.286132812 253.2890625 162.71484375 c 0
 253.2890625 157.286132812 253.360351562 151.880859375 253.502929688 146.5 c 0
 254.502929688 108.833007812 258.669921875 76.8330078125 266.002929688 50.5 c 0
 273.3359375 24.1669921875 282.668945312 3 294.001953125 -13 c 0
 304.668945312 -27 315.668945312 -34.3330078125 327.001953125 -35 c 0
 342.334960938 -35 353.16796875 -39.3330078125 359.500976562 -48 c 0
 363.147460938 -52.990234375 364.969726562 -60.0791015625 364.969726562 -69.2666015625 c 0
 364.969726562 -76.0380859375 363.98046875 -83.94921875 362 -93 c 0
EndSplineSet
Validated: 1
EndChar

StartChar: parenright
Encoding: 41 41 16
Width: 700
GlyphClass: 2
Flags: HMW
HStem: -144 108.998<191.333 196> 721 105<367.667 408.333>
VStem: 453 108.999
LayerCount: 2
Fore
SplineSet
174 -144 m 0
 162.666992188 -144 152.66796875 -139.169921875 144.000976562 -129.502929688 c 0
 137.741210938 -122.520507812 134.611328125 -114.234375 134.611328125 -104.64453125 c 0
 134.611328125 -100.95703125 135.07421875 -97.076171875 136 -93.001953125 c 0
 140.666992188 -71.6689453125 148.5 -56.6689453125 159.5 -48.001953125 c 0
 170.5 -39.3349609375 183.666992188 -35.001953125 199 -35.001953125 c 0
 210.333007812 -35.001953125 224.666015625 -27.6689453125 241.999023438 -13.001953125 c 0
 260.666015625 2.998046875 279.666015625 24.1650390625 298.999023438 50.498046875 c 0
 318.33203125 76.8310546875 337.33203125 108.998046875 355.999023438 146.998046875 c 0
 374.666015625 184.998046875 390.333007812 223.665039062 403 262.998046875 c 0
 409 282.998046875 414.666992188 304.831054688 420 328.498046875 c 0
 425.333007812 352.165039062 431 379.33203125 437 409.999023438 c 0
 447.666992188 468.666015625 453 515.333007812 453 550 c 0
 453.033203125 552.333984375 453.049804688 554.65234375 453.049804688 556.953125 c 0
 453.049804688 600.65234375 447.033203125 638.333984375 435 670 c 0
 429 686 420.833007812 698.5 410.5 707.5 c 0
 400.166992188 716.5 388.166992188 721 374.5 721 c 0
 360.833007812 721 350 725 342 733 c 0
 336.0703125 738.9296875 333.10546875 747.043945312 333.10546875 757.342773438 c 0
 333.10546875 762.096679688 333.736328125 767.315429688 335 773 c 0
 337 783 340.666992188 792 346 800 c 0
 351.333007812 808 357.666015625 814 364.999023438 818 c 0
 374.999023438 823.333007812 385.666015625 826 396.999023438 826 c 0
 419.666015625 826 440.999023438 820.166992188 460.999023438 808.5 c 0
 480.999023438 796.833007812 497.666015625 781.5 510.999023438 762.5 c 0
 524.33203125 743.5 535.499023438 723 544.499023438 701 c 0
 553.499023438 679 559.33203125 656.333007812 561.999023438 633 c 0
 564.076171875 615.231445312 565.114257812 595.825195312 565.114257812 574.78125 c 0
 565.114257812 535.030273438 561.409179688 489.436523438 553.999023438 438 c 0
 547.33203125 392 540.33203125 353.5 532.999023438 322.5 c 0
 525.666015625 291.5 518.666015625 265.666992188 511.999023438 245 c 0
 487.999023438 169.666992188 458.33203125 103 422.999023438 45 c 0
 387.666015625 -13 348.333007812 -59 305 -93 c 0
 261.666992188 -127 218 -144 174 -144 c 0
EndSplineSet
Validated: 1
EndChar

StartChar: asterisk
Encoding: 42 42 17
Width: 700
GlyphClass: 2
Flags: HMW
HStem: 281.001 127.999<140 176.001> 289 119.001<534.333 563.999> 294 101.001
LayerCount: 2
Fore
SplineSet
212 102 m 2x20
 202.999023438 102.000976562 l 2
 198.999023438 102.000976562 193.83203125 102.66796875 187.499023438 104.000976562 c 0
 181.166015625 105.333984375 175.333007812 108.166992188 170 112.5 c 0
 164.666992188 116.833007812 160.333984375 122.833007812 157.000976562 130.5 c 0
 153.66796875 138.166992188 152.66796875 147.333984375 154.000976562 158.000976562 c 0
 154.000976562 160.000976562 154.333984375 162.66796875 155.000976562 166.000976562 c 0
 157.000976562 176.66796875 162.000976562 186.66796875 170.000976562 196.000976562 c 2
 241.000976562 285.000976562 l 1
 200.333984375 282.333984375 169.666992188 281.000976562 149 281.000976562 c 0
 131 281.000976562 118 287.66796875 110 301.000976562 c 0
 105.23828125 309.572265625 102.857421875 319.1640625 102.857421875 329.775390625 c 0
 102.857421875 334.020507812 103.23828125 338.4296875 104 343.000976562 c 2
 104 346.000976562 l 2
 106.666992188 359.333984375 113.333984375 372.666992188 124.000976562 386 c 0
 130.000976562 394 138.000976562 400 148.000976562 404 c 0
 155.333984375 407.333007812 163.333984375 409 172.000976562 409 c 2
 176.000976562 409 l 1
 177.000976562 409 l 2x80
 201.66796875 407 235.66796875 404.333007812 279.000976562 401 c 1
 266.333984375 439.666992188 255.333984375 470 246.000976562 492 c 0
 242.71875 501.026367188 241.078125 510.177734375 241.078125 519.456054688 c 0
 241.078125 525.254882812 241.71875 531.102539062 243.000976562 537 c 0
 243.66796875 539.666992188 244.66796875 542.333984375 246.000976562 545.000976562 c 0
 252.66796875 563.66796875 263.000976562 576.66796875 277.000976562 584.000976562 c 0
 286.333984375 589.333984375 296.166992188 592.000976562 306.5 592.000976562 c 0
 316.833007812 592.000976562 326.333007812 589.000976562 335 583.000976562 c 0
 344.333007812 576.333984375 350.333007812 566.333984375 353 553.000976562 c 0
 355.666992188 539.000976562 363.333984375 507.333984375 376.000976562 458.000976562 c 1
 402.66796875 492.66796875 425.000976562 524.000976562 443.000976562 552.000976562 c 0
 451.66796875 564.66796875 461.66796875 574.16796875 473.000976562 580.500976562 c 0
 484.333984375 586.833984375 494.666992188 590.000976562 504 590.000976562 c 0
 514 590.000976562 522.333007812 587.333984375 529 582.000976562 c 0
 535.666992188 578.000976562 540.5 571.333984375 543.5 562.000976562 c 0
 545.087890625 557.059570312 545.8828125 551.745117188 545.8828125 546.055664062 c 0
 545.8828125 541 545.254882812 535.647460938 544 530.000976562 c 0
 541.333007812 516.66796875 534.666015625 504.334960938 523.999023438 493.001953125 c 0
 500.666015625 466.334960938 474.999023438 433.66796875 446.999023438 395.000976562 c 1x20
 490.33203125 395.66796875 521.665039062 399.000976562 540.998046875 405.000976562 c 0
 549.665039062 407.000976562 555.33203125 408.000976562 557.999023438 408.000976562 c 0x40
 569.999023438 408.000976562 579.33203125 403.66796875 585.999023438 395.000976562 c 0x20
 593.499023438 385.500976562 597.249023438 375.4375 597.249023438 364.8125 c 0
 597.249023438 361.270507812 596.83203125 357.666992188 595.999023438 354 c 0
 592.666015625 339.333007812 585.999023438 325.333007812 575.999023438 312 c 0
 569.999023438 304 562.666015625 297.666992188 553.999023438 293 c 0
 547.999023438 290.333007812 541.999023438 289 535.999023438 289 c 0x40
 532.666015625 289 529.333007812 289.333007812 526 290 c 0
 511.333007812 292.666992188 484.333007812 294 445 294 c 2
 424 294 l 1
 455 196 l 2
 456.8515625 187.852539062 457.77734375 180.116210938 457.77734375 172.791992188 c 0
 457.77734375 166.931640625 457.184570312 161.333984375 455.999023438 156 c 0
 455.33203125 153.333007812 454.33203125 150.666015625 452.999023438 147.999023438 c 0
 447.666015625 132.666015625 438.666015625 121.333007812 425.999023438 114 c 0
 415.33203125 108 403.665039062 105 390.998046875 105 c 0
 380.998046875 105 371.665039062 107.333007812 362.998046875 112 c 0
 351.665039062 118 345.665039062 128 344.998046875 142 c 0
 343.665039062 164 337.998046875 194.666992188 327.998046875 234 c 1
 293.998046875 184.666992188 271.998046875 151.666992188 261.998046875 135 c 0
 256.665039062 124.333007812 249.33203125 116.333007812 239.999023438 111 c 0
 230.666015625 105.666992188 221.333007812 102.666992188 212 102 c 2x20
EndSplineSet
Validated: 1
EndChar

StartChar: plus
Encoding: 43 43 18
Width: 700
GlyphClass: 2
Flags: HMW
HStem: 346 106<474.999 480.999 474.999 474.999>
LayerCount: 2
Fore
SplineSet
385 348 m 1
 363.002929688 250 l 2
 358.3359375 230.666992188 350.8359375 217 340.502929688 209 c 0
 330.169921875 201 318.336914062 196.333007812 305.00390625 195 c 2
 304.00390625 195 l 2
 289.336914062 195 278.336914062 199 271.00390625 207 c 0
 265.064453125 212.939453125 262.094726562 220.903320312 262.094726562 230.892578125 c 0
 262.094726562 236.599609375 263.064453125 242.96875 265.00390625 249.999023438 c 2
 287.00390625 344.999023438 l 1
 204.00390625 343.999023438 l 2
 185.336914062 343.999023438 172.50390625 349.33203125 165.50390625 359.999023438 c 0
 160.76171875 367.224609375 158.391601562 375.369140625 158.391601562 384.430664062 c 0
 158.391601562 388.745117188 158.928710938 393.268554688 160.00390625 398 c 0
 160.00390625 398.666992188 160.336914062 400 161.00390625 402 c 0
 164.336914062 416 171.669921875 428.333007812 183.002929688 439 c 0
 194.3359375 449.666992188 208.668945312 455 226.001953125 455 c 0
 227.334960938 455 237.16796875 454.833007812 255.500976562 454.5 c 0
 273.833984375 454.166992188 292.666992188 453.666992188 312 453 c 1
 320.666992188 492.333007812 327.333984375 525.666015625 332.000976562 552.999023438 c 0
 336.000976562 571.666015625 345.000976562 585.333007812 359.000976562 594 c 0
 369.000976562 600.666992188 381.000976562 604 395.000976562 604 c 2
 399.000976562 604 l 2
 412.333984375 604 422.666992188 600.666992188 430 594 c 0
 435.633789062 588.799804688 438.450195312 581.487304688 438.450195312 572.0625 c 0
 438.450195312 566.987304688 437.633789062 561.299804688 436 555 c 0
 436 553 435.666992188 551 435 549 c 0
 425 515 416.666992188 482.666992188 410 452 c 1
 501 452 l 2
 519 452 530.666992188 447.333007812 536 438 c 0
 539.5546875 431.778320312 541.333007812 424.51953125 541.333007812 416.223632812 c 0
 541.333007812 412.075195312 540.887695312 407.666992188 539.999023438 403 c 2
 539.999023438 402 l 2
 538.666015625 394.666992188 536.666015625 388.166992188 533.999023438 382.5 c 0
 531.33203125 376.833007812 527.665039062 371 522.998046875 365 c 0
 517.665039062 357.666992188 510.33203125 352.666992188 500.999023438 350 c 0
 494.999023438 348 488.33203125 346.666992188 480.999023438 346 c 2
 474.999023438 346 l 2
 465.666015625 346.666992188 452.333007812 347.166992188 435 347.5 c 0
 417.666992188 347.833007812 401 348 385 348 c 1
EndSplineSet
Validated: 1
EndChar

StartChar: comma
Encoding: 44 44 19
Width: 700
GlyphClass: 2
Flags: HMW
VStem: 209.004 279.998
LayerCount: 2
Fore
SplineSet
280 -223 m 0
 268.666992188 -227 259.336914062 -228.999023438 252.00390625 -228.999023438 c 0
 244.670898438 -228.999023438 238.670898438 -227.999023438 234.00390625 -225.999023438 c 0
 226.670898438 -223.33203125 220.50390625 -218.165039062 215.50390625 -210.498046875 c 0
 210.50390625 -202.831054688 208.336914062 -193.331054688 209.00390625 -181.998046875 c 0
 209.00390625 -179.998046875 209.336914062 -177.998046875 210.00390625 -175.998046875 c 0
 212.00390625 -165.998046875 217.670898438 -155.998046875 227.00390625 -145.998046875 c 0
 243.670898438 -127.331054688 271.00390625 -84.3310546875 309.00390625 -16.998046875 c 0
 347.00390625 49.6689453125 371.336914062 96.6689453125 382.00390625 124.001953125 c 0
 387.336914062 136.001953125 395.336914062 145.501953125 406.00390625 152.501953125 c 0
 416.670898438 159.501953125 427.00390625 163.001953125 437.00390625 163.001953125 c 0
 437.670898438 163.001953125 438.670898438 163.334960938 440.00390625 164.001953125 c 0
 447.336914062 164.001953125 454.669921875 163.001953125 462.002929688 161.001953125 c 0
 473.3359375 157.001953125 481.668945312 149.334960938 487.001953125 138.001953125 c 0
 489.40234375 132.40234375 490.602539062 126.202148438 490.602539062 119.40234375 c 0
 490.602539062 114.869140625 490.068359375 110.068359375 489.001953125 105.001953125 c 0
 488.334960938 100.334960938 487.001953125 96.66796875 485.001953125 94.0009765625 c 0
 471.001953125 61.333984375 446.001953125 10.333984375 410.001953125 -58.9990234375 c 0
 373.334960938 -128.33203125 347.16796875 -171.33203125 331.500976562 -187.999023438 c 0
 315.833984375 -204.666015625 298.666992188 -216.333007812 280 -223 c 0
EndSplineSet
Validated: 1
EndChar

StartChar: hyphen
Encoding: 45 45 20
Width: 700
GlyphClass: 2
Flags: HMW
HStem: 230.001 111.999<225.667 274.667> 234.501 109
VStem: 194 313.001<285 296.001>
LayerCount: 2
Fore
SplineSet
257 342 m 0xa0
 292.333007812 342 334.500976562 342.500976562 383.500976562 343.500976562 c 0
 432.500976562 344.500976562 460.333984375 345.000976562 467.000976562 345.000976562 c 0
 485.000976562 345.000976562 496.833984375 340.333984375 502.500976562 331.000976562 c 0
 506.354492188 324.654296875 508.28125 317.229492188 508.28125 308.724609375 c 0
 508.28125 304.72265625 507.854492188 300.481445312 507.000976562 296.000976562 c 1
 506.000976562 295.000976562 l 1
 502.66796875 279.000976562 496.66796875 266.66796875 488.000976562 258.000976562 c 0
 476.000976562 245.333984375 461.000976562 239.000976562 443.000976562 239.000976562 c 0
 435.000976562 239.000976562 403.500976562 237.500976562 348.500976562 234.500976562 c 0x60
 293.500976562 231.500976562 255.000976562 230.000976562 233.000976562 230.000976562 c 0
 218.333984375 230.000976562 207.666992188 234.000976562 201 242.000976562 c 0
 195.0703125 248.38671875 192.10546875 257.11328125 192.10546875 268.1796875 c 0
 192.10546875 273.288085938 192.736328125 278.89453125 194 285 c 0
 194 286.333007812 194.333007812 288 195 290 c 0
 199 308.666992188 207.666992188 322.666992188 221 332 c 0
 231 338.666992188 243 342 257 342 c 0xa0
EndSplineSet
Validated: 1
EndChar

StartChar: period
Encoding: 46 46 21
Width: 700
GlyphClass: 2
Flags: HMW
HStem: -26 178.002<311 387.333 322 387.333>
VStem: 262 175.5
LayerCount: 2
Fore
SplineSet
322 -26 m 2
 300 -26 283.333007812 -18 272 -2 c 0
 263.404296875 10.6669921875 259.107421875 24.71484375 259.107421875 40.14453125 c 0
 259.107421875 47.453125 260.071289062 55.072265625 262 63.0009765625 c 0
 268 87.66796875 282 108.334960938 304 125.001953125 c 0
 328 143.001953125 351.833007812 152.001953125 375.5 152.001953125 c 0
 399.166992188 152.001953125 416.666992188 144.001953125 428 128.001953125 c 0
 436.151367188 116.680664062 440.2265625 103.514648438 440.2265625 88.5029296875 c 0
 440.2265625 81.4130859375 439.317382812 73.9130859375 437.5 66.0009765625 c 0
 431.833007812 41.333984375 419.333007812 20.6669921875 400 4 c 0
 380.666992188 -12.6669921875 358 -22.6669921875 332 -26 c 2
 322 -26 l 2
EndSplineSet
Validated: 1
EndChar

StartChar: slash
Encoding: 47 47 22
Width: 700
GlyphClass: 2
Flags: HMW
HStem: 746 20G<626.001 636.001>
LayerCount: 2
Fore
SplineSet
84 -67 m 0
 74 -71 64.6689453125 -73.16796875 56.001953125 -73.5009765625 c 0
 47.3349609375 -73.833984375 40.001953125 -71.333984375 34.001953125 -66.0009765625 c 0
 25.46875 -59.6015625 21.2021484375 -48.5078125 21.2021484375 -32.7216796875 c 0
 21.2021484375 -28.775390625 21.46875 -24.53515625 22.001953125 -20.0009765625 c 0
 22.001953125 -16.66796875 22.6689453125 -13.0009765625 24.001953125 -9.0009765625 c 0
 28.001953125 8.33203125 36.001953125 24.9990234375 48.001953125 40.9990234375 c 0
 175.334960938 200.999023438 285.66796875 342.999023438 379.000976562 466.999023438 c 0
 437.000976562 542.999023438 499.66796875 629.666015625 567.000976562 726.999023438 c 0
 575.66796875 739.666015625 586.000976562 749.333007812 598.000976562 756 c 0
 610.000976562 762.666992188 621.000976562 766 631.000976562 766 c 0
 641.000976562 766 650.333984375 763.666992188 659.000976562 759 c 0
 671.66796875 751 678.334960938 739 679.001953125 723 c 0
 679.001953125 718.333007812 678.334960938 713.333007812 677.001953125 708 c 0
 674.334960938 696.666992188 668.66796875 684.333984375 660.000976562 671.000976562 c 0
 636.000976562 636.333984375 571.333984375 552.500976562 466.000976562 419.500976562 c 0
 360.66796875 286.500976562 296.000976562 204.000976562 272.000976562 172.000976562 c 0
 257.333984375 151.333984375 233.166992188 116.333984375 199.5 67.0009765625 c 0
 165.833007812 17.66796875 145 -12.33203125 137 -22.9990234375 c 0
 121 -43.666015625 103.333007812 -58.3330078125 84 -67 c 0
EndSplineSet
Validated: 1
EndChar

StartChar: zero
Encoding: 48 48 23
Width: 700
GlyphClass: 2
Flags: HMW
HStem: -24 107.996<228.331 278.999> 611.997 106.003<400.666 473.333>
LayerCount: 2
Fore
SplineSet
623 491 m 0
 622.333007812 488.333007812 622.33203125 487.999023438 622.999023438 489.999023438 c 1
 616.999023438 450.666015625 609.33203125 410.666015625 599.999023438 369.999023438 c 0
 590.666015625 329.33203125 580.166015625 289.33203125 568.499023438 249.999023438 c 0
 556.83203125 210.666015625 545.665039062 179.666015625 534.998046875 156.999023438 c 0
 514.331054688 114.33203125 492.331054688 79.6650390625 468.998046875 52.998046875 c 0
 457.665039062 39.6650390625 445.33203125 28.33203125 431.999023438 18.9990234375 c 0
 418.666015625 9.666015625 405.666015625 2.3330078125 392.999023438 -3 c 0
 379.666015625 -8.3330078125 364.666015625 -13 347.999023438 -17 c 0
 331.33203125 -20.3330078125 315.165039062 -22.3330078125 299.498046875 -23 c 0
 283.831054688 -23.6669921875 265.6640625 -24 244.997070312 -24 c 0
 211.6640625 -24 181.997070312 -18.3330078125 155.997070312 -7 c 0
 131.997070312 4.3330078125 112.997070312 20.5 98.9970703125 41.5 c 0
 84.9970703125 62.5 76.4970703125 87.6669921875 73.4970703125 117 c 0
 72.6787109375 125 72.26953125 133.173828125 72.26953125 141.520507812 c 0
 72.26953125 163.779296875 75.1787109375 187.272460938 80.9970703125 212 c 0
 80.9970703125 214 81.330078125 216 81.9970703125 218 c 0
 89.330078125 250 96.330078125 280.666992188 102.997070312 310 c 0
 107.6640625 330.666992188 113.831054688 356 121.498046875 386 c 0
 129.165039062 416 136.33203125 440.833007812 142.999023438 460.5 c 0
 149.666015625 480.166992188 157.999023438 501.333984375 167.999023438 524.000976562 c 0
 177.999023438 547.333984375 187.999023438 567.666992188 197.999023438 585 c 0
 223.999023438 628.333007812 258.666015625 661.333007812 301.999023438 684 c 0
 348.666015625 706.666992188 400.999023438 718 458.999023438 718 c 0
 487.666015625 718 513.666015625 713.333007812 536.999023438 704 c 0
 559.666015625 694.666992188 578.333007812 680.666992188 593 662 c 0
 607.666992188 643.333007812 617.666992188 619.5 623 590.5 c 0
 625.666015625 576 627 560.458007812 627 543.875 c 0
 627 527.291015625 625.666015625 509.666015625 623 491 c 0
467.999023438 599.999023438 m 0
 455 608.046875 439.701171875 612.068359375 422.104492188 612.068359375 c 0
 420.749023438 612.068359375 419.380859375 612.044921875 417.999023438 611.997070312 c 0
 383.33203125 611.997070312 354.499023438 602.830078125 331.499023438 584.497070312 c 0
 308.499023438 566.1640625 286.666015625 534.997070312 265.999023438 490.997070312 c 0
 257.999023438 473.6640625 250.666015625 455.331054688 243.999023438 435.998046875 c 0
 237.999023438 416.665039062 232.33203125 393.998046875 226.999023438 367.998046875 c 0
 217.666015625 327.998046875 207.666015625 281.665039062 196.999023438 228.998046875 c 1
 303.666015625 339.665039062 403.666015625 453.33203125 496.999023438 569.999023438 c 1
 489.666015625 582.666015625 479.999023438 592.666015625 467.999023438 599.999023438 c 0
507.999023438 457.997070312 m 1
 410.666015625 330.6640625 307.666015625 221.99609375 198.999023438 131.99609375 c 1
 208.33203125 100.663085938 231.999023438 84.6630859375 269.999023438 83.99609375 c 0
 287.999023438 83.99609375 303.83203125 85.49609375 317.499023438 88.49609375 c 0
 331.166015625 91.49609375 344.666015625 96.3291015625 357.999023438 102.99609375 c 0
 384.666015625 116.99609375 408.666015625 143.99609375 429.999023438 183.99609375 c 0
 433.999023438 191.99609375 441.666015625 213.329101562 452.999023438 247.99609375 c 0
 464.33203125 282.663085938 475.999023438 323.330078125 487.999023438 369.997070312 c 0
 495.999023438 400.6640625 502.666015625 429.997070312 507.999023438 457.997070312 c 1
EndSplineSet
Validated: 1
EndChar

StartChar: one
Encoding: 49 49 24
Width: 700
GlyphClass: 2
Flags: HMW
HStem: -9 111 -5 114<130.33 180.329>
LayerCount: 2
Fore
SplineSet
99 33 m 0x40
 99 38 100 43 101 49 c 0
 101 50 101 52 102 53 c 0
 105 68 112 80 121 91 c 0
 133 103 148 109 167 109 c 0x40
 194 109 240 108 305 107 c 1
 310 126 313 143 315 157 c 0
 316 163 319 180 326 208 c 0
 332 233 337 254 342 271 c 2
 370 379 l 2
 397 480 413 539 418 556 c 1
 371 526 337 507 314 499 c 0
 306 497 301 496 298 496 c 0
 287 496 276 501 267 511 c 0
 258 521 253 532 253 542 c 0
 253 545 254 548 255 552 c 0
 258 565 263 577 271 587 c 0
 279 597 290 607 304 616 c 0
 325 630 352 649 387 672 c 1
 399 674 413 683 428 699 c 0
 440 707 453 714 466 721 c 0
 478 727 488 730 497 730 c 2
 500 730 l 2
 517 730 533 723 548 710 c 0
 556 703 561 696 564 690 c 0
 565 688 566 686 566 683 c 0
 566 672 558 643 523 514 c 0
 499 424 485 371 481 356 c 0
 466 294 455 242 446 200 c 2
 446 200 445 198 445 195 c 0
 440 173 434 142 426 103 c 1
 459 102 480 102 489 102 c 2
 524 102 l 2
 539 102 548 101 552 101 c 0
 573 101 586 97 593 87 c 0
 598 80 600 71 600 62 c 0
 600 58 600 54 599 50 c 0
 599 49 599 48 598 47 c 0
 595 32 587 19 576 8 c 0
 564 -3 547 -9 526 -9 c 0x80
 291 -7 162 -6 139 -5 c 0
 122 -5 110 0 104 11 c 0
 101 18 99 25 99 33 c 0x40
EndSplineSet
Validated: 1
EndChar

StartChar: two
Encoding: 50 50 25
Width: 700
GlyphClass: 2
Flags: HMW
HStem: -20.0059 113.005 -12.0059 113.006<481 481 481 486.994> 506.997 21G<232.659 235.992> 612.996 109.001<439.662 448.994>
LayerCount: 2
Fore
SplineSet
481 101 m 1x70
 481.993164062 100.993164062 l 1
 490.66015625 109.66015625 496.993164062 109.993164062 500.993164062 101.993164062 c 0
 502.993164062 101.993164062 506.66015625 101.826171875 511.993164062 101.493164062 c 0
 517.326171875 101.16015625 521.326171875 100.16015625 523.993164062 98.4931640625 c 0
 526.66015625 96.826171875 529.327148438 94.9931640625 531.994140625 92.9931640625 c 0
 535.994140625 90.326171875 538.661132812 86.326171875 539.994140625 80.9931640625 c 0
 541.327148438 72.9931640625 540.994140625 63.66015625 538.994140625 52.9931640625 c 0
 534.327148438 33.66015625 525.994140625 17.3271484375 513.994140625 3.994140625 c 0
 503.994140625 -6.6728515625 492.994140625 -12.005859375 480.994140625 -12.005859375 c 0x70
 437.661132812 -12.005859375 366.661132812 -14.005859375 267.994140625 -18.005859375 c 0
 234.661132812 -19.3388671875 200.661132812 -20.005859375 165.994140625 -20.005859375 c 0
 133.994140625 -20.005859375 108.994140625 -18.6728515625 90.994140625 -16.005859375 c 0
 80.994140625 -14.6728515625 73.3271484375 -10.33984375 67.994140625 -3.0068359375 c 0
 63.994140625 2.326171875 61.3271484375 9.326171875 59.994140625 17.9931640625 c 0
 59.5498046875 21.8447265625 59.3271484375 26.0263671875 59.3271484375 30.5361328125 c 0
 59.3271484375 46.322265625 62.0498046875 66.140625 67.494140625 89.9931640625 c 0
 74.494140625 120.66015625 87.6611328125 151.493164062 106.994140625 182.493164062 c 0
 126.327148438 213.493164062 150.994140625 243.66015625 180.994140625 272.993164062 c 0
 210.994140625 302.326171875 244.661132812 325.993164062 281.994140625 343.993164062 c 0
 363.327148438 382.66015625 415.994140625 409.327148438 439.994140625 423.994140625 c 0
 469.994140625 442.661132812 490.661132812 462.328125 501.994140625 482.995117188 c 0
 508.661132812 495.662109375 513.994140625 511.329101562 517.994140625 529.99609375 c 0
 520.14453125 539.458007812 521.219726562 548.053710938 521.219726562 555.78125 c 0
 521.219726562 572.010742188 516.477539062 584.415039062 506.994140625 592.99609375 c 0
 492.327148438 606.329101562 466.994140625 612.99609375 430.994140625 612.99609375 c 0
 406.994140625 612.99609375 382.161132812 605.663085938 356.494140625 590.99609375 c 0
 330.827148438 576.329101562 309.66015625 559.99609375 292.993164062 541.99609375 c 0
 284.326171875 532.663085938 276.159179688 524.830078125 268.4921875 518.497070312 c 0
 260.825195312 512.1640625 252.9921875 508.6640625 244.9921875 507.997070312 c 0
 242.9921875 507.997070312 239.9921875 507.6640625 235.9921875 506.997070312 c 0
 229.325195312 506.997070312 220.325195312 510.330078125 208.9921875 516.997070312 c 0
 196.9921875 524.997070312 190.659179688 536.330078125 189.9921875 550.997070312 c 0
 189.9921875 554.330078125 190.325195312 557.997070312 190.9921875 561.997070312 c 0
 193.659179688 573.997070312 200.326171875 587.6640625 210.993164062 602.997070312 c 0
 220.993164062 616.997070312 233.993164062 630.830078125 249.993164062 644.497070312 c 0
 265.993164062 658.1640625 283.993164062 670.997070312 303.993164062 682.997070312 c 0
 324.66015625 694.997070312 348.327148438 704.497070312 374.994140625 711.497070312 c 0
 401.661132812 718.497070312 427.328125 721.997070312 451.995117188 721.997070312 c 0
 528.662109375 721.997070312 581.995117188 704.997070312 611.995117188 670.997070312 c 0
 630.975585938 648.997070312 640.465820312 619.87890625 640.465820312 583.643554688 c 0
 640.465820312 563.87890625 637.642578125 541.997070312 631.995117188 517.997070312 c 0
 618.662109375 462.6640625 594.329101562 417.331054688 558.99609375 381.998046875 c 0
 532.99609375 357.331054688 489.663085938 330.331054688 428.99609375 300.998046875 c 0
 413.663085938 293.665039062 387.330078125 281.665039062 349.997070312 264.998046875 c 0
 318.6640625 250.998046875 291.331054688 233.831054688 267.998046875 213.498046875 c 0
 244.665039062 193.165039062 226.33203125 172.33203125 212.999023438 150.999023438 c 0
 201.666015625 132.999023438 192.666015625 113.666015625 185.999023438 92.9990234375 c 1xb0
 221.999023438 91.666015625 256.33203125 90.8330078125 288.999023438 90.5 c 0
 295.528320312 90.43359375 301.778320312 90.400390625 307.749023438 90.400390625 c 0
 331.647460938 90.400390625 351.064453125 90.93359375 366 92 c 0
 384 93.3330078125 422.333007812 96.3330078125 481 101 c 1x70
EndSplineSet
Validated: 1
EndChar

StartChar: three
Encoding: 51 51 26
Width: 700
GlyphClass: 2
Flags: HMW
HStem: -23.998 107.998<250.331 310.667> 306 125<298 303.666> 521.001 21G<233.334 240.001> 613 109.001<397.002 465.001>
VStem: 501.001 115<522.002 538.333>
LayerCount: 2
Fore
SplineSet
570 279.5 m 0
 570.4609375 274.501953125 570.692382812 269.318359375 570.692382812 263.948242188 c 0
 570.692382812 246.037109375 568.125976562 226.055664062 562.997070312 204.000976562 c 0
 546.997070312 134.000976562 513.330078125 78.333984375 461.997070312 37.0009765625 c 0
 410.823242188 -3.67578125 345.767578125 -24.013671875 266.829101562 -24.013671875 c 0
 265.555664062 -24.013671875 264.278320312 -24.0087890625 262.997070312 -23.998046875 c 0
 237.6640625 -23.998046875 213.331054688 -20.3310546875 189.998046875 -12.998046875 c 0
 166.665039062 -5.6650390625 147.83203125 3.66796875 133.499023438 15.0009765625 c 0
 119.166015625 26.333984375 107.333007812 39.0009765625 98 53.0009765625 c 0
 88 67.0009765625 81.3330078125 80.833984375 78 94.5009765625 c 0
 76.1484375 102.092773438 75.22265625 109.427734375 75.22265625 116.504882812 c 0
 75.22265625 122.16796875 75.8154296875 127.666992188 77.0009765625 133.000976562 c 0
 77.66796875 137.000976562 79.0009765625 141.000976562 81.0009765625 145.000976562 c 0
 87.66796875 161.000976562 98.66796875 172.66796875 114.000976562 180.000976562 c 0
 125.333984375 185.333984375 135.333984375 188 144.000976562 188 c 0
 162.66796875 188 177.000976562 177.333984375 187.000976562 156.000976562 c 0
 196.333984375 137.333984375 210.166992188 120.666992188 228.5 106 c 0
 246.833007812 91.3330078125 268 84 292 84 c 0
 329.333007812 84 362.166015625 93.8330078125 390.499023438 113.5 c 0
 418.83203125 133.166992188 436.665039062 158 443.998046875 188 c 0
 446.720703125 199.278320312 448.08203125 209.592773438 448.08203125 218.942382812 c 0
 448.08203125 225.620117188 447.387695312 231.805664062 445.999023438 237.5 c 0
 442.666015625 251.166992188 435.499023438 263.166992188 424.499023438 273.5 c 0
 413.499023438 283.833007812 396.499023438 291.833007812 373.499023438 297.5 c 0
 350.499023438 303.166992188 321.33203125 306 285.999023438 306 c 0
 268.666015625 306 255.333007812 312.666992188 246 326 c 0
 239.466796875 335.333007812 236.200195312 345.483398438 236.200195312 356.450195312 c 0
 236.200195312 361.150390625 236.799804688 366 238 371 c 0
 242 387.666992188 249.666992188 401.666992188 261 413 c 0
 273.666992188 425 289 431 307 431 c 0
 361.666992188 431 406.333984375 440.666992188 441.000976562 460 c 0
 473.000976562 478 493.000976562 504 501.000976562 538 c 0
 501.000976562 538.609375 501.278320312 539.495117188 501.834960938 540.66015625 c 0
 501.884765625 541.064453125 501.939453125 541.510742188 502.000976562 541.999023438 c 0
 502.000976562 543.33203125 502.333984375 544.33203125 503.000976562 544.999023438 c 0
 504.376953125 550.848632812 505.065429688 556.297851562 505.065429688 561.348632812 c 0
 505.065429688 575.868164062 499.376953125 587.0859375 488.000976562 595 c 0
 471.53515625 607.033203125 445.141601562 613.049804688 408.822265625 613.049804688 c 0
 406.909179688 613.049804688 404.969726562 613.033203125 403.001953125 613 c 0
 391.001953125 613 378.001953125 611 364.001953125 607 c 0
 360.001953125 605.666992188 355.001953125 603.166992188 349.001953125 599.5 c 0
 343.001953125 595.833007812 338.334960938 592.833007812 335.001953125 590.5 c 0
 331.668945312 588.166992188 327.001953125 584.333984375 321.001953125 579.000976562 c 0
 315.001953125 573.66796875 311.001953125 569.66796875 309.001953125 567.000976562 c 0
 302.334960938 553.66796875 297.66796875 549.000976562 295.000976562 553.000976562 c 1
 279.000976562 536.333984375 264.000976562 526.000976562 250.000976562 522.000976562 c 0
 246.000976562 521.333984375 242 521.000976562 238 521.000976562 c 0
 228.666992188 521.000976562 219.334960938 523.66796875 210.001953125 529.000976562 c 0
 199.202148438 535.600585938 193.801757812 545.7109375 193.801757812 559.33203125 c 0
 193.801757812 559.499023438 193.856445312 569.130859375 195.001953125 576.000976562 c 0
 197.668945312 588.000976562 204.001953125 601.000976562 214.001953125 615.000976562 c 0
 234.001953125 643.000976562 259.668945312 667.333984375 291.001953125 688.000976562 c 0
 307.668945312 698.66796875 327.668945312 707.000976562 351.001953125 713.000976562 c 0
 374.334960938 719.000976562 398.66796875 722.000976562 424.000976562 722.000976562 c 0
 506.000976562 722.000976562 562.66796875 705.66796875 594.000976562 673.000976562 c 0
 614.455078125 650.728515625 624.682617188 621.482421875 624.682617188 585.262695312 c 0
 624.682617188 568.360351562 622.455078125 549.939453125 618.000976562 530 c 0
 618.000976562 528.666992188 617.66796875 527.333984375 617.000976562 526.000976562 c 0
 616.333984375 524.66796875 616.000976562 523.333984375 616.000976562 522.000976562 c 0
 612.000976562 503.333984375 605.500976562 486.001953125 596.500976562 470.001953125 c 0
 587.500976562 454.001953125 577.16796875 440.334960938 565.500976562 429.001953125 c 0
 553.833984375 417.668945312 540.833984375 407.668945312 526.500976562 399.001953125 c 0
 512.16796875 390.334960938 497.66796875 383.66796875 483.000976562 379.000976562 c 1
 492.333984375 375.66796875 500.666992188 372.334960938 508 369.001953125 c 0
 524.666992188 360.334960938 538.666992188 348.66796875 550 334.000976562 c 0
 561.333007812 319.333984375 568 301.166992188 570 279.5 c 0
EndSplineSet
Validated: 1
EndChar

StartChar: four
Encoding: 52 52 27
Width: 700
GlyphClass: 2
Flags: HMW
HStem: -23.001 21G<399.334 414.001> 218.998 90.002<361 362.001 362.001 404.001>
LayerCount: 2
Fore
SplineSet
361 309 m 2
 423.999023438 309 l 1
 450.666015625 424.333007812 470.333007812 517.666015625 483 588.999023438 c 1
 367.666992188 469.666015625 285 375.333007812 235 306 c 1
 269.666992188 308 311.666992188 309 361 309 c 2
465.999023438 60 m 0
 465.999023438 52 465.000976562 44.33203125 463.000976562 36.9990234375 c 0
 460.333984375 23.666015625 455.333984375 11.9990234375 448.000976562 1.9990234375 c 0
 436.000976562 -14.66796875 422.000976562 -23.0009765625 406.000976562 -23.0009765625 c 0
 392.66796875 -23.0009765625 381.000976562 -17.833984375 371.000976562 -7.5009765625 c 0
 362.66796875 1.109375 358.500976562 10.068359375 358.500976562 19.373046875 c 0
 358.500976562 21.234375 358.66796875 23.109375 359.000976562 24.998046875 c 0
 360.333984375 32.998046875 363.000976562 45.6650390625 367.000976562 62.998046875 c 2
 385.000976562 138.998046875 l 2
 391.66796875 166.331054688 398.000976562 192.998046875 404.000976562 218.998046875 c 1
 362.000976562 218.998046875 l 2
 270.000976562 218.998046875 204.000976562 214.665039062 164.000976562 205.998046875 c 0
 159.333984375 205.331054688 154.500976562 204.998046875 149.500976562 204.998046875 c 0
 144.500976562 204.998046875 140.000976562 205.998046875 136.000976562 207.998046875 c 0
 128.000976562 211.331054688 122.16796875 216.331054688 118.500976562 222.998046875 c 0
 114.833984375 229.665039062 112.666992188 237.498046875 112 246.498046875 c 0
 111.333007812 255.498046875 112 264.665039062 114 273.998046875 c 0
 116.666992188 284.665039062 120.666992188 294.665039062 126 303.998046875 c 0
 136.666992188 323.331054688 160.5 353.831054688 197.5 395.498046875 c 0
 234.5 437.165039062 282.333007812 488.998046875 341 550.998046875 c 0
 393 605.665039062 435 650.665039062 467 685.998046875 c 0
 479 698.665039062 491.333007812 708.33203125 504 714.999023438 c 0
 516.666992188 721.666015625 528 724.999023438 538 724.999023438 c 0
 541.333007812 724.999023438 543.666015625 725.33203125 544.999023438 725.999023438 c 0
 556.33203125 725.999023438 565.999023438 723.33203125 573.999023438 717.999023438 c 0
 583.374023438 711.749023438 588.061523438 701.397460938 588.061523438 686.9453125 c 0
 588.061523438 682.481445312 587.088867188 654.850585938 572.499023438 576.5 c 0
 563.499023438 528.166992188 555.33203125 487.666992188 547.999023438 455 c 0
 537.33203125 405.666992188 526.999023438 356.666992188 516.999023438 308 c 1
 526.33203125 308 536.665039062 307.666992188 547.998046875 307 c 0
 563.998046875 307 574.331054688 303.166992188 578.998046875 295.5 c 0
 583.665039062 287.833007812 584.665039062 278 581.998046875 266 c 0
 578.665039062 252 573.33203125 240.666992188 565.999023438 232 c 0
 555.999023438 222 542.999023438 217 526.999023438 217 c 0
 516.33203125 217 506.33203125 217.333007812 496.999023438 218 c 1
 476.33203125 126 465.999023438 73.3330078125 465.999023438 60 c 0
EndSplineSet
Validated: 1
EndChar

StartChar: five
Encoding: 53 53 28
Width: 700
GlyphClass: 2
Flags: HMW
HStem: -18.002 109.001<235.999 264> 407.998 112.999<377 452.999> 594.998 112.999<586.331 625.994> 605.998 103.999
LayerCount: 2
Fore
SplineSet
164 561 m 0xd0
 170 581.666992188 174.328125 596.997070312 176.995117188 606.997070312 c 1
 174.995117188 612.997070312 173.995117188 619.497070312 173.995117188 626.497070312 c 0
 173.995117188 633.497070312 174.995117188 640.997070312 176.995117188 648.997070312 c 0
 181.662109375 670.330078125 191.662109375 686.997070312 206.995117188 698.997070312 c 0
 217.662109375 707.6640625 228.995117188 711.997070312 240.995117188 711.997070312 c 0
 264.328125 711.997070312 321.661132812 711.330078125 412.994140625 709.997070312 c 0xd0
 506.327148438 708.6640625 575.327148438 707.997070312 619.994140625 707.997070312 c 0
 631.994140625 707.997070312 640.327148438 702.6640625 644.994140625 691.997070312 c 0
 648.369140625 684.497070312 650.056640625 676.047851562 650.056640625 666.649414062 c 0
 650.056640625 659.33984375 649.036132812 651.456054688 646.994140625 642.998046875 c 0
 642.327148438 623.665039062 633.994140625 610.665039062 621.994140625 603.998046875 c 0
 618.661132812 601.998046875 615.328125 600.165039062 611.995117188 598.498046875 c 0
 608.662109375 596.831054688 604.329101562 595.831054688 598.99609375 595.498046875 c 0
 593.663085938 595.165039062 589.830078125 594.998046875 587.497070312 594.998046875 c 0xe0
 585.1640625 594.998046875 581.831054688 595.165039062 577.498046875 595.498046875 c 0
 573.165039062 595.831054688 570.33203125 595.998046875 568.999023438 595.998046875 c 0
 560.33203125 595.998046875 544.33203125 597.331054688 520.999023438 599.998046875 c 0
 496.999023438 601.998046875 475.666015625 603.498046875 456.999023438 604.498046875 c 0
 438.33203125 605.498046875 412.999023438 605.998046875 380.999023438 605.998046875 c 0
 348.999023438 605.998046875 316.666015625 604.998046875 283.999023438 602.998046875 c 1
 269.999023438 552.998046875 261.666015625 522.998046875 258.999023438 512.998046875 c 0
 256.33203125 500.998046875 254.33203125 492.331054688 252.999023438 486.998046875 c 0
 251.666015625 481.665039062 249.999023438 474.665039062 247.999023438 465.998046875 c 1
 267.999023438 479.331054688 290.999023438 490.6640625 316.999023438 499.997070312 c 0
 354.33203125 513.997070312 394.33203125 520.997070312 436.999023438 520.997070312 c 0
 468.999023438 520.997070312 496.33203125 515.330078125 518.999023438 503.997070312 c 0
 539.666015625 491.997070312 555.499023438 475.997070312 566.499023438 455.997070312 c 0
 577.499023438 435.997070312 583.999023438 412.830078125 585.999023438 386.497070312 c 0
 586.427734375 380.854492188 586.641601562 375.112304688 586.641601562 369.271484375 c 0
 586.641601562 347.850585938 583.760742188 325.092773438 577.999023438 300.997070312 c 0
 566.666015625 251.6640625 550.333007812 206.831054688 529 166.498046875 c 0
 507.666992188 126.165039062 483 92.498046875 455 65.498046875 c 0
 427 38.498046875 395 17.6650390625 359 2.998046875 c 0
 322.333007812 -11.001953125 284 -18.001953125 244 -18.001953125 c 0
 213.333007812 -18.001953125 185.666015625 -14.6689453125 160.999023438 -8.001953125 c 0
 136.33203125 -1.3349609375 116.999023438 7.33203125 102.999023438 17.9990234375 c 0
 88.9990234375 28.666015625 77.9990234375 40.3330078125 69.9990234375 53 c 0
 61.9990234375 65.6669921875 55.9990234375 79 51.9990234375 93 c 0
 50.666015625 100.666015625 49.9990234375 107.916015625 49.9990234375 114.75 c 0
 49.9990234375 121.583007812 50.666015625 128 51.9990234375 134 c 0
 52.666015625 138 53.666015625 142 54.9990234375 146 c 0
 61.666015625 160.666992188 72.9990234375 172 88.9990234375 180 c 0
 97.666015625 183.333007812 104.499023438 185.666015625 109.499023438 186.999023438 c 0
 114.499023438 188.33203125 118.499023438 188.999023438 121.499023438 188.999023438 c 0
 124.499023438 188.999023438 127.33203125 188.666015625 129.999023438 187.999023438 c 0
 137.999023438 187.33203125 144.33203125 183.665039062 148.999023438 176.998046875 c 0
 152.999023438 171.665039062 157.33203125 164.33203125 161.999023438 154.999023438 c 0
 179.999023438 112.33203125 212.499023438 90.9990234375 259.499023438 90.9990234375 c 0
 306.499023438 90.9990234375 347.666015625 108.33203125 382.999023438 142.999023438 c 0
 419.666015625 178.999023438 445.333007812 227.666015625 460 288.999023438 c 0
 463.520507812 304.166015625 465.28125 318.01171875 465.28125 330.538085938 c 0
 465.28125 348.844726562 461.520507812 364.33203125 454 376.998046875 c 0
 442 397.665039062 419 407.998046875 385 407.998046875 c 0
 369 407.998046875 351.666992188 405.998046875 333 401.998046875 c 0
 323.666992188 399.998046875 310.333984375 395.331054688 293.000976562 387.998046875 c 0
 289.000976562 386.665039062 283.500976562 383.498046875 276.500976562 378.498046875 c 0
 269.500976562 373.498046875 264.66796875 369.998046875 262.000976562 367.998046875 c 0
 249.333984375 358.665039062 239.000976562 350.665039062 231.000976562 343.998046875 c 0
 213.66796875 331.331054688 195.66796875 323.998046875 177.000976562 321.998046875 c 2
 170.000976562 321.998046875 l 2
 161.333984375 321.998046875 153.000976562 323.998046875 145.000976562 327.998046875 c 0
 133.000976562 333.998046875 126.333984375 346.665039062 125.000976562 365.998046875 c 0
 124.66796875 370.165039062 124.500976562 374.581054688 124.500976562 379.248046875 c 0
 124.500976562 393.248046875 126.000976562 409.498046875 129.000976562 427.999023438 c 0
 131.000976562 438.666015625 133.333984375 449.333007812 136.000976562 460 c 0
 141.333984375 483.333007812 150.666992188 517 164 561 c 0xd0
EndSplineSet
Validated: 1
EndChar

StartChar: six
Encoding: 54 54 29
Width: 700
GlyphClass: 2
Flags: HMW
HStem: -22.0029 108<257.333 305> 379.997 114.001<370.999 456.333>
LayerCount: 2
Fore
SplineSet
600 361 m 0
 600.352539062 355.471679688 600.529296875 349.787109375 600.529296875 343.948242188 c 0
 600.529296875 316.689453125 596.685546875 286.038085938 588.999023438 251.998046875 c 0
 580.33203125 213.998046875 565.999023438 178.331054688 545.999023438 144.998046875 c 0
 505.999023438 76.3310546875 452.666015625 27.6640625 385.999023438 -1.0029296875 c 0
 350.666015625 -15.0029296875 314.999023438 -22.0029296875 278.999023438 -22.0029296875 c 0
 235.666015625 -22.0029296875 199.333007812 -14.0029296875 170 1.9970703125 c 0
 142 17.9970703125 122 41.1640625 110 71.4970703125 c 0
 98.32421875 101.010742188 92.486328125 134.943359375 92.486328125 173.293945312 c 0
 92.486328125 204.677734375 95.916015625 248.9375 109 306.997070312 c 0
 123 366.997070312 140.666992188 420.497070312 162 467.497070312 c 0
 183.333007812 514.497070312 207 553.830078125 233 585.497070312 c 0
 259 617.1640625 288.333007812 643.997070312 321 665.997070312 c 0
 355.666992188 687.997070312 391.166992188 704.497070312 427.5 715.497070312 c 0
 463.833007812 726.497070312 503 733.6640625 545 736.997070312 c 2
 555 736.997070312 l 2
 569 736.997070312 580.666992188 734.330078125 590 728.997070312 c 0
 601.4609375 722.362304688 607.19140625 712.1796875 607.19140625 698.44921875 c 0
 607.19140625 695.75390625 607.19140625 692.376953125 606.000976562 689.998046875 c 0
 604.000976562 679.998046875 597.000976562 669.665039062 585.000976562 658.998046875 c 0
 572.333984375 648.331054688 559.333984375 641.331054688 546.000976562 637.998046875 c 0
 538.000976562 635.998046875 525.833984375 633.331054688 509.500976562 629.998046875 c 0
 493.16796875 626.665039062 479.500976562 623.665039062 468.500976562 620.998046875 c 0
 457.500976562 618.331054688 444.333984375 614.331054688 429.000976562 608.998046875 c 0
 399.66796875 598.331054688 367.66796875 577.998046875 333.000976562 547.998046875 c 0
 315.66796875 531.998046875 297.334960938 510.331054688 278.001953125 482.998046875 c 0
 269.334960938 468.998046875 261.66796875 455.998046875 255.000976562 443.998046875 c 1
 274.333984375 456.665039062 295.666992188 466.665039062 319 473.998046875 c 0
 357 487.331054688 397.333007812 493.998046875 440 493.998046875 c 0
 472.666992188 493.998046875 501 489.331054688 525 479.998046875 c 0
 547 470.665039062 564.5 456.33203125 577.5 436.999023438 c 0
 590.5 417.666015625 598 392.333007812 600 361 c 0
259.999023438 94.9970703125 m 0
 272.666015625 88.9970703125 287 85.9970703125 303 85.9970703125 c 2
 305 85.9970703125 l 1
 306 85.9970703125 l 2
 328 85.9970703125 351 93.6640625 375 108.997070312 c 0
 399 124.330078125 419.833007812 143.997070312 437.5 167.997070312 c 0
 455.166992188 191.997070312 466.666992188 215.997070312 472 239.997070312 c 0
 477.92578125 265.181640625 480.888671875 286.6796875 480.888671875 304.490234375 c 0
 480.888671875 326.75390625 476.258789062 343.255859375 466.999023438 353.997070312 c 0
 458.999023438 363.997070312 448.83203125 370.830078125 436.499023438 374.497070312 c 0
 424.166015625 378.1640625 407.666015625 379.997070312 386.999023438 379.997070312 c 0
 354.999023438 379.997070312 323.666015625 372.330078125 292.999023438 356.997070312 c 0
 262.33203125 341.6640625 235.999023438 322.6640625 213.999023438 299.997070312 c 1
 207.999023438 274.6640625 203.666015625 253.6640625 200.999023438 236.997070312 c 0
 199.798828125 228.59765625 199.19921875 220.2578125 199.19921875 211.977539062 c 0
 199.19921875 192.657226562 202.465820312 173.6640625 208.999023438 154.997070312 c 0
 213.666015625 140.997070312 220.166015625 128.997070312 228.499023438 118.997070312 c 0
 236.83203125 108.997070312 247.33203125 100.997070312 259.999023438 94.9970703125 c 0
EndSplineSet
Validated: 1
EndChar

StartChar: seven
Encoding: 55 55 30
Width: 700
GlyphClass: 2
Flags: HMW
HStem: -22.999 21G<86.3335 93.6665> 601 113.002<352.666 408.333 352.666 500>
LayerCount: 2
Fore
SplineSet
326 601 m 0
 264.666992188 599.666992188 224.66796875 596.670898438 206.000976562 592.00390625 c 0
 202.000976562 591.336914062 197.66796875 590.836914062 193.000976562 590.50390625 c 0
 188.333984375 590.170898438 183.666992188 591.00390625 179 593.00390625 c 0
 171.666992188 596.336914062 166.666992188 601.336914062 164 608.00390625 c 0
 160.12109375 616.731445312 158.181640625 626.340820312 158.181640625 636.831054688 c 0
 158.181640625 640.764648438 158.454101562 644.822265625 159 649.00390625 c 1
 157.666992188 642.336914062 157.666992188 642.669921875 159 650.002929688 c 0
 162.333007812 664.002929688 168.666015625 675.669921875 177.999023438 685.002929688 c 0
 187.999023438 694.3359375 202.33203125 700.668945312 220.999023438 704.001953125 c 0
 256.33203125 710.668945312 313.33203125 714.001953125 391.999023438 714.001953125 c 0
 424.666015625 714.001953125 468.666015625 712.668945312 523.999023438 710.001953125 c 0
 576.666015625 708.001953125 603.999023438 707.001953125 605.999023438 707.001953125 c 0
 613.999023438 707.001953125 621.666015625 705.168945312 628.999023438 701.501953125 c 0
 636.33203125 697.834960938 642.33203125 692.001953125 646.999023438 684.001953125 c 0
 650.28125 678.66796875 651.921875 672.325195312 651.921875 664.971679688 c 0
 651.921875 660.375976562 651.28125 655.38671875 649.999023438 650.001953125 c 0
 647.33203125 638.001953125 640.999023438 624.668945312 630.999023438 610.001953125 c 0
 616.999023438 590.001953125 594.166015625 560.501953125 562.499023438 521.501953125 c 0
 530.83203125 482.501953125 497.665039062 442.668945312 462.998046875 402.001953125 c 0
 426.998046875 361.334960938 381.998046875 307.16796875 327.998046875 239.500976562 c 0
 273.998046875 171.833984375 221.665039062 102.666992188 170.998046875 32 c 0
 157.665039062 12.6669921875 142.33203125 -1.666015625 124.999023438 -10.9990234375 c 0
 111.666015625 -18.9990234375 99.3330078125 -22.9990234375 88 -22.9990234375 c 0
 84.6669921875 -22.9990234375 81.333984375 -22.666015625 78.0009765625 -21.9990234375 c 0
 62.0009765625 -17.9990234375 52.333984375 -7.9990234375 49.0009765625 8.0009765625 c 0
 47.66796875 15.333984375 48.0009765625 23.1669921875 50.0009765625 31.5 c 0
 52.0009765625 39.8330078125 56.0009765625 49 62.0009765625 59 c 0
 109.333984375 125.666992188 159.666992188 192 213 258 c 0
 267.666992188 324 312.5 376.5 347.5 415.5 c 0
 382.5 454.5 413.5 490.166992188 440.5 522.5 c 0
 467.5 554.833007812 487.333007812 581 500 601 c 1
 473.666015625 601.666015625 446 602 417 602 c 0
 388 602 357.666015625 601.666015625 326 601 c 0
EndSplineSet
Validated: 1
EndChar

StartChar: eight
Encoding: 56 56 31
Width: 700
GlyphClass: 2
Flags: HMW
HStem: -28.0039 110.002<287.672 288.005> 621.996 96.0029<407.672 457.337 422.006 457.337>
VStem: 476.007 111.998
LayerCount: 2
Fore
SplineSet
593 246 m 0
 592.333007812 234 590.671875 221.329101562 588.004882812 207.99609375 c 0
 583.337890625 185.99609375 575.504882812 164.329101562 564.504882812 142.99609375 c 0
 553.504882812 121.663085938 539.004882812 100.49609375 521.004882812 79.49609375 c 0
 503.004882812 58.49609375 483.004882812 40.3291015625 461.004882812 24.99609375 c 0
 438.337890625 9.6630859375 410.004882812 -3.00390625 376.004882812 -13.00390625 c 0
 342.004882812 -23.00390625 306.504882812 -28.00390625 269.504882812 -28.00390625 c 0
 232.504882812 -28.00390625 200.671875 -23.3369140625 174.004882812 -14.00390625 c 0
 148.004882812 -4.6708984375 128.171875 7.49609375 114.504882812 22.49609375 c 0
 100.837890625 37.49609375 90.6708984375 55.1630859375 84.00390625 75.49609375 c 0
 77.654296875 94.861328125 74.4794921875 114.37890625 74.4794921875 134.047851562 c 0
 74.4794921875 151.06640625 76.50390625 174.37890625 83.001953125 201.997070312 c 0
 88.3349609375 224.6640625 99.66796875 249.1640625 117.000976562 275.497070312 c 0
 134.333984375 301.830078125 156.000976562 326.330078125 182.000976562 348.997070312 c 0
 200.66796875 364.997070312 220.000976562 377.6640625 240.000976562 386.997070312 c 1
 218.66796875 401.6640625 203.000976562 419.997070312 193.000976562 441.997070312 c 0
 184.112304688 460.663085938 179.66796875 479.625976562 179.66796875 498.884765625 c 0
 179.66796875 508.514648438 180.779296875 518.21875 183.001953125 527.997070312 c 0
 185.001953125 536.6640625 187.834960938 545.6640625 191.501953125 554.997070312 c 0
 195.168945312 564.330078125 200.3359375 575.330078125 207.002929688 587.997070312 c 0
 213.669921875 600.6640625 221.336914062 612.831054688 230.00390625 624.498046875 c 0
 238.670898438 636.165039062 249.837890625 647.83203125 263.504882812 659.499023438 c 0
 277.171875 671.166015625 292.004882812 680.999023438 308.004882812 688.999023438 c 0
 325.337890625 697.666015625 345.670898438 704.666015625 369.00390625 709.999023438 c 0
 392.336914062 715.33203125 417.336914062 717.999023438 444.00390625 717.999023438 c 0
 470.670898438 717.999023438 494.670898438 715.33203125 516.00390625 709.999023438 c 0
 537.336914062 704.666015625 554.669921875 697.666015625 568.002929688 688.999023438 c 0
 581.3359375 680.33203125 592.168945312 670.33203125 600.501953125 658.999023438 c 0
 608.834960938 647.666015625 614.66796875 636.166015625 618.000976562 624.499023438 c 0
 621.333984375 612.83203125 623.500976562 600.499023438 624.500976562 587.499023438 c 0
 625.000976562 580.999023438 625.250976562 574.916015625 625.250976562 569.249023438 c 0
 625.250976562 563.58203125 625.000976562 558.33203125 624.500976562 553.499023438 c 0
 623.500976562 543.83203125 621.833984375 534.33203125 619.500976562 524.999023438 c 0
 617.16796875 515.666015625 614.000976562 506.833007812 610.000976562 498.5 c 0
 606.000976562 490.166992188 601.66796875 482.666992188 597.000976562 476 c 0
 592.333984375 469.333007812 586.500976562 462.5 579.500976562 455.5 c 0
 572.500976562 448.5 566.16796875 442.666992188 560.500976562 438 c 0
 554.833984375 433.333007812 547.666992188 428 539 422 c 0
 530.333007812 416 523.333007812 411.666992188 518 409 c 0
 512.666992188 406.333007812 506.333984375 402.333007812 499.000976562 397 c 1
 514.333984375 389 527.333984375 380 538.000976562 370 c 0
 552.66796875 356 564.000976562 342.5 572.000976562 329.5 c 0
 580.000976562 316.5 585.66796875 302.333007812 589.000976562 287 c 0
 591.778320312 274.223632812 593.166992188 262.604492188 593.166992188 252.141601562 c 0
 593.166992188 250.047851562 593.111328125 248.000976562 593 246 c 0
341.005859375 591.99609375 m 0
 315.672851562 571.99609375 300.340820312 549.99609375 295.0078125 525.99609375 c 0
 294.119140625 521.99609375 293.674804688 518.078125 293.674804688 514.243164062 c 0
 293.674804688 500.819335938 299.119140625 488.403320312 310.0078125 476.99609375 c 0
 325.340820312 461.663085938 353.0078125 445.663085938 393.0078125 428.99609375 c 1
 420.340820312 439.663085938 445.673828125 453.663085938 469.006835938 470.99609375 c 0
 492.33984375 488.329101562 505.672851562 503.329101562 509.005859375 515.99609375 c 0
 510.5546875 522.189453125 511.328125 528.408203125 511.328125 534.651367188 c 0
 511.328125 544.537109375 509.387695312 554.485351562 505.505859375 564.49609375 c 0
 499.172851562 580.829101562 488.672851562 594.49609375 474.005859375 605.49609375 c 0
 459.338867188 616.49609375 442.338867188 621.99609375 423.005859375 621.99609375 c 2
 422.005859375 621.99609375 l 2
 393.338867188 621.99609375 366.338867188 611.99609375 341.005859375 591.99609375 c 0
234.006835938 96.99609375 m 0
 253.33984375 86.99609375 275.338867188 81.998046875 300.005859375 81.998046875 c 0
 317.338867188 81.998046875 335.505859375 84.6650390625 354.505859375 89.998046875 c 0
 373.505859375 95.3310546875 391.338867188 102.998046875 408.005859375 112.998046875 c 0
 424.672851562 122.998046875 439.33984375 135.665039062 452.006835938 150.998046875 c 0
 464.006835938 166.331054688 472.006835938 182.998046875 476.006835938 200.998046875 c 0
 478.006835938 210.998046875 479.673828125 220.331054688 481.006835938 228.998046875 c 0
 481.006835938 237.665039062 479.506835938 247.665039062 476.506835938 258.998046875 c 0
 473.506835938 270.331054688 468.173828125 280.998046875 460.506835938 290.998046875 c 0
 452.83984375 300.998046875 441.33984375 311.331054688 426.006835938 321.998046875 c 0
 410.673828125 332.665039062 392.006835938 342.665039062 370.006835938 351.998046875 c 1
 322.673828125 339.331054688 281.673828125 318.6640625 247.006835938 289.997070312 c 0
 213.006835938 261.330078125 192.33984375 230.663085938 185.006835938 197.99609375 c 0
 183.067382812 189.99609375 182.09765625 182.260742188 182.09765625 174.790039062 c 0
 182.09765625 161.715820312 185.067382812 149.451171875 191.006835938 137.99609375 c 0
 201.006835938 119.99609375 215.33984375 106.329101562 234.006835938 96.99609375 c 0
EndSplineSet
Validated: 1
EndChar

StartChar: nine
Encoding: 57 57 32
Width: 700
GlyphClass: 2
Flags: HMW
HStem: -22.9971 78.5 223.001 113.003<269.998 351.994> 630.004 108.995<394.662 475.666 405.995 475.666>
LayerCount: 2
Fore
SplineSet
142 -22 m 0
 138.666992188 -22 135.663085938 -22.330078125 132.99609375 -22.9970703125 c 0
 118.99609375 -22.9970703125 107.663085938 -19.9970703125 98.99609375 -13.9970703125 c 0
 88.056640625 -7.6640625 82.5869140625 1.9013671875 82.5869140625 14.69921875 c 0
 82.5869140625 16.7197265625 82.7236328125 18.8212890625 82.99609375 21.0029296875 c 2
 82.99609375 24.0029296875 l 2
 84.99609375 34.669921875 91.99609375 45.169921875 103.99609375 55.5029296875 c 0
 115.99609375 65.8359375 128.663085938 73.0029296875 141.99609375 77.0029296875 c 0
 149.99609375 79.0029296875 162.829101562 81.669921875 180.49609375 85.0029296875 c 0
 198.163085938 88.3359375 213.830078125 91.6689453125 227.497070312 95.001953125 c 0
 241.1640625 98.3349609375 256.331054688 102.66796875 272.998046875 108.000976562 c 0
 308.998046875 120.000976562 342.331054688 139.000976562 372.998046875 165.000976562 c 0
 392.998046875 183.000976562 412.331054688 203.66796875 430.998046875 227.000976562 c 0
 438.331054688 236.333984375 444.6640625 245.333984375 449.997070312 254.000976562 c 1
 434.6640625 246.000976562 418.331054688 239.66796875 400.998046875 235.000976562 c 0
 368.998046875 227.000976562 330.665039062 223.000976562 285.998046875 223.000976562 c 0
 253.998046875 223.000976562 225.331054688 230.333984375 199.998046875 245.000976562 c 0
 175.998046875 259.000976562 157.665039062 277.500976562 144.998046875 300.500976562 c 0
 132.331054688 323.500976562 123.998046875 350.16796875 119.998046875 380.500976562 c 0
 118.5859375 391.206054688 117.880859375 401.974609375 117.880859375 412.8046875 c 0
 117.880859375 432.66015625 120.252929688 452.725585938 124.998046875 473 c 0
 133.665039062 511 147.83203125 546.5 167.499023438 579.5 c 0
 187.166015625 612.5 210.166015625 640.666992188 236.499023438 664 c 0
 262.83203125 687.333007812 292.999023438 705.666015625 326.999023438 718.999023438 c 0
 361.666015625 732.33203125 396.666015625 738.999023438 431.999023438 738.999023438 c 0
 519.33203125 738.999023438 575.665039062 707.33203125 600.998046875 643.999023438 c 0
 612.185546875 615.231445312 617.778320312 580.717773438 617.778320312 540.45703125 c 0
 617.778320312 496.745117188 611.185546875 446.259765625 597.998046875 388.999023438 c 0
 584.665039062 331.666015625 566.83203125 280.833007812 544.499023438 236.5 c 0
 522.166015625 192.166992188 497.166015625 155 469.499023438 125 c 0
 441.83203125 95 409.999023438 69.3330078125 373.999023438 48 c 0
 337.33203125 26.6669921875 299.83203125 10.5 261.499023438 -0.5 c 0
 223.166015625 -11.5 183.333007812 -18.6669921875 142 -22 c 0
275.99609375 555.002929688 m 0
 258.663085938 532.3359375 247.327148438 509.004882812 241.994140625 485.004882812 c 0
 237.294921875 464.549804688 234.9453125 446.200195312 234.9453125 429.956054688 c 0
 234.9453125 367.850585938 269.294921875 336.532226562 337.994140625 336.00390625 c 0
 365.994140625 336.00390625 394.327148438 342.00390625 422.994140625 354.00390625 c 0
 451.661132812 366.00390625 475.661132812 381.336914062 494.994140625 400.00390625 c 0
 495.661132812 402.670898438 496.328125 405.670898438 496.995117188 409.00390625 c 0
 500.995117188 426.336914062 505.662109375 450.00390625 510.995117188 480.00390625 c 0
 512.1953125 488.403320312 512.794921875 496.743164062 512.794921875 505.0234375 c 0
 512.794921875 524.34375 509.528320312 543.336914062 502.995117188 562.00390625 c 0
 498.328125 576.00390625 491.828125 588.00390625 483.495117188 598.00390625 c 0
 475.162109375 608.00390625 464.495117188 615.836914062 451.495117188 621.50390625 c 0
 438.495117188 627.170898438 423.995117188 630.00390625 407.995117188 630.00390625 c 2
 405.995117188 630.00390625 l 2
 383.328125 630.00390625 360.328125 623.170898438 336.995117188 609.50390625 c 0
 313.662109375 595.836914062 293.329101562 577.669921875 275.99609375 555.002929688 c 0
EndSplineSet
Validated: 1
EndChar

StartChar: colon
Encoding: 58 58 33
Width: 700
GlyphClass: 2
Flags: HMW
HStem: 27 180.001<290.33 343.667> 295 179.001<360.002 401.335 360.002 401.335>
VStem: 241.998 216.002
LayerCount: 2
Fore
SplineSet
455 404 m 0
 450.333007812 384.666992188 443.000976562 364.66796875 433.000976562 344.000976562 c 0
 425.66796875 327.333984375 414.334960938 314.666992188 399.001953125 306 c 0
 385.668945312 298.666992188 373.668945312 295 363.001953125 295 c 2
 360.001953125 295 l 2
 342.001953125 295.666992188 328.001953125 299.666992188 318.001953125 307 c 0
 306.891601562 315.333007812 301.3359375 327.138671875 301.3359375 342.416015625 c 0
 301.3359375 345.471679688 301.55859375 348.666015625 302.002929688 352 c 0
 303.3359375 364 305.502929688 376.166992188 308.502929688 388.5 c 0
 311.502929688 400.833007812 314.502929688 412.333007812 317.502929688 423 c 0
 320.502929688 433.666992188 325.8359375 442.833984375 333.502929688 450.500976562 c 0
 341.169921875 458.16796875 349.502929688 463.66796875 358.502929688 467.000976562 c 0
 367.502929688 470.333984375 375.169921875 472.333984375 381.502929688 473.000976562 c 0
 387.8359375 473.66796875 392.668945312 474.000976562 396.001953125 474.000976562 c 0
 406.668945312 474.000976562 415.168945312 473.333984375 421.501953125 472.000976562 c 0
 427.834960938 470.66796875 434.16796875 468.000976562 440.500976562 464.000976562 c 0
 446.833984375 460.000976562 451.666992188 454.000976562 455 446.000976562 c 0
 458.333007812 438.000976562 459.333007812 428.66796875 458 418.000976562 c 0
 456.666992188 413.333984375 455.666992188 408.666992188 455 404 c 0
393.000976562 125.000976562 m 0
 389.66796875 109.000976562 383.663085938 92.333984375 374.99609375 75.0009765625 c 0
 366.99609375 58.333984375 354.663085938 46.0009765625 337.99609375 38.0009765625 c 0
 323.99609375 31.333984375 310.663085938 27.6669921875 297.99609375 27 c 0
 282.663085938 27 268.830078125 32 256.497070312 42 c 0
 246.356445312 50.2216796875 241.287109375 61.1484375 241.287109375 74.7783203125 c 0
 241.287109375 77.7255859375 241.5234375 80.7998046875 241.998046875 84 c 0
 245.331054688 102.666992188 247.331054688 113.333984375 247.998046875 116.000976562 c 0
 248.665039062 118.66796875 250.33203125 124.66796875 252.999023438 134.000976562 c 0
 255.666015625 143.333984375 257.666015625 150.666992188 258.999023438 156 c 0
 261.666015625 166.666992188 266.833007812 175.833984375 274.5 183.500976562 c 0
 282.166992188 191.16796875 290.666992188 196.66796875 300 200.000976562 c 0
 314 204.66796875 326.666992188 207.000976562 338 207.000976562 c 0
 349.333007812 207.000976562 359 205.500976562 367 202.500976562 c 0
 375 199.500976562 382.333007812 193.66796875 389 185.000976562 c 0
 394.555664062 177.778320312 397.333984375 168.934570312 397.333984375 158.471679688 c 0
 397.333984375 156.379882812 397.22265625 154.22265625 397.000976562 152.000976562 c 0
 396.333984375 143.333984375 395.000976562 134.333984375 393.000976562 125.000976562 c 0
EndSplineSet
Validated: 1
EndChar

StartChar: semicolon
Encoding: 59 59 34
Width: 700
GlyphClass: 2
Flags: HMW
HStem: 253.001 180.001<413.335 457.669>
VStem: 357.002 155.998
LayerCount: 2
Fore
SplineSet
510 363 m 0
 505.333007812 343.666992188 498.000976562 323.334960938 488.000976562 302.001953125 c 0
 480.66796875 285.334960938 469.334960938 272.66796875 454.001953125 264.000976562 c 0
 440.668945312 256.66796875 428.668945312 253.000976562 418.001953125 253.000976562 c 0
 408.668945312 253.000976562 399.168945312 255.000976562 389.501953125 259.000976562 c 0
 379.834960938 263.000976562 372.001953125 269.000976562 366.001953125 277.000976562 c 0
 359.796875 284.8984375 356.694335938 293.989257812 356.694335938 304.274414062 c 0
 356.694335938 306.143554688 356.796875 308.052734375 357.001953125 310.000976562 c 2
 357.001953125 311.000976562 l 2
 358.334960938 323.000976562 360.66796875 335.000976562 364.000976562 347.000976562 c 0
 367.333984375 359.000976562 370.333984375 370.333984375 373.000976562 381.000976562 c 0
 375.66796875 391.66796875 380.834960938 401.000976562 388.501953125 409.000976562 c 0
 396.168945312 417.000976562 404.3359375 422.333984375 413.002929688 425.000976562 c 0
 427.669921875 429.66796875 441.002929688 432.334960938 453.002929688 433.001953125 c 0
 462.3359375 433.001953125 470.168945312 432.168945312 476.501953125 430.501953125 c 0
 482.834960938 428.834960938 489.16796875 426.16796875 495.500976562 422.500976562 c 0
 501.833984375 418.833984375 506.666992188 413.000976562 510 405.000976562 c 0
 513.333007812 396.333984375 514.333007812 386.666992188 513 376 c 0
 511.666992188 372 510.666992188 367.666992188 510 363 c 0
426.000976562 79.0009765625 m 0
 426.000976562 77.0009765625 425.336914062 75 424.00390625 73 c 0
 417.336914062 51 377.00390625 -36.6669921875 303.00390625 -190 c 0
 295.00390625 -206.666992188 284.336914062 -219.333984375 271.00390625 -228.000976562 c 0
 260.00390625 -234.72265625 249.28515625 -238.083007812 238.845703125 -238.083007812 c 0
 237.895507812 -238.083007812 236.94921875 -238.055664062 236.00390625 -238 c 0
 220.00390625 -238 207.00390625 -233 197.00390625 -223 c 0
 190.126953125 -216.123046875 186.688476562 -207.435546875 186.688476562 -196.938476562 c 0
 186.688476562 -193.189453125 187.126953125 -189.209960938 188.00390625 -185 c 0
 190.670898438 -171.666992188 206.00390625 -132 234.00390625 -66 c 0
 262.00390625 0 283.336914062 49.3330078125 298.00390625 82 c 0
 303.336914062 93.3330078125 309.169921875 102.833007812 315.502929688 110.5 c 0
 321.8359375 118.166992188 328.668945312 123.333984375 336.001953125 126.000976562 c 0
 345.334960938 129.333984375 354.001953125 131.333984375 362.001953125 132.000976562 c 0
 364.668945312 132.000976562 367.668945312 131.66796875 371.001953125 131.000976562 c 0
 384.334960938 131.000976562 397.001953125 127.66796875 409.001953125 121.000976562 c 0
 416.334960938 117.000976562 421.66796875 111.000976562 425.000976562 103.000976562 c 0
 427.66796875 95.66796875 428.000976562 87.66796875 426.000976562 79.0009765625 c 0
EndSplineSet
Validated: 1
EndChar

StartChar: less
Encoding: 60 60 35
Width: 700
GlyphClass: 2
Flags: HMW
HStem: -24 21G<407 412 412 421>
LayerCount: 2
Fore
SplineSet
412 -24 m 2
 402 -24 391.333984375 -21.9990234375 380.000976562 -17.9990234375 c 0
 364.66796875 -12.666015625 347.334960938 -0.666015625 328.001953125 18.0009765625 c 0
 308.668945312 36.66796875 288.668945312 58.8349609375 268.001953125 84.501953125 c 0
 247.334960938 110.168945312 227.001953125 135.8359375 207.001953125 161.502929688 c 0
 187.001953125 187.169921875 165.834960938 213.669921875 143.501953125 241.002929688 c 0
 121.168945312 268.3359375 101.668945312 290.002929688 85.001953125 306.002929688 c 0
 77.001953125 314.002929688 73.001953125 325.002929688 73.001953125 339.002929688 c 0
 73.001953125 345.002929688 73.8349609375 351.502929688 75.501953125 358.502929688 c 0
 77.1689453125 365.502929688 79.6689453125 372.669921875 83.001953125 380.002929688 c 0
 89.6689453125 394.002929688 99.001953125 404.002929688 111.001953125 410.002929688 c 0
 152.334960938 438.002929688 201.501953125 473.169921875 258.501953125 515.502929688 c 0
 315.501953125 557.8359375 367.834960938 596.168945312 415.501953125 630.501953125 c 0
 463.168945312 664.834960938 505.001953125 692.001953125 541.001953125 712.001953125 c 0
 555.668945312 720.668945312 569.001953125 725.001953125 581.001953125 725.001953125 c 0
 590.334960938 725.001953125 598.001953125 722.668945312 604.001953125 718.001953125 c 0
 616.001953125 709.334960938 623.334960938 697.66796875 626.001953125 683.000976562 c 0
 627.334960938 676.333984375 627.16796875 669.000976562 625.500976562 661.000976562 c 0
 623.833984375 653.000976562 619.333984375 644.66796875 612.000976562 636.000976562 c 0
 601.333984375 622.66796875 583.000976562 607.66796875 557.000976562 591.000976562 c 0
 516.333984375 565.000976562 457.333984375 524.833984375 380.000976562 470.500976562 c 0
 302.66796875 416.16796875 250.000976562 379.334960938 222.000976562 360.001953125 c 1
 238.66796875 342.001953125 257.834960938 319.668945312 279.501953125 293.001953125 c 0
 301.168945312 266.334960938 320.501953125 241.66796875 337.501953125 219.000976562 c 0
 354.501953125 196.333984375 373.168945312 173.166992188 393.501953125 149.5 c 0
 413.834960938 125.833007812 432.66796875 106.833007812 450.000976562 92.5 c 0
 467.333984375 78.1669921875 478.333984375 65 483.000976562 53 c 0
 486.333984375 45 486.666992188 36.3330078125 484 27 c 0
 482.666992188 20.3330078125 480 14 476 8 c 0
 463.333007812 -10 445 -20.6669921875 421 -24 c 2
 412 -24 l 2
EndSplineSet
Validated: 1
EndChar

StartChar: equal
Encoding: 61 61 36
Width: 700
GlyphClass: 2
Flags: HMW
HStem: 235 107<173.335 206.335> 435 106
LayerCount: 2
Fore
SplineSet
524 541 m 0
 542 541 553.66796875 536.33203125 559.000976562 526.999023438 c 0
 562.555664062 520.77734375 564.333984375 513.518554688 564.333984375 505.22265625 c 0
 564.333984375 501.07421875 563.888671875 496.666015625 563 491.999023438 c 2
 563 490.999023438 l 2
 561.666992188 483.666015625 559.666992188 476.999023438 557 470.999023438 c 0
 554.333007812 464.999023438 550.333007812 458.83203125 545 452.499023438 c 0
 539.666992188 446.166015625 532.666992188 441.333007812 524 438 c 0
 518 436 512 435 506 435 c 2
 498 435 l 2
 476 435.666992188 453 436 429 436 c 2
 326 433 l 2
 282.666992188 431.666992188 250.666992188 431 230 431 c 0
 212 431 198.666992188 436 190 446 c 0
 183.740234375 453.22265625 180.610351562 461.8359375 180.610351562 471.840820312 c 0
 180.610351562 475.688476562 181.073242188 479.741210938 181.999023438 484 c 2
 181.999023438 487 l 2
 185.33203125 501 192.83203125 513.5 204.499023438 524.5 c 0
 216.166015625 535.5 230.666015625 541 247.999023438 541 c 2
 251.999023438 541 l 2
 288.3984375 539.799804688 328.397460938 539.200195312 371.997070312 539.200195312 c 0
 401.064453125 539.200195312 431.732421875 539.466796875 464 540 c 0
 497.333007812 540.666992188 517.333007812 541 524 541 c 0
460.000976562 238.999023438 m 2
 453.001953125 239 l 2
 439.001953125 239.666992188 425.668945312 240 413.001953125 240 c 0
 387.001953125 240 347.001953125 239.166992188 293.001953125 237.5 c 0
 239.001953125 235.833007812 202.334960938 235 183.001953125 235 c 0
 163.668945312 235 150.3359375 240.333007812 143.002929688 251 c 0
 137.9609375 258.333984375 135.440429688 266.770507812 135.440429688 276.309570312 c 0
 135.440429688 280.645507812 135.9609375 285.208984375 137.002929688 290 c 2
 137.002929688 292 l 2
 140.3359375 306 148.168945312 317.833007812 160.501953125 327.5 c 0
 172.834960938 337.166992188 188.001953125 342 206.001953125 342 c 0
 206.668945312 342 212.001953125 341.666992188 222.001953125 341 c 0
 235.119140625 340.77734375 249.682617188 340.666015625 265.69140625 340.666015625 c 0
 297.686523438 340.666015625 335.456054688 341.110351562 379.000976562 341.999023438 c 2
 478.000976562 344.999023438 l 2
 496.000976562 344.999023438 507.833984375 340.33203125 513.500976562 330.999023438 c 0
 517.354492188 324.65234375 519.28125 317.227539062 519.28125 308.72265625 c 0
 519.28125 304.720703125 518.854492188 300.479492188 518.000976562 295.999023438 c 2
 518.000976562 294.999023438 l 2
 516.66796875 287.666015625 514.500976562 281.166015625 511.500976562 275.499023438 c 0
 508.500976562 269.83203125 504.66796875 263.999023438 500.000976562 257.999023438 c 0
 494.66796875 251.33203125 487.66796875 245.999023438 479.000976562 241.999023438 c 0
 473.000976562 239.999023438 466.66796875 238.999023438 460.000976562 238.999023438 c 2
EndSplineSet
Validated: 1
EndChar

StartChar: greater
Encoding: 62 62 37
Width: 700
GlyphClass: 2
Flags: HMW
HStem: -18 21G<113.666 124.334>
LayerCount: 2
Fore
SplineSet
118 -18 m 0
 109.333007812 -18 101.997070312 -15.6689453125 95.9970703125 -11.001953125 c 0
 89.9970703125 -6.3349609375 85.1640625 -1.001953125 81.4970703125 4.998046875 c 0
 77.830078125 10.998046875 75.330078125 17.3310546875 73.9970703125 23.998046875 c 0
 72.6640625 30.6650390625 72.8310546875 37.998046875 74.498046875 45.998046875 c 0
 76.1650390625 53.998046875 80.33203125 62.3310546875 86.9990234375 70.998046875 c 0
 97.666015625 84.3310546875 116.333007812 99.3310546875 143 115.998046875 c 0
 183.666992188 141.998046875 242.666992188 182.165039062 320 236.498046875 c 0
 397.333007812 290.831054688 449.666015625 327.6640625 476.999023438 346.997070312 c 1
 459.666015625 364.997070312 440.499023438 387.330078125 419.499023438 413.997070312 c 0
 398.499023438 440.6640625 379.33203125 465.331054688 361.999023438 487.998046875 c 0
 344.666015625 510.665039062 325.833007812 533.83203125 305.5 557.499023438 c 0
 285.166992188 581.166015625 266.5 600.166015625 249.5 614.499023438 c 0
 232.5 628.83203125 221.666992188 641.999023438 217 653.999023438 c 0
 213.666992188 661.999023438 213.333984375 670.666015625 216.000976562 679.999023438 c 0
 217.333984375 686.666015625 220.000976562 692.999023438 224.000976562 698.999023438 c 0
 236.66796875 716.999023438 255.000976562 727.666015625 279.000976562 730.999023438 c 2
 288.000976562 730.999023438 l 2
 298.000976562 730.999023438 308.66796875 728.999023438 320.000976562 724.999023438 c 0
 335.333984375 719.666015625 352.833984375 707.833007812 372.500976562 689.5 c 0
 392.16796875 671.166992188 412.16796875 649 432.500976562 623 c 0
 452.833984375 597 473.000976562 571.166992188 493.000976562 545.5 c 0
 513.000976562 519.833007812 534.16796875 493.333007812 556.500976562 466 c 0
 578.833984375 438.666992188 598.333984375 417 615.000976562 401 c 0
 623.000976562 393 627.000976562 382 627.000976562 368 c 0
 627.000976562 362 626.16796875 355.5 624.500976562 348.5 c 0
 622.833984375 341.5 620.333984375 334.333007812 617.000976562 327 c 0
 610.333984375 313 601.000976562 303 589.000976562 297 c 0
 547.66796875 269.666992188 498.500976562 234.666992188 441.500976562 192 c 0
 384.500976562 149.333007812 332.16796875 110.833007812 284.500976562 76.5 c 0
 236.833984375 42.1669921875 195.000976562 15 159.000976562 -5 c 0
 144.333984375 -13.6669921875 130.666992188 -18 118 -18 c 0
EndSplineSet
Validated: 1
EndChar

StartChar: question
Encoding: 63 63 38
Width: 700
GlyphClass: 2
Flags: HMW
HStem: -25.999 178.002<186.001 262.333 197.001 262.333> 508.998 21G<200.333 202 202 210> 625.003 108.995<377.667 383.999>
VStem: 216.001 116
LayerCount: 2
Fore
SplineSet
265 201 m 0
 259.666992188 201 254.000976562 201.66796875 248.000976562 203.000976562 c 0
 224.953125 209.810546875 213.4296875 224.028320312 213.4296875 245.655273438 c 0
 213.4296875 251.552734375 214.287109375 258.001953125 216.000976562 265.001953125 c 0
 218.000976562 274.334960938 221.66796875 284.334960938 227.000976562 295.001953125 c 0
 236.333984375 314.334960938 247.166992188 332.334960938 259.5 349.001953125 c 0
 271.833007812 365.668945312 284.5 380.001953125 297.5 392.001953125 c 0
 310.5 404.001953125 323.666992188 415.168945312 337 425.501953125 c 0
 350.333007812 435.834960938 363 445.501953125 375 454.501953125 c 0
 387 463.501953125 397.666992188 472.334960938 407 481.001953125 c 0
 427 499.668945312 439.333007812 519.001953125 444 539.001953125 c 0
 446.688476562 550.24609375 448.033203125 560.280273438 448.033203125 569.104492188 c 0
 448.033203125 584.34765625 444.021484375 595.98046875 435.999023438 604.002929688 c 0
 422.666015625 618.002929688 399.999023438 625.002929688 367.999023438 625.002929688 c 0
 360.666015625 625.002929688 352.833007812 623.169921875 344.5 619.502929688 c 0
 336.166992188 615.8359375 328.5 611.668945312 321.5 607.001953125 c 0
 314.5 602.334960938 306.666992188 595.66796875 298 587.000976562 c 0
 289.333007812 578.333984375 282.333007812 571.166992188 277 565.5 c 0
 271.666992188 559.833007812 265 552.166015625 257 542.499023438 c 0
 249 532.83203125 241.166992188 525.165039062 233.5 519.498046875 c 0
 225.833007812 513.831054688 218 510.331054688 210 508.998046875 c 2
 202 508.998046875 l 2
 198.666992188 508.998046875 195 509.665039062 191 510.998046875 c 0
 187 512.331054688 181.333007812 514.6640625 174 517.997070312 c 0
 162 525.997070312 156 537.330078125 156 551.997070312 c 0
 156 555.330078125 156.333007812 559.330078125 157 563.997070312 c 0
 159.666992188 575.997070312 166 589.330078125 176 603.997070312 c 0
 186.666992188 618.6640625 198.666992188 632.831054688 212 646.498046875 c 0
 225.333007812 660.165039062 241.166015625 673.998046875 259.499023438 687.998046875 c 0
 277.83203125 701.998046875 298.33203125 713.165039062 320.999023438 721.498046875 c 0
 343.666015625 729.831054688 366.333007812 733.998046875 389 733.998046875 c 0
 458.333007812 733.998046875 507.5 716.165039062 536.5 680.498046875 c 0
 555.188476562 657.512695312 564.533203125 627.3984375 564.533203125 590.154296875 c 0
 564.533203125 569.60546875 561.688476562 546.88671875 556 521.998046875 c 0
 551.333007812 502.665039062 544.333007812 484.83203125 535 468.499023438 c 0
 525.666992188 452.166015625 514.833984375 438.333007812 502.500976562 427 c 0
 490.16796875 415.666992188 477.500976562 405.166992188 464.500976562 395.5 c 0
 451.500976562 385.833007812 438.333984375 376.5 425.000976562 367.5 c 0
 411.66796875 358.5 399.16796875 349.166992188 387.500976562 339.5 c 0
 375.833984375 329.833007812 365.000976562 318.333007812 355.000976562 305 c 0
 345.000976562 291.666992188 337.333984375 276.666992188 332.000976562 260 c 0
 324.66796875 240 314.000976562 224.333007812 300.000976562 213 c 0
 289.333984375 205 277.666992188 201 265 201 c 0
197.000976562 -25.9990234375 m 2
 175.000976562 -25.9990234375 158.666992188 -17.9990234375 148 -1.9990234375 c 0
 139.404296875 10.66796875 135.107421875 24.7158203125 135.107421875 40.1455078125 c 0
 135.107421875 47.4541015625 136.071289062 55.0732421875 138 63.001953125 c 0
 144 87.6689453125 158 108.3359375 180 125.002929688 c 0
 203.333007812 143.002929688 227 152.002929688 251 152.002929688 c 0
 273.666992188 152.002929688 291 144.002929688 303 128.002929688 c 0
 311.151367188 116.681640625 315.2265625 103.515625 315.2265625 88.50390625 c 0
 315.2265625 81.4140625 314.317382812 73.9140625 312.5 66.001953125 c 0
 306.833007812 41.3349609375 294.333007812 20.66796875 275 4.0009765625 c 0
 255.666992188 -12.666015625 233.333984375 -22.666015625 208.000976562 -25.9990234375 c 2
 197.000976562 -25.9990234375 l 2
EndSplineSet
Validated: 1
EndChar

StartChar: at
Encoding: 64 64 39
Width: 700
GlyphClass: 2
Flags: HMW
HStem: -141.997 110.002<224.668 281.336 242.002 281.336> 105 105.001<313.006 313.673> 369.5 100.5 601.002 113.999<429.003 470.667>
VStem: 67.501 109.002 534.506 98.4951
LayerCount: 2
Fore
SplineSet
384 148 m 1
 359.333007812 119.333007812 330.33984375 105 297.006835938 105 c 0
 257.006835938 105 228.83984375 118.833007812 212.506835938 146.5 c 0
 203.307617188 162.08203125 198.708984375 181.735351562 198.708984375 205.458984375 c 0
 198.708984375 223.857421875 201.474609375 244.704101562 207.0078125 268 c 0
 213.0078125 294.666992188 221.340820312 319.166992188 232.0078125 341.5 c 0
 242.674804688 363.833007812 254.674804688 383 268.0078125 399 c 0
 281.340820312 415 296.0078125 428.666992188 312.0078125 440 c 0
 340.0078125 460 370.0078125 470 402.0078125 470 c 0
 420.674804688 470 438.341796875 466 455.008789062 458 c 0
 469.67578125 451.333007812 480.67578125 442.333007812 488.008789062 431 c 0
 493.341796875 421.666992188 495.008789062 412.666992188 493.008789062 404 c 0
 492.341796875 399.333007812 490.008789062 394.333007812 486.008789062 389 c 0
 482.008789062 383.666992188 477.341796875 378.666992188 472.008789062 374 c 0
 466.67578125 369.333007812 461.008789062 366 455.008789062 364 c 0
 446.341796875 361.333007812 439.674804688 360 435.0078125 360 c 0
 427.0078125 360 418.340820312 361.333007812 409.0078125 364 c 0
 406.340820312 364.666992188 402.0078125 366 396.0078125 368 c 0
 389.340820312 369.333007812 382.840820312 369.833007812 376.5078125 369.5 c 0
 370.174804688 369.166992188 363.5078125 366.833984375 356.5078125 362.500976562 c 0
 349.5078125 358.16796875 342.674804688 352.66796875 336.0078125 346.000976562 c 0
 329.340820312 339.333984375 323.173828125 330.333984375 317.506835938 319.000976562 c 0
 311.83984375 307.66796875 307.672851562 294.66796875 305.005859375 280.000976562 c 0
 303.005859375 272.000976562 301.505859375 264.333984375 300.505859375 257.000976562 c 0
 299.505859375 249.66796875 299.338867188 242.000976562 300.005859375 234.000976562 c 0
 300.672851562 218.000976562 307.005859375 210.000976562 319.005859375 210.000976562 c 0
 326.338867188 210.000976562 332.338867188 211.333984375 337.005859375 214.000976562 c 0
 343.672851562 216.66796875 349.33984375 221.334960938 354.006835938 228.001953125 c 0
 364.673828125 242.668945312 374.673828125 268.001953125 384.006835938 304.001953125 c 0
 388.006835938 319.334960938 401.33984375 331.66796875 424.006835938 341.000976562 c 0
 436.673828125 345.66796875 448.006835938 348.334960938 458.006835938 349.001953125 c 0
 465.33984375 349.001953125 471.33984375 347.668945312 476.006835938 345.001953125 c 0
 485.180664062 340.684570312 489.767578125 333.52734375 489.767578125 323.53125 c 0
 489.767578125 321.178710938 489.513671875 318.668945312 489.005859375 316.001953125 c 0
 489.005859375 314.668945312 488.338867188 313.3359375 487.005859375 312.002929688 c 0
 479.005859375 288.669921875 473.338867188 269.002929688 470.005859375 253.002929688 c 0
 466.005859375 235.002929688 464.005859375 219.669921875 464.005859375 207.002929688 c 0
 464.005859375 202.3359375 464.672851562 199.002929688 466.005859375 197.002929688 c 0
 467.338867188 193.669921875 469.338867188 192.002929688 472.005859375 192.002929688 c 0
 473.338867188 193.3359375 475.005859375 195.3359375 477.005859375 198.002929688 c 0
 481.672851562 206.002929688 486.672851562 216.3359375 492.005859375 229.002929688 c 0
 500.005859375 253.002929688 506.338867188 275.002929688 511.005859375 295.002929688 c 0
 519.005859375 328.3359375 524.838867188 359.168945312 528.505859375 387.501953125 c 0
 532.172851562 415.834960938 534.172851562 439.834960938 534.505859375 459.501953125 c 0
 534.54296875 461.684570312 534.561523438 463.845703125 534.561523438 465.983398438 c 0
 534.561523438 483.10546875 533.375976562 498.778320312 531.004882812 513.001953125 c 0
 528.337890625 529.001953125 525.170898438 541.668945312 521.50390625 551.001953125 c 0
 517.836914062 560.334960938 512.836914062 568.334960938 506.50390625 575.001953125 c 0
 500.170898438 581.668945312 494.50390625 586.501953125 489.50390625 589.501953125 c 0
 484.50390625 592.501953125 478.50390625 595.001953125 471.50390625 597.001953125 c 0
 464.50390625 599.001953125 459.170898438 600.168945312 455.50390625 600.501953125 c 0
 451.836914062 600.834960938 446.669921875 601.001953125 440.002929688 601.001953125 c 0
 418.002929688 601.001953125 395.169921875 593.334960938 371.502929688 578.001953125 c 0
 347.8359375 562.668945312 325.002929688 540.668945312 303.002929688 512.001953125 c 0
 281.002929688 483.334960938 260.3359375 447.501953125 241.002929688 404.501953125 c 0
 221.669921875 361.501953125 206.336914062 314.668945312 195.00390625 264.001953125 c 0
 184.336914062 219.334960938 178.169921875 179.334960938 176.502929688 144.001953125 c 0
 176.064453125 134.703125 175.844726562 125.888671875 175.844726562 117.559570312 c 0
 175.844726562 94.240234375 177.564453125 74.7216796875 181.002929688 59.0029296875 c 0
 185.669921875 37.669921875 193.002929688 19.8369140625 203.002929688 5.50390625 c 0
 213.002929688 -8.8291015625 223.669921875 -18.662109375 235.002929688 -23.9951171875 c 0
 246.3359375 -29.328125 259.3359375 -31.9951171875 274.002929688 -31.9951171875 c 0
 288.669921875 -31.9951171875 302.502929688 -30.328125 315.502929688 -26.9951171875 c 0
 328.502929688 -23.662109375 339.502929688 -19.9951171875 348.502929688 -15.9951171875 c 0
 357.502929688 -11.9951171875 366.502929688 -6.328125 375.502929688 1.0048828125 c 0
 384.502929688 8.337890625 391.8359375 15.1708984375 397.502929688 21.50390625 c 0
 403.169921875 27.8369140625 410.002929688 35.669921875 418.002929688 45.0029296875 c 0
 422.002929688 50.3359375 425.169921875 54.5029296875 427.502929688 57.5029296875 c 0
 429.8359375 60.5029296875 433.002929688 64.169921875 437.002929688 68.5029296875 c 0
 441.002929688 72.8359375 444.502929688 76.0029296875 447.502929688 78.0029296875 c 0
 450.502929688 80.0029296875 454.002929688 82.0029296875 458.002929688 84.0029296875 c 0
 462.002929688 86.0029296875 466.3359375 87.0029296875 471.002929688 87.0029296875 c 0
 475.669921875 87.0029296875 480.002929688 86.0029296875 484.002929688 84.0029296875 c 0
 490.002929688 81.3359375 494.669921875 78.0029296875 498.002929688 74.0029296875 c 0
 501.3359375 70.0029296875 503.502929688 65.169921875 504.502929688 59.5029296875 c 0
 505.502929688 53.8359375 505.3359375 48.0029296875 504.002929688 42.0029296875 c 0
 501.3359375 30.669921875 495.3359375 17.0029296875 486.002929688 1.0029296875 c 0
 480.002929688 -8.9970703125 474.3359375 -17.6640625 469.002929688 -24.9970703125 c 0
 463.669921875 -32.330078125 456.669921875 -41.330078125 448.002929688 -51.9970703125 c 0
 439.3359375 -62.6640625 430.668945312 -71.9970703125 422.001953125 -79.9970703125 c 0
 413.334960938 -87.9970703125 402.334960938 -96.1640625 389.001953125 -104.497070312 c 0
 375.668945312 -112.830078125 362.001953125 -119.497070312 348.001953125 -124.497070312 c 0
 334.001953125 -129.497070312 318.334960938 -133.6640625 301.001953125 -136.997070312 c 0
 283.668945312 -140.330078125 266.001953125 -141.997070312 248.001953125 -141.997070312 c 2
 242.001953125 -141.997070312 l 2
 207.334960938 -141.997070312 177.16796875 -132.6640625 151.500976562 -113.997070312 c 0
 125.833984375 -95.330078125 105.833984375 -69.9970703125 91.5009765625 -37.9970703125 c 0
 77.16796875 -5.9970703125 69.16796875 32.8359375 67.5009765625 78.5029296875 c 0
 67.2978515625 84.072265625 67.1962890625 89.7041015625 67.1962890625 95.3984375 c 0
 67.1962890625 136.387695312 72.46484375 180.588867188 83.0009765625 228.002929688 c 0
 97.0009765625 287.3359375 114.16796875 342.8359375 134.500976562 394.502929688 c 0
 154.833984375 446.169921875 177.500976562 491.169921875 202.500976562 529.502929688 c 0
 227.500976562 567.8359375 254.16796875 601.168945312 282.500976562 629.501953125 c 0
 310.833984375 657.834960938 340.000976562 679.16796875 370.000976562 693.500976562 c 0
 400.000976562 707.833984375 430.000976562 715.000976562 460.000976562 715.000976562 c 0
 481.333984375 715.000976562 500.500976562 713.16796875 517.500976562 709.500976562 c 0
 534.500976562 705.833984375 550.500976562 699.500976562 565.500976562 690.500976562 c 0
 580.500976562 681.500976562 592.66796875 669.66796875 602.000976562 655.000976562 c 0
 611.333984375 640.333984375 618.833984375 622.000976562 624.500976562 600.000976562 c 0
 630.16796875 578.000976562 633.000976562 552.333984375 633.000976562 523.000976562 c 0
 633.000976562 461.66796875 622.000976562 385.000976562 600.000976562 293.000976562 c 0
 588.000976562 242.333984375 571.000976562 198.000976562 549.000976562 160.000976562 c 0
 536.333984375 138.66796875 521.500976562 121.500976562 504.500976562 108.500976562 c 0
 487.500976562 95.5009765625 469.333984375 89.0009765625 450.000976562 89.0009765625 c 0
 421.333984375 89.0009765625 401.666992188 99.333984375 391 120.000976562 c 0
 387 127.333984375 384.666992188 136.666992188 384 148 c 1
EndSplineSet
Validated: 1
EndChar

StartChar: A
Encoding: 65 65 40
Width: 700
GlyphClass: 2
Flags: HMW
HStem: -6.00195 21G<112.671 120.338> 251 91.998<503 503>
VStem: 503.001 109.502 508.006 115.998
LayerCount: 2
Fore
SplineSet
183 49 m 0xe0
 170.333007812 25 156.338867188 8.998046875 141.005859375 0.998046875 c 0
 132.338867188 -3.6689453125 124.171875 -6.001953125 116.504882812 -6.001953125 c 0
 108.837890625 -6.001953125 102.004882812 -4.3349609375 96.0048828125 -1.001953125 c 0
 86.0048828125 4.3310546875 79.671875 12.6640625 77.0048828125 23.9970703125 c 0
 75.0048828125 32.6640625 75.171875 42.1640625 77.5048828125 52.4970703125 c 0
 79.837890625 62.830078125 83.6708984375 73.6630859375 89.00390625 84.99609375 c 0
 97.6708984375 105.663085938 126.00390625 153.99609375 174.00390625 229.99609375 c 1
 168.448242188 237.21875 165.669921875 245.831054688 165.669921875 255.83203125 c 0
 165.669921875 257.831054688 165.78125 259.88671875 166.002929688 261.997070312 c 0
 166.002929688 262.6640625 166.3359375 263.331054688 167.002929688 263.998046875 c 0
 169.669921875 275.998046875 177.336914062 286.665039062 190.00390625 295.998046875 c 0
 200.670898438 304.665039062 213.00390625 311.33203125 227.00390625 315.999023438 c 1
 349.00390625 497.999023438 439.336914062 620.33203125 498.00390625 682.999023438 c 0
 512.00390625 696.999023438 524.336914062 707.33203125 535.00390625 713.999023438 c 0
 545.670898438 721.33203125 557.00390625 724.999023438 569.00390625 724.999023438 c 0
 572.336914062 724.999023438 575.00390625 725.33203125 577.00390625 725.999023438 c 0
 589.670898438 725.999023438 600.00390625 722.666015625 608.00390625 715.999023438 c 0
 618.803710938 708.798828125 624.204101562 697.818359375 624.204101562 683.05859375 c 0
 624.204101562 681.41796875 624.13671875 679.732421875 624.00390625 677.999023438 c 0xd0
 619.336914062 597.999023438 615.669921875 484.999023438 613.002929688 338.999023438 c 0
 612.241210938 292.51953125 611.860351562 253.061523438 611.860351562 220.625 c 0
 611.860351562 196.301757812 612.07421875 175.926757812 612.502929688 159.5 c 0
 613.502929688 121.166992188 615.3359375 97.6669921875 618.002929688 89 c 0
 620.0859375 81.5 621.127929688 74.259765625 621.127929688 67.2802734375 c 0
 621.127929688 63.09375 620.752929688 59 620.002929688 55 c 0
 619.3359375 53 618.668945312 50.6669921875 618.001953125 48 c 0
 614.001953125 36 607.834960938 25.8330078125 599.501953125 17.5 c 0
 591.168945312 9.1669921875 582.001953125 3 572.001953125 -1 c 0
 560.668945312 -4.3330078125 553.668945312 -6 551.001953125 -6 c 0
 543.001953125 -6 535.334960938 -3.6669921875 528.001953125 1 c 0
 515.334960938 9 507.66796875 24.6669921875 505.000976562 48 c 0
 502.91796875 61.333984375 501.875976562 92.767578125 501.875976562 142.301757812 c 0
 501.875976562 172.01953125 502.250976562 208.251953125 503.000976562 251 c 1
 424.333984375 247.666992188 352.666992188 241 288 231 c 1
 254.666992188 179 219.666992188 118.333007812 183 49 c 0xe0
352.005859375 331.998046875 m 1
 407.338867188 337.998046875 457.672851562 341.665039062 503.005859375 342.998046875 c 1
 508.005859375 567.998046875 l 1
 470.672851562 519.998046875 418.672851562 441.331054688 352.005859375 331.998046875 c 1
EndSplineSet
Validated: 1
EndChar

StartChar: B
Encoding: 66 66 41
Width: 700
GlyphClass: 2
Flags: HMW
HStem: -23 21G<124.334 131.666> 285.002 97.998 605.004 103.999<402.002 407.001>
LayerCount: 2
Fore
SplineSet
68 42 m 0
 74 61.3330078125 82.333984375 94.00390625 93.0009765625 140.00390625 c 0
 113.000976562 227.336914062 133.66796875 324.00390625 155.000976562 430.00390625 c 0
 163.66796875 473.336914062 169.66796875 502.50390625 173.000976562 517.50390625 c 0
 176.333984375 532.50390625 181.333984375 552.50390625 188.000976562 577.50390625 c 0
 194.66796875 602.50390625 199.334960938 619.670898438 202.001953125 629.00390625 c 0
 207.334960938 649.670898438 216.834960938 665.670898438 230.501953125 677.00390625 c 0
 244.168945312 688.336914062 258.668945312 694.00390625 274.001953125 694.00390625 c 2
 277.001953125 694.00390625 l 1
 295.001953125 699.336914062 316.668945312 703.336914062 342.001953125 706.00390625 c 0
 352.668945312 707.336914062 363.668945312 708.169921875 375.001953125 708.502929688 c 0
 386.334960938 708.8359375 395.334960938 709.002929688 402.001953125 709.002929688 c 2
 422.001953125 709.002929688 l 1
 434.001953125 709.002929688 l 2
 481.334960938 709.002929688 522.001953125 700.669921875 556.001953125 684.002929688 c 0
 589.334960938 667.3359375 612.001953125 642.3359375 624.001953125 609.002929688 c 0
 631.62109375 589.955078125 635.430664062 569.166015625 635.430664062 546.634765625 c 0
 635.430664062 529.737304688 633.288085938 511.860351562 629.001953125 493.002929688 c 0
 620.334960938 455.002929688 603.66796875 422.002929688 579.000976562 394.002929688 c 0
 561.000976562 372.669921875 540.333984375 355.669921875 517.000976562 343.002929688 c 1
 529.66796875 336.3359375 541.334960938 328.668945312 552.001953125 320.001953125 c 0
 569.334960938 305.334960938 583.334960938 288.66796875 594.001953125 270.000976562 c 0
 601.759765625 256.424804688 605.638671875 243.026367188 605.638671875 229.802734375 c 0
 605.638671875 224.84375 605.092773438 219.91015625 604.001953125 215.000976562 c 0
 604.001953125 214.333984375 603.668945312 214.000976562 603.001953125 214.000976562 c 0
 597.001953125 188.000976562 584.668945312 162.333984375 566.001953125 137.000976562 c 0
 547.334960938 111.66796875 523.66796875 88.5009765625 495.000976562 67.5009765625 c 0
 466.333984375 46.5009765625 430.666992188 28.66796875 388 14.0009765625 c 0
 344.666992188 -0.666015625 299 -9.9990234375 251 -13.9990234375 c 1
 246.013671875 -10.7724609375 240.704101562 -9.1591796875 235.072265625 -9.1591796875 c 0
 227.904296875 -9.1591796875 220.213867188 -11.7724609375 212 -16.9990234375 c 1
 179.333007812 -19.666015625 159 -21.3330078125 151 -22 c 0
 143 -22.6669921875 135.333007812 -23 128 -23 c 0
 120.666992188 -23 114 -22.3330078125 108 -21 c 2
 106 -21 l 2
 90.6669921875 -21 79 -15.3330078125 71 -4 c 0
 66.8330078125 2.25 64.75 9.671875 64.75 18.265625 c 0
 64.75 23.421875 65.5 29 67 35 c 0
 67 37.6669921875 67.3330078125 40 68 42 c 0
261.000976562 402.00390625 m 0
 259.66796875 395.336914062 258.33203125 389 256.999023438 383 c 1
 284.33203125 382.333007812 308.999023438 381.833007812 330.999023438 381.5 c 0
 333.197265625 381.466796875 335.368164062 381.450195312 337.509765625 381.450195312 c 0
 356.801757812 381.450195312 373.797851562 382.799804688 388.499023438 385.5 c 0
 404.83203125 388.5 418.83203125 392.333007812 430.499023438 397 c 0
 442.166015625 401.666992188 452.833007812 407.333984375 462.5 414.000976562 c 0
 472.166992188 420.66796875 479.833984375 427.334960938 485.500976562 434.001953125 c 0
 491.16796875 440.668945312 496.500976562 448.168945312 501.500976562 456.501953125 c 0
 506.500976562 464.834960938 510.333984375 472.334960938 513.000976562 479.001953125 c 0
 515.66796875 485.668945312 517.66796875 492.668945312 519.000976562 500.001953125 c 0
 520.754882812 507.721679688 521.6328125 515.1640625 521.6328125 522.330078125 c 0
 521.6328125 528.778320312 520.921875 535.002929688 519.500976562 541.002929688 c 0
 516.500976562 553.669921875 511.000976562 563.836914062 503.000976562 571.50390625 c 0
 495.000976562 579.170898438 485.66796875 585.670898438 475.000976562 591.00390625 c 0
 456.250976562 600.37890625 435.158203125 605.06640625 411.721679688 605.06640625 c 0
 410.158203125 605.06640625 408.584960938 605.045898438 407.000976562 605.00390625 c 0
 375.000976562 605.00390625 343.000976562 602.00390625 311.000976562 596.00390625 c 1
 307.66796875 584.00390625 303.000976562 566.00390625 297.000976562 542.00390625 c 0
 283.000976562 492.670898438 271.000976562 446.00390625 261.000976562 402.00390625 c 0
463.498046875 165.5 m 0
 475.165039062 178.5 482 189.670898438 484 199.00390625 c 0
 485.333007812 204.336914062 483.833007812 210.669921875 479.5 218.002929688 c 0
 475.166992188 225.3359375 467.166992188 233.168945312 455.5 241.501953125 c 0
 443.833007812 249.834960938 426.166015625 258.001953125 402.499023438 266.001953125 c 0
 378.83203125 274.001953125 351.33203125 280.334960938 319.999023438 285.001953125 c 1
 236.999023438 285.001953125 l 1
 218.33203125 193.001953125 204.665039062 124.668945312 195.998046875 80.001953125 c 1
 202.665039062 80.001953125 212.665039062 80.1689453125 225.998046875 80.501953125 c 0
 239.331054688 80.8349609375 250.331054688 81.3349609375 258.998046875 82.001953125 c 0
 288.998046875 83.3349609375 317.998046875 88.16796875 345.998046875 96.5009765625 c 0
 373.998046875 104.833984375 397.665039062 115.166992188 416.998046875 127.5 c 0
 436.331054688 139.833007812 451.831054688 152.5 463.498046875 165.5 c 0
EndSplineSet
Validated: 1
EndChar

StartChar: C
Encoding: 67 67 42
Width: 700
GlyphClass: 2
Flags: HMW
HStem: -30.9971 114.001<197.667 259.667 212 259.667> 608.005 104.996<490.667 491.667>
LayerCount: 2
Fore
SplineSet
667 692 m 0
 667 666 663.333984375 638.336914062 656.000976562 609.00390625 c 0
 651.333984375 589.00390625 648.333984375 577.00390625 647.000976562 573.00390625 c 0
 643.000976562 556.336914062 633.500976562 539.50390625 618.500976562 522.50390625 c 0
 603.500976562 505.50390625 589.333984375 496.336914062 576.000976562 495.00390625 c 0
 573.333984375 495.00390625 570.333984375 494.670898438 567.000976562 494.00390625 c 0
 555.66796875 494.00390625 545.66796875 498.00390625 537.000976562 506.00390625 c 0
 526.745117188 514.208984375 521.616210938 524.583984375 521.616210938 537.12890625 c 0
 521.616210938 540.891601562 522.078125 544.850585938 523.000976562 549.00390625 c 0
 524.333984375 553.670898438 527.666992188 565.670898438 533 585.00390625 c 1
 525.666992188 590.336914062 521 593.836914062 519 595.50390625 c 0
 517 597.170898438 514 599.337890625 510 602.004882812 c 0
 502.666992188 606.004882812 495.333984375 608.004882812 488.000976562 608.004882812 c 0
 469.333984375 608.004882812 447.333984375 602.004882812 422.000976562 590.004882812 c 0
 396.66796875 578.004882812 371.000976562 560.504882812 345.000976562 537.504882812 c 0
 319.000976562 514.504882812 293.833984375 488.171875 269.500976562 458.504882812 c 0
 245.16796875 428.837890625 223.500976562 395.170898438 204.500976562 357.50390625 c 0
 185.500976562 319.836914062 171.66796875 282.336914062 163.000976562 245.00390625 c 0
 159.82421875 230.88671875 158.236328125 217.001953125 158.236328125 203.3515625 c 0
 158.236328125 191.217773438 159.491210938 179.268554688 162.000976562 167.50390625 c 0
 167.333984375 142.50390625 177.833984375 122.170898438 193.500976562 106.50390625 c 0
 209.16796875 90.8369140625 227.66796875 83.00390625 249.000976562 83.00390625 c 0
 270.333984375 83.00390625 291.333984375 85.1708984375 312.000976562 89.50390625 c 0
 332.66796875 93.8369140625 351.66796875 99.3369140625 369.000976562 106.00390625 c 0
 386.333984375 112.670898438 401.500976562 119.50390625 414.500976562 126.50390625 c 0
 427.500976562 133.50390625 439.66796875 140.670898438 451.000976562 148.00390625 c 0
 461.000976562 154.670898438 470.000976562 160.00390625 478.000976562 164.00390625 c 0
 486.000976562 168.00390625 494.500976562 169.836914062 503.500976562 169.50390625 c 0
 512.500976562 169.170898438 520.000976562 166.00390625 526.000976562 160.00390625 c 0
 534.563476562 151.44140625 538.844726562 141.641601562 538.844726562 130.60546875 c 0
 538.844726562 127.034179688 538.396484375 123.333984375 537.5 119.50390625 c 0
 533.833007812 103.836914062 522.333007812 86.669921875 503 68.0029296875 c 0
 434.353515625 1.99609375 341.526367188 -31.0068359375 224.51953125 -31.0068359375 c 0
 223.348632812 -31.0068359375 222.17578125 -31.00390625 221 -30.9970703125 c 2
 212 -30.9970703125 l 2
 183.333007812 -30.9970703125 157 -26.330078125 133 -16.9970703125 c 0
 109.666992188 -7.6640625 91.333984375 5.0029296875 78.0009765625 21.0029296875 c 0
 64.66796875 37.0029296875 54.0009765625 55.3359375 46.0009765625 76.0029296875 c 0
 38.0009765625 96.669921875 33.66796875 118.669921875 33.0009765625 142.002929688 c 0
 32.9267578125 144.596679688 32.8896484375 147.190429688 32.8896484375 149.784179688 c 0
 32.8896484375 170.5234375 35.259765625 191.262695312 40 212.001953125 c 0
 51.3330078125 260.001953125 66.8330078125 306.501953125 86.5 351.501953125 c 0
 106.166992188 396.501953125 128.166992188 437.001953125 152.5 473.001953125 c 0
 176.833007812 509.001953125 203.666015625 542.334960938 232.999023438 573.001953125 c 0
 262.999023438 603.001953125 293.666015625 628.168945312 324.999023438 648.501953125 c 0
 356.33203125 668.834960938 387.33203125 684.66796875 417.999023438 696.000976562 c 0
 448.666015625 707.333984375 477.333007812 713.000976562 504 713.000976562 c 0
 525.333007812 713.000976562 545 711.333984375 563 708.000976562 c 1
 568.333007812 715.333984375 574.666015625 721.666992188 581.999023438 727 c 0
 592.666015625 735 603.333007812 739.333007812 614 740 c 0
 618 740.666992188 620.5 741 621.5 741 c 2
 623 741 l 2
 633 741 642 737.666992188 650 731 c 0
 661.333007812 721.666992188 667 708.666992188 667 692 c 0
EndSplineSet
Validated: 1
EndChar

StartChar: D
Encoding: 68 68 43
Width: 700
GlyphClass: 2
Flags: HMW
HStem: -31 110.001<310.666 368.001 325.999 368.001> 694 20G<259.002 277.668>
LayerCount: 2
Fore
SplineSet
263.500976562 86 m 0
 290.500976562 81.3330078125 322.66796875 79.0009765625 360.000976562 79.0009765625 c 0
 376.000976562 79.0009765625 392.66796875 84.66796875 410.000976562 96.0009765625 c 0
 427.333984375 107.333984375 443.166992188 122.166992188 457.5 140.5 c 0
 471.833007812 158.833007812 484.833007812 179.333007812 496.5 202 c 0
 508.166992188 224.666992188 516.333984375 246.666992188 521.000976562 268 c 0
 527.959960938 297.98828125 531.438476562 326.2265625 531.438476562 352.71484375 c 0
 531.438476562 432.810546875 499.625976562 496.905273438 436.000976562 545 c 0
 406.000976562 567.666992188 360.000976562 591 298.000976562 615 c 1
 277.333984375 533.666992188 258.333984375 448.666992188 241.000976562 360 c 0
 235.000976562 331.333007812 226.500976562 289.5 215.500976562 234.5 c 0
 204.500976562 179.5 196.000976562 137.333007812 190.000976562 108 c 1
 212.000976562 98 236.500976562 90.6669921875 263.500976562 86 c 0
61 62 m 0
 67.6669921875 84.6669921875 76.66796875 120 88.0009765625 168 c 0
 108.000976562 256 130.333984375 360.666992188 155.000976562 482 c 0
 162.333984375 518 167.333984375 541.833007812 170.000976562 553.5 c 0
 172.66796875 565.166992188 177.334960938 583 184.001953125 607 c 0
 189.108398438 625.380859375 192.454101562 637.896484375 194.041015625 644.545898438 c 0
 194.145507812 645.229492188 194.465820312 647.046875 195.002929688 649.999023438 c 0
 200.3359375 670.666015625 209.668945312 686.333007812 223.001953125 697 c 0
 236.334960938 708.333007812 251.001953125 714 267.001953125 714 c 0
 288.334960938 714 315.334960938 710.666992188 348.001953125 704 c 0
 368.668945312 700 389.668945312 694.5 411.001953125 687.5 c 0
 432.334960938 680.5 454.66796875 670.666992188 478.000976562 658 c 0
 501.333984375 645.333007812 523.000976562 630.833007812 543.000976562 614.5 c 0
 563.000976562 598.166992188 581.000976562 577.333984375 597.000976562 552.000976562 c 0
 611.66796875 527.333984375 623.000976562 500.166992188 631.000976562 470.5 c 0
 638.385742188 443.116210938 642.078125 411.1875 642.078125 374.715820312 c 0
 642.078125 371.67578125 642.052734375 368.603515625 642.000976562 365.5 c 0
 641.333984375 325.166992188 635.666992188 281.666992188 625 235 c 0
 619.666992188 211.666992188 611.166992188 187.666992188 599.5 163 c 0
 587.833007812 138.333007812 573.166015625 114.666015625 555.499023438 91.9990234375 c 0
 537.83203125 69.33203125 518.33203125 48.83203125 496.999023438 30.4990234375 c 0
 475.666015625 12.166015625 450.999023438 -2.6669921875 422.999023438 -14 c 0
 395.841796875 -25.3681640625 368.384765625 -31.052734375 340.629882812 -31.052734375 c 0
 339.086914062 -31.052734375 337.543945312 -31.03515625 335.999023438 -31 c 2
 325.999023438 -31 l 2
 295.33203125 -31 264.999023438 -29.5 234.999023438 -26.5 c 0
 204.999023438 -23.5 180.999023438 -20 162.999023438 -16 c 0
 145.666015625 -12 131.333007812 -8.3330078125 120 -5 c 0
 108.666992188 -1.6669921875 101.666992188 0 99 0 c 0
 83.6669921875 0 72 5.6669921875 64 17 c 0
 59.5546875 23.6669921875 57.3330078125 31.51953125 57.3330078125 40.556640625 c 0
 57.3330078125 45.0751953125 57.8876953125 49.8896484375 58.9990234375 55 c 0
 59.666015625 57.6669921875 60.3330078125 60 61 62 c 0
194.541992188 646.7109375 m 1
 194.754882812 647.672851562 194.909179688 648.435546875 195.002929688 649 c 1
 194.825195312 648.11328125 194.671875 647.349609375 194.541992188 646.7109375 c 1
EndSplineSet
Validated: 1
EndChar

StartChar: E
Encoding: 69 69 44
Width: 700
GlyphClass: 2
Flags: HMW
HStem: -20 115 -6 115<440.003 499.668 447.003 499.668> 301 108.999 319 106<522.336 561.001> 589.998 107.998<438.333 469.001 419.001 490.667>
VStem: 161.002 1<640 640>
LayerCount: 2
Fore
SplineSet
237 704 m 2x8c
 252.333007812 704 264.000976562 698.663085938 272.000976562 687.99609375 c 1
 327.333984375 694.663085938 396.666992188 697.99609375 480 697.99609375 c 0
 501.333007812 697.99609375 521.666015625 697.663085938 540.999023438 696.99609375 c 0
 579.666015625 695.663085938 609.333007812 693.663085938 630 690.99609375 c 0
 646.666992188 688.99609375 657.833984375 683.829101562 663.500976562 675.49609375 c 0
 667.354492188 669.830078125 669.28125 662.853515625 669.28125 654.56640625 c 0
 669.28125 650.666015625 668.854492188 646.4765625 668.000976562 641.99609375 c 0
 666.66796875 634.663085938 664.500976562 627.830078125 661.500976562 621.497070312 c 0
 658.500976562 615.1640625 654.66796875 609.331054688 650.000976562 603.998046875 c 0
 644.66796875 597.331054688 637.66796875 591.998046875 629.000976562 587.998046875 c 0
 623.000976562 585.998046875 616.66796875 584.998046875 610.000976562 584.998046875 c 2
 603.000976562 584.998046875 l 2
 561.000976562 588.331054688 516.333984375 589.998046875 469.000976562 589.998046875 c 2
 419.000976562 589.998046875 l 2
 359.66796875 588.665039062 307.66796875 585.33203125 263.000976562 579.999023438 c 1
 247.000976562 522.666015625 232.66796875 465.999023438 220.000976562 409.999023438 c 1
 268.000976562 410.666015625 333.333984375 413.333007812 416.000976562 418 c 0
 496.66796875 422.666992188 542.000976562 425 552.000976562 425 c 0
 570.000976562 425 581.833984375 420.333007812 587.500976562 411 c 0
 591.069335938 405.123046875 592.853515625 398.321289062 592.853515625 390.59375 c 0
 592.853515625 386.049804688 592.236328125 381.184570312 591.001953125 376 c 2
 591.001953125 375 l 2
 587.668945312 359 581.3359375 346.666992188 572.002929688 338 c 0
 560.002929688 325.333007812 545.3359375 319 528.002929688 319 c 0x9c
 516.669921875 319 468.002929688 316.333007812 382.002929688 311 c 0
 294.002929688 305 232.002929688 301.666992188 196.002929688 301 c 1
 192.669921875 285 189.169921875 269 185.502929688 253 c 0
 181.8359375 237 178.3359375 220.333007812 175.002929688 203 c 0
 165.002929688 158.333007812 159.002929688 127.333007812 157.002929688 110 c 0
 156.3359375 104 155.668945312 99 155.001953125 95 c 1xac
 167.001953125 93.6669921875 185.334960938 92.833984375 210.001953125 92.5009765625 c 0
 214.932617188 92.4345703125 220.116210938 92.4013671875 225.552734375 92.4013671875 c 0
 247.314453125 92.4013671875 273.130859375 92.9345703125 303.001953125 94.0009765625 c 0
 390.334960938 97.333984375 446.001953125 101.666992188 470.001953125 107 c 0
 480.001953125 108.333007812 488.668945312 109 496.001953125 109 c 0
 503.334960938 109 509.501953125 107.333007812 514.501953125 104 c 0
 519.501953125 100.666992188 523.501953125 97.1669921875 526.501953125 93.5 c 0
 529.501953125 89.8330078125 531.334960938 85.3330078125 532.001953125 80 c 0
 532.668945312 74.6669921875 533.001953125 70 533.001953125 66 c 0
 533.001953125 62 532.668945312 57.6669921875 532.001953125 53 c 0
 528.668945312 37.6669921875 520.3359375 23.6669921875 507.002929688 11 c 0
 495.002929688 -0.3330078125 481.002929688 -6.3330078125 465.002929688 -7 c 1
 462.3359375 1.6669921875 457.3359375 2 450.002929688 -6 c 1
 447.002929688 -6 l 2x4c
 433.002929688 -6 406.002929688 -7.3330078125 366.002929688 -10 c 0
 324.669921875 -12.6669921875 282.336914062 -15 239.00390625 -17 c 0
 195.670898438 -19 163.00390625 -20 141.00390625 -20 c 0
 119.670898438 -20 102.670898438 -19.3330078125 90.00390625 -18 c 0
 73.3369140625 -16.6669921875 58.669921875 -8 46.0029296875 8 c 0
 35.5390625 20.666015625 30.3076171875 35.8349609375 30.3076171875 53.505859375 c 0
 30.3076171875 57.2265625 30.5390625 61.0576171875 31.0029296875 65 c 0
 32.3359375 81 37.6689453125 109 47.001953125 149 c 0
 55.6689453125 185.666992188 64.501953125 222.5 73.501953125 259.5 c 0
 82.501953125 296.5 90.001953125 328 96.001953125 354 c 0
 102.001953125 380 109.334960938 415.666992188 118.001953125 461 c 0
 126.001953125 499.666992188 131.501953125 525.5 134.501953125 538.5 c 0
 137.501953125 551.5 142.334960938 570 149.001953125 594 c 0
 154.99609375 615.578125 158.833984375 630.150390625 160.516601562 637.716796875 c 1
 159.805664062 634.133789062 160.299804688 634.89453125 162.001953125 640 c 0
 167.334960938 660.666992188 176.66796875 676.5 190.000976562 687.5 c 0
 203.333984375 698.5 217.666992188 704 233 704 c 2
 237 704 l 2x8c
160.516601562 637.716796875 m 1
 160.641601562 638.344726562 160.803710938 639.10546875 161.001953125 640 c 1
 160.8671875 639.327148438 160.706054688 638.56640625 160.516601562 637.716796875 c 1
EndSplineSet
Validated: 1
EndChar

StartChar: F
Encoding: 70 70 45
Width: 700
GlyphClass: 2
Flags: HMW
HStem: -21.002 21G<58.3345 66.001 66.001 69.001> 313.498 106.502 597 110<476.333 516.333> 694 20G<239 244 244 252>
LayerCount: 2
Fore
SplineSet
244 714 m 2xd0
 260 714 271.666992188 708.666992188 279 698 c 1
 360.333007812 704 438.666015625 707 513.999023438 707 c 0
 563.33203125 707 603.665039062 705.333007812 634.998046875 702 c 0
 651.665039062 700.666992188 662.83203125 695.666992188 668.499023438 687 c 0
 672.6875 680.59375 674.78125 672.548828125 674.78125 662.865234375 c 0
 674.78125 659.447265625 674.520507812 655.825195312 673.999023438 651.999023438 c 0
 671.999023438 643.33203125 671.666015625 643.33203125 672.999023438 651.999023438 c 1
 669.666015625 636.666015625 662.333007812 623.333007812 651 612 c 0
 639.666992188 600.666992188 625 595 607 595 c 2
 605 595 l 2
 571.666992188 596.333007812 535.666992188 597 497 597 c 0xe0
 425 597 349 594.333007812 269 589 c 1
 266.333007812 579 262 563.666992188 256 543 c 0
 245.333007812 503.666992188 236.333007812 467 229 433 c 0
 227.666992188 427 226.333984375 421.333007812 225.000976562 416 c 1
 251.000976562 418.666992188 279.000976562 420 309.000976562 420 c 0
 317.000976562 420 325.000976562 419.666992188 333.000976562 419 c 0
 377.000976562 418.333007812 416.66796875 416.666015625 452.000976562 413.999023438 c 0
 488.000976562 411.33203125 514.833984375 408.165039062 532.500976562 404.498046875 c 0
 550.16796875 400.831054688 561.66796875 395.1640625 567.000976562 387.497070312 c 0
 570.879882812 381.920898438 572.819335938 374.846679688 572.819335938 366.2734375 c 0
 572.819335938 363.05859375 572.546875 359.6328125 572.000976562 355.997070312 c 1
 572.000976562 356.6640625 571.66796875 356.6640625 571.000976562 355.997070312 c 0
 567.66796875 341.997070312 562.000976562 329.6640625 554.000976562 318.997070312 c 0
 548.66796875 312.330078125 541.334960938 307.330078125 532.001953125 303.997070312 c 0
 526.001953125 301.997070312 519.668945312 300.997070312 513.001953125 300.997070312 c 2
 506.001953125 300.997070312 l 2
 488.001953125 304.330078125 461.001953125 307.330078125 425.001953125 309.997070312 c 0
 390.626953125 312.368164062 355.06640625 313.553710938 318.321289062 313.553710938 c 0
 313.732421875 313.553710938 309.125976562 313.53515625 304.500976562 313.498046875 c 0
 262.833984375 313.165039062 228.333984375 311.665039062 201.000976562 308.998046875 c 1
 183.66796875 222.331054688 165.66796875 130.998046875 147.000976562 34.998046875 c 0
 141.000976562 16.998046875 129.333984375 2.998046875 112.000976562 -7.001953125 c 0
 98.0009765625 -16.3349609375 83.66796875 -21.001953125 69.0009765625 -21.001953125 c 2
 66.0009765625 -21.001953125 l 2
 50.66796875 -21.001953125 39.0009765625 -15.3349609375 31.0009765625 -4.001953125 c 0
 26.833984375 2.248046875 24.7509765625 9.669921875 24.7509765625 18.263671875 c 0
 24.7509765625 23.419921875 25.5009765625 28.998046875 27.0009765625 34.998046875 c 0
 27.66796875 36.998046875 28.0009765625 39.3310546875 28.0009765625 41.998046875 c 0
 34.0009765625 62.6650390625 43.0009765625 97.33203125 55.0009765625 145.999023438 c 0
 76.333984375 237.999023438 97.6669921875 339.666015625 119 450.999023438 c 0
 127.666992188 494.33203125 133.833984375 523.499023438 137.500976562 538.499023438 c 0
 141.16796875 553.499023438 146.500976562 573.499023438 153.500976562 598.499023438 c 0
 160.500976562 623.499023438 165.000976562 640.666015625 167.000976562 649.999023438 c 0
 172.333984375 670.666015625 181.666992188 686.333007812 195 697 c 0
 208.333007812 708.333007812 223 714 239 714 c 2
 244 714 l 2xd0
EndSplineSet
Validated: 1
EndChar

StartChar: G
Encoding: 71 71 46
Width: 700
GlyphClass: 2
Flags: HMW
HStem: -31 114<200.672 258.003> 619 105<495.338 496.335>
LayerCount: 2
Fore
SplineSet
34 142 m 2
 34 150 l 2
 34 171 36 191 41 212 c 0
 52 261 68 308 88 354 c 0
 108 400 130 442 155 479 c 0
 180 516 207 549 236 580 c 0
 267 611 298 637 329 658 c 0
 360 679 390 695 421 706 c 0
 452 718 482 724 510 724 c 0
 538 724 568 717 599 704 c 0
 630 690 649 678 657 667 c 0
 663 658 666 649 666 639 c 0
 666 634 665 629 664 624 c 0
 662 616 659 607 654 598 c 0
 648 586 638 577 624 572 c 0
 617 569 611 568 604 568 c 0
 597 568 592 569 588 571 c 0
 584 573 575 578 563 587 c 0
 551 596 539 604 526 610 c 0
 513 616 502 619 491 619 c 0
 472 619 451 613 426 601 c 0
 401 589 375 571 348 547 c 0
 321 523 296 496 272 465 c 0
 248 434 226 400 207 361 c 0
 188 322 173 284 164 245 c 0
 161 231 159 217 159 203 c 0
 159 191 160 180 163 168 c 0
 168 143 179 123 195 107 c 0
 211 91 230 83 251 83 c 0
 265 83 281 88 298 97 c 0
 315 106 333 117 349 132 c 0
 365 147 381 163 397 182 c 0
 422 211 443 240 460 270 c 1
 424 268 387 265 349 260 c 0
 311 255 284 248 268 241 c 0
 260 237 253 235 245 235 c 0
 237 235 230 237 223 242 c 0
 213 249 208 259 208 270 c 2
 208 276 l 2
 208 279 208 283 209 286 c 0
 212 300 220 313 233 324 c 0
 242 332 254 339 269 345 c 0
 292 355 336 362 401 367 c 0
 448 370 486 372 517 373 c 0
 528 373 539 373 548 372 c 0
 565 371 577 367 584 360 c 0
 590 354 593 346 593 335 c 0
 593 330 592 325 591 319 c 0
 586 299 576 285 559 276 c 1
 555 264 l 2
 554 261 552 255 550 247 c 0
 540 218 519 182 487 138 c 0
 472 117 454 97 434 76 c 0
 413 56 391 38 368 22 c 0
 345 6 321 -6 294 -16 c 0
 267 -26 241 -31 216 -31 c 0
 185 -31 158 -26 135 -17 c 0
 112 -8 94 5 80 21 c 0
 66 37 55 55 47 76 c 0
 39 97 35 119 34 142 c 2
EndSplineSet
Validated: 1
EndChar

StartChar: H
Encoding: 72 72 47
Width: 700
GlyphClass: 2
Flags: HMW
HStem: -21 21G<65.3345 73.001 73.001 76.001> 312 86.0049 694.005 20G<255.001 259.001 259.001 266.334>
LayerCount: 2
Fore
SplineSet
33 34 m 0
 33.6669921875 36.6669921875 34.6689453125 39.3369140625 36.001953125 42.00390625 c 0
 41.3349609375 60.00390625 52.001953125 104.336914062 68.001953125 175.00390625 c 0
 77.3349609375 215.670898438 89.501953125 265.170898438 104.501953125 323.50390625 c 2
 131.501953125 428.50390625 l 2
 134.501953125 440.170898438 137.334960938 451.837890625 140.001953125 463.504882812 c 0
 142.668945312 475.171875 146.8359375 494.671875 152.502929688 522.004882812 c 0
 158.169921875 549.337890625 162.169921875 567.504882812 164.502929688 576.504882812 c 0
 166.8359375 585.504882812 169.168945312 594.671875 171.501953125 604.004882812 c 0
 173.834960938 613.337890625 175.334960938 619.170898438 176.001953125 621.50390625 c 0
 176.668945312 623.836914062 177.3359375 626.50390625 178.002929688 629.50390625 c 0
 178.669921875 632.50390625 179.502929688 635.50390625 180.502929688 638.50390625 c 0
 181.502929688 641.50390625 182.3359375 644.170898438 183.002929688 646.50390625 c 2
 184.002929688 650.00390625 l 2
 189.3359375 670.670898438 198.668945312 686.337890625 212.001953125 697.004882812 c 0
 225.334960938 708.337890625 239.66796875 714.004882812 255.000976562 714.004882812 c 2
 259.000976562 714.004882812 l 2
 273.66796875 714.004882812 285.334960938 709.337890625 294.001953125 700.004882812 c 0
 300.5234375 693.047851562 303.784179688 683.681640625 303.784179688 671.904296875 c 0
 303.784179688 665.624023438 302.856445312 658.657226562 301.001953125 651.004882812 c 0
 299.668945312 643.671875 295.501953125 629.004882812 288.501953125 607.004882812 c 0
 281.501953125 585.004882812 276.001953125 565.171875 272.001953125 547.504882812 c 0
 268.001953125 529.837890625 262.668945312 505.004882812 256.001953125 473.004882812 c 0
 249.334960938 441.004882812 244.001953125 416.004882812 240.001953125 398.004882812 c 1
 294.668945312 398.671875 361.3359375 404.671875 440.002929688 416.004882812 c 0
 463.3359375 419.337890625 481.668945312 421.670898438 495.001953125 423.00390625 c 0
 495.668945312 425.670898438 496.501953125 430.170898438 497.501953125 436.50390625 c 0
 498.501953125 442.836914062 501.501953125 457.669921875 506.501953125 481.002929688 c 0
 511.501953125 504.3359375 515.501953125 522.502929688 518.501953125 535.502929688 c 0
 521.501953125 548.502929688 526.668945312 569.002929688 534.001953125 597.002929688 c 0
 541.334960938 625.002929688 546.001953125 642.002929688 548.001953125 648.002929688 c 0
 553.334960938 669.3359375 563.001953125 685.668945312 577.001953125 697.001953125 c 0
 591.001953125 708.334960938 605.334960938 714.001953125 620.001953125 714.001953125 c 2
 624.001953125 714.001953125 l 2
 639.334960938 714.001953125 651.001953125 709.334960938 659.001953125 700.001953125 c 0
 665.223632812 692.890625 668.334960938 683.41015625 668.334960938 671.55859375 c 0
 668.334960938 665.631835938 667.556640625 659.11328125 666.000976562 652.001953125 c 0
 663.333984375 639.334960938 657.000976562 614.334960938 647.000976562 577.001953125 c 0
 635.000976562 530.334960938 624.833984375 488.501953125 616.500976562 451.501953125 c 0
 608.16796875 414.501953125 601.66796875 385.168945312 597.000976562 363.501953125 c 0
 592.333984375 341.834960938 588.333984375 321.66796875 585.000976562 303.000976562 c 0
 576.333984375 266.333984375 564.333984375 219.500976562 549.000976562 162.500976562 c 0
 533.66796875 105.500976562 523.66796875 65.66796875 519.000976562 43.0009765625 c 2
 517.000976562 35.0009765625 l 2
 511.66796875 17.0009765625 500.66796875 3.0009765625 484.000976562 -6.9990234375 c 0
 470.000976562 -16.33203125 455.66796875 -20.9990234375 441.000976562 -20.9990234375 c 2
 438.000976562 -20.9990234375 l 2
 422.66796875 -20.9990234375 411.000976562 -15.33203125 403.000976562 -3.9990234375 c 0
 398.255859375 2.9033203125 395.883789062 10.921875 395.883789062 20.056640625 c 0
 395.883789062 25.0390625 396.588867188 30.3544921875 398.000976562 36.0009765625 c 0
 398.66796875 38.0009765625 399.000976562 40.333984375 399.000976562 43.0009765625 c 0
 424.333984375 126.333984375 449.000976562 219.666992188 473.000976562 323 c 2
 477.000976562 341 l 1
 455.66796875 339 415.000976562 333.833007812 355.000976562 325.5 c 0
 295.000976562 317.166992188 249.000976562 312.666992188 217.000976562 312 c 1
 215.66796875 307.333007812 215.000976562 304.333007812 215.000976562 303 c 0
 205.000976562 269.666992188 194.833984375 231 184.500976562 187 c 0
 174.16796875 143 163.66796875 92.6669921875 153.000976562 36 c 0
 146.333984375 17.3330078125 135.000976562 3 119.000976562 -7 c 0
 105.000976562 -16.3330078125 90.66796875 -21 76.0009765625 -21 c 2
 73.0009765625 -21 l 2
 57.66796875 -21 46.0009765625 -15.3330078125 38.0009765625 -4 c 0
 33.5556640625 2.6669921875 31.333984375 10.51953125 31.333984375 19.556640625 c 0
 31.333984375 24.0751953125 31.888671875 28.8896484375 33 34 c 0
EndSplineSet
Validated: 1
EndChar

StartChar: I
Encoding: 73 73 48
Width: 700
GlyphClass: 2
Flags: HMW
HStem: -11.002 103<473 484.5 473 473> -6.00098 97.999<369.667 494.004> 600.997 108.999<263.004 446.67 271.004 446.67>
LayerCount: 2
Fore
SplineSet
157 -12 m 1x60
 115.666992188 -13.3330078125 87.33984375 -14.001953125 72.0068359375 -14.001953125 c 0
 53.33984375 -14.001953125 40.0068359375 -9.6689453125 32.0068359375 -1.001953125 c 0
 25.7470703125 5.2578125 22.6171875 12.908203125 22.6171875 21.9501953125 c 0
 22.6171875 25.4267578125 23.080078125 29.109375 24.005859375 32.998046875 c 2
 24.005859375 35.998046875 l 2
 26.6728515625 49.3310546875 34.005859375 60.8310546875 46.005859375 70.498046875 c 0
 58.005859375 80.1650390625 73.3388671875 85.6650390625 92.005859375 86.998046875 c 1
 93.3388671875 92.3310546875 93.671875 92.3310546875 93.0048828125 86.998046875 c 1
 118.337890625 88.3310546875 163.004882812 89.6640625 227.004882812 90.9970703125 c 1
 247.671875 160.330078125 266.671875 232.663085938 284.004882812 307.99609375 c 0
 293.337890625 347.329101562 302.004882812 386.99609375 310.004882812 426.99609375 c 0
 315.337890625 455.663085938 321.670898438 486.663085938 329.00390625 519.99609375 c 0
 330.336914062 527.329101562 331.836914062 534.329101562 333.50390625 540.99609375 c 0
 335.170898438 547.663085938 338.00390625 557.830078125 342.00390625 571.497070312 c 0
 346.00390625 585.1640625 349.00390625 594.997070312 351.00390625 600.997070312 c 1
 271.00390625 600.997070312 l 2
 255.00390625 600.997070312 238.336914062 600.6640625 221.00390625 599.997070312 c 2
 219.00390625 599.997070312 l 2
 201.670898438 599.997070312 189.00390625 604.6640625 181.00390625 613.997070312 c 0
 175.00390625 620.997070312 172.00390625 629.68359375 172.00390625 640.05859375 c 0
 172.00390625 643.516601562 172.336914062 647.163085938 173.00390625 650.99609375 c 0
 173.00390625 651.663085938 173.336914062 652.663085938 174.00390625 653.99609375 c 0
 177.336914062 667.99609375 185.00390625 680.49609375 197.00390625 691.49609375 c 0
 209.00390625 702.49609375 224.670898438 707.99609375 244.00390625 707.99609375 c 0
 298.00390625 709.329101562 349.336914062 709.99609375 398.00390625 709.99609375 c 0
 495.336914062 709.99609375 574.336914062 706.99609375 635.00390625 700.99609375 c 0
 649.00390625 699.663085938 659.670898438 695.330078125 667.00390625 687.997070312 c 0
 673.880859375 681.120117188 677.319335938 672.071289062 677.319335938 660.850585938 c 0
 677.319335938 656.84375 676.880859375 652.559570312 676.00390625 647.998046875 c 0
 672.670898438 633.331054688 665.337890625 619.6640625 654.004882812 606.997070312 c 0
 648.004882812 599.6640625 640.337890625 593.997070312 631.004882812 589.997070312 c 0
 625.004882812 587.997070312 619.337890625 586.6640625 614.004882812 585.997070312 c 0
 610.671875 585.997070312 607.338867188 586.330078125 604.005859375 586.997070312 c 0
 588.005859375 589.6640625 545.672851562 593.331054688 477.005859375 597.998046875 c 1
 475.005859375 590.665039062 471.672851562 577.33203125 467.005859375 557.999023438 c 0
 462.338867188 539.33203125 458.671875 524.999023438 456.004882812 514.999023438 c 0
 453.337890625 504.999023438 450.670898438 494.666015625 448.00390625 483.999023438 c 0
 438.670898438 443.999023438 431.50390625 411.33203125 426.50390625 385.999023438 c 0
 421.50390625 360.666015625 415.836914062 334.666015625 409.50390625 307.999023438 c 0
 403.170898438 281.33203125 393.50390625 243.665039062 380.50390625 194.998046875 c 0
 367.50390625 146.331054688 358.670898438 112.331054688 354.00390625 92.998046875 c 1
 380.670898438 92.998046875 402.00390625 92.6650390625 418.00390625 91.998046875 c 2
 494.00390625 91.998046875 l 1
 495.336914062 97.3310546875 495.669921875 97.3310546875 495.002929688 91.998046875 c 1xa0
 496.3359375 97.3310546875 496.668945312 97.3310546875 496.001953125 91.998046875 c 1
 497.334960938 97.3310546875 497.66796875 97.3310546875 497.000976562 91.998046875 c 1x60
 498.333984375 97.3310546875 498.666992188 97.3310546875 498 91.998046875 c 1
 516 91.998046875 527.833007812 87.498046875 533.5 78.498046875 c 0
 537.353515625 72.3779296875 539.280273438 65.1025390625 539.280273438 56.6708984375 c 0
 539.280273438 52.7021484375 538.853515625 48.478515625 538 43.998046875 c 0
 536.666992188 37.3310546875 534.666992188 30.998046875 532 24.998046875 c 0
 529.333007812 18.998046875 525.666015625 12.998046875 520.999023438 6.998046875 c 0
 514.999023438 -0.3349609375 507.666015625 -5.3349609375 498.999023438 -8.001953125 c 0
 493.666015625 -10.001953125 488.833007812 -11.001953125 484.5 -11.001953125 c 2
 473 -11.001953125 l 2xa0
 457 -8.3349609375 429.333007812 -6.66796875 390 -6.0009765625 c 0
 349.333007812 -6.0009765625 312 -6.66796875 278 -8.0009765625 c 1
 261.887695312 -5.22265625 245.486328125 -3.833984375 228.795898438 -3.833984375 c 0
 205.430664062 -3.833984375 181.499023438 -6.5556640625 157 -12 c 1x60
EndSplineSet
Validated: 1
EndChar

StartChar: J
Encoding: 74 74 49
Width: 700
GlyphClass: 2
Flags: HMW
HStem: -34.998 125.999<235.664 241.333> 600.001 109.999<358.998 388.999>
LayerCount: 2
Fore
SplineSet
417 217 m 0
 379.666992188 101 340.33203125 26.3349609375 298.999023438 -6.998046875 c 0
 276.999023438 -25.6650390625 253.666015625 -34.998046875 228.999023438 -34.998046875 c 0
 204.33203125 -34.998046875 181.33203125 -30.6650390625 159.999023438 -21.998046875 c 0
 138.666015625 -13.3310546875 120.999023438 -2.3310546875 106.999023438 11.001953125 c 0
 94.33203125 25.001953125 83.1650390625 40.1689453125 73.498046875 56.501953125 c 0
 63.8310546875 72.8349609375 56.3310546875 89.001953125 50.998046875 105.001953125 c 0
 45.6650390625 121.001953125 41.998046875 135.501953125 39.998046875 148.501953125 c 0
 38.498046875 158.251953125 37.748046875 166.782226562 37.748046875 174.094726562 c 0
 37.748046875 176.532226562 37.8310546875 178.834960938 37.998046875 181.001953125 c 0
 37.998046875 188.334960938 39.498046875 196.501953125 42.498046875 205.501953125 c 0
 45.498046875 214.501953125 48.998046875 223.001953125 52.998046875 231.001953125 c 0
 57.6650390625 241.001953125 64.498046875 249.501953125 73.498046875 256.501953125 c 0
 82.498046875 263.501953125 92.998046875 268.334960938 104.998046875 271.001953125 c 0
 108.998046875 271.668945312 112.998046875 271.668945312 116.998046875 271.001953125 c 0
 129.665039062 271.001953125 138.998046875 267.001953125 144.998046875 259.001953125 c 0
 150.331054688 251.890625 152.998046875 243.446289062 152.998046875 233.66796875 c 0
 152.998046875 228.779296875 152.331054688 223.556640625 150.998046875 218.000976562 c 0
 149.715820312 212.103515625 149.075195312 205.6640625 149.075195312 198.682617188 c 0
 149.075195312 187.510742188 150.715820312 174.950195312 153.998046875 161.000976562 c 0
 156.665039062 148.333984375 161.165039062 136.833984375 167.498046875 126.500976562 c 0
 173.831054688 116.16796875 183.6640625 107.66796875 196.997070312 101.000976562 c 0
 210.330078125 94.333984375 226.330078125 91.0009765625 244.997070312 91.0009765625 c 0
 245.6640625 91.0009765625 246.6640625 91.333984375 247.997070312 92.0009765625 c 0
 252.6640625 95.333984375 258.331054688 103.000976562 264.998046875 115.000976562 c 0
 280.331054688 143.000976562 295.331054688 186.333984375 309.998046875 245.000976562 c 2
 310.498046875 247.000976562 l 2
 310.831054688 248.333984375 312.331054688 255.166992188 314.998046875 267.5 c 0
 317.665039062 279.833007812 324.665039062 313 335.998046875 367 c 0
 352.665039062 447.666992188 370.33203125 525.333984375 388.999023438 600.000976562 c 1
 354.33203125 601.000976562 321.749023438 601.500976562 291.249023438 601.500976562 c 0
 260.749023438 601.500976562 232.33203125 601.000976562 205.999023438 600.000976562 c 2
 203.999023438 600.000976562 l 2
 186.666015625 600.000976562 173.999023438 604.66796875 165.999023438 614.000976562 c 0
 160.3515625 620.588867188 157.528320312 628.671875 157.528320312 638.25 c 0
 157.528320312 642.240234375 158.018554688 646.490234375 158.999023438 651 c 2
 158.999023438 654 l 2
 162.33203125 668 170.165039062 680.5 182.498046875 691.5 c 0
 194.831054688 702.5 210.331054688 708 228.998046875 708 c 0
 283.665039062 709.333007812 334.998046875 710 382.998046875 710 c 0
 480.331054688 710 559.331054688 707 619.998046875 701 c 0
 633.998046875 699.666992188 644.331054688 695.333984375 650.998046875 688.000976562 c 0
 658.256835938 680.7421875 661.885742188 671.063476562 661.885742188 658.965820312 c 0
 661.885742188 655.508789062 661.58984375 651.854492188 660.997070312 648.001953125 c 0
 657.6640625 633.334960938 650.331054688 619.66796875 638.998046875 607.000976562 c 0
 632.998046875 599.66796875 625.331054688 594.000976562 615.998046875 590.000976562 c 0
 609.998046875 588.000976562 604.331054688 586.66796875 598.998046875 586.000976562 c 0
 595.665039062 586.000976562 591.998046875 586.333984375 587.998046875 587.000976562 c 0
 569.331054688 590.333984375 539.998046875 593.333984375 499.998046875 596.000976562 c 1
 496.665039062 579.333984375 485.33203125 521.000976562 465.999023438 421.000976562 c 0
 460.666015625 393.66796875 455.833007812 370.66796875 451.5 352.000976562 c 0
 447.166992188 333.333984375 444.666992188 321.666992188 444 317 c 0
 434 275 425 241.666992188 417 217 c 0
EndSplineSet
Validated: 1
EndChar

StartChar: K
Encoding: 75 75 50
Width: 700
GlyphClass: 2
Flags: HMW
HStem: -21 21G<76.3345 84.001 84.001 87> 693.998 21G
LayerCount: 2
Fore
SplineSet
87 -21 m 2
 84.0009765625 -21 l 2
 68.66796875 -21 56.66796875 -16.6669921875 48.0009765625 -8 c 0
 42.958984375 -2.5 40.4384765625 4.2607421875 40.4384765625 12.2822265625 c 0
 40.4384765625 15.927734375 40.958984375 19.833984375 42.0009765625 24 c 0
 42.66796875 26.6669921875 43.66796875 29.333984375 45.0009765625 32.0009765625 c 0
 51.66796875 53.333984375 60.3349609375 88.6669921875 71.001953125 138 c 0
 93.001953125 233.333007812 115.334960938 338.666015625 138.001953125 453.999023438 c 0
 146.668945312 495.999023438 152.668945312 524.999023438 156.001953125 540.999023438 c 0
 159.334960938 556.33203125 165.001953125 577.999023438 173.001953125 605.999023438 c 0
 181.001953125 634.666015625 186.001953125 652.666015625 188.001953125 659.999023438 c 0
 192.668945312 677.33203125 201.3359375 690.999023438 214.002929688 700.999023438 c 0
 226.446289062 709.709960938 239.76171875 714.064453125 253.947265625 714.064453125 c 0
 254.9609375 714.064453125 255.979492188 714.04296875 257.001953125 713.998046875 c 2
 260.001953125 713.998046875 l 2
 274.668945312 713.998046875 286.668945312 710.331054688 296.001953125 702.998046875 c 0
 303.14453125 696.807617188 306.715820312 688.236328125 306.715820312 677.284179688 c 0
 306.715820312 672.90234375 306.14453125 668.140625 305.001953125 662.998046875 c 0
 301.668945312 646.998046875 293.668945312 615.331054688 281.001953125 567.998046875 c 0
 268.334960938 521.331054688 258.66796875 482.998046875 252.000976562 452.998046875 c 1
 279.333984375 472.998046875 318.666992188 501.665039062 370 538.998046875 c 0
 482 627.665039062 548.333007812 679.33203125 569 693.999023438 c 0
 581.666992188 702.666015625 593 708.666015625 603 711.999023438 c 0
 609.666992188 713.999023438 615.333984375 714.999023438 620.000976562 714.999023438 c 0
 624.66796875 714.999023438 628.334960938 714.666015625 631.001953125 713.999023438 c 0
 638.334960938 711.999023438 644.66796875 708.33203125 650.000976562 702.999023438 c 0
 657.333984375 694.999023438 660.000976562 685.999023438 658.000976562 675.999023438 c 0
 654.000976562 657.999023438 642.66796875 638.666015625 624.000976562 617.999023438 c 0
 611.333984375 605.33203125 569.333984375 568.999023438 498.000976562 508.999023438 c 0
 425.333984375 452.999023438 361.666992188 404.33203125 307 362.999023438 c 1
 325 338.999023438 354.333007812 303.33203125 395 255.999023438 c 0
 436.333007812 211.33203125 472 170.999023438 502 134.999023438 c 0
 517.333007812 112.999023438 528.333007812 95.666015625 535 82.9990234375 c 0
 542.333007812 67.666015625 546 56.9990234375 546 50.9990234375 c 0
 546 42.33203125 545.333007812 33.9990234375 544 25.9990234375 c 0
 542.666992188 20.666015625 540.333984375 15.3330078125 537.000976562 10 c 0
 530.333984375 0.6669921875 521.333984375 -6.666015625 510.000976562 -11.9990234375 c 0
 495.456054688 -18.0595703125 485.869140625 -21.08984375 481.241210938 -21.08984375 c 0
 480.778320312 -21.08984375 480.365234375 -21.0595703125 480.000976562 -20.9990234375 c 2
 479.000976562 -20.9990234375 l 2
 462.333984375 -20.9990234375 448.666992188 -12.666015625 438 4.0009765625 c 0
 434 12.0009765625 415.666992188 35.0009765625 383 73.0009765625 c 0
 350.333007812 110.333984375 315.333007812 151.333984375 278 196.000976562 c 0
 250 225.333984375 227.666992188 250.333984375 211 271.000976562 c 1
 163 25.0009765625 l 2
 157.666992188 10.333984375 146.666992188 -1.3330078125 130 -10 c 0
 116 -17.3330078125 101.666992188 -21 87 -21 c 2
EndSplineSet
Validated: 1
EndChar

StartChar: L
Encoding: 76 76 51
Width: 700
GlyphClass: 2
Flags: HMW
HStem: -9 105 686 20G<329.998 332.998 332.998 340.665>
LayerCount: 2
Fore
SplineSet
92 26 m 0
 92 31 93 36 94 41 c 0
 95 43 95 46 96 50 c 0
 97 54 109 90 132 159 c 0
 155 228 176 294 193 357 c 0
 198 376 204 400 211 428 c 0
 216.965820312 452.856445312 232.817382812 523.188476562 257.571289062 638.994140625 c 0
 257.684570312 639.791015625 257.827148438 640.791015625 258 642 c 0
 263 663 272 679 286 690 c 0
 300 701 315 706 330 706 c 2
 333 706 l 2
 348 706 360 701 369 692 c 0
 376 685 380 676 380 664 c 0
 380 658 379 652 377 645 c 0
 373 626 367 601 358 569 c 0
 347 526 336 485 326 447 c 0
 315 406 303 364 292 321 c 0
 285 294 273 256 258 208 c 0
 243 160 233 123 226 96 c 1
 229 104 229 104 228 96 c 1
 281 96 344 99 417 106 c 0
 488 113 536 119 560 125 c 0
 564 126 568 127 573 127 c 0
 578 127 582 126 586 125 c 0
 593 122 599 116 603 108 c 0
 606 101 607 94 607 87 c 0
 608 79 607 72 606 66 c 0
 603 51 596 40 586 30 c 0
 576 20 563 13 544 10 c 0
 499 1 429 -5 335 -9 c 0
 241 -13 174 -15 133 -15 c 0
 118 -15 106 -9 99 2 c 0
 95 9 92 17 92 26 c 0
EndSplineSet
Validated: 1
EndChar

StartChar: M
Encoding: 77 77 52
Width: 700
GlyphClass: 2
Flags: HMW
HStem: -10.002 21G<62.6616 65.9951 65.9951 67.9951>
LayerCount: 2
Fore
SplineSet
139 63 m 2
 136.995117188 52.998046875 l 2
 132.995117188 34.998046875 124.662109375 19.998046875 111.995117188 7.998046875 c 0
 97.9951171875 -4.001953125 83.328125 -10.001953125 67.9951171875 -10.001953125 c 2
 65.9951171875 -10.001953125 l 2
 59.328125 -10.001953125 53.328125 -8.6689453125 47.9951171875 -6.001953125 c 0
 40.662109375 -2.001953125 35.9951171875 5.3310546875 33.9951171875 15.998046875 c 0
 33.69921875 18.6640625 33.55078125 21.52734375 33.55078125 24.5888671875 c 0
 33.55078125 35.3046875 35.3662109375 48.44140625 38.99609375 63.998046875 c 0
 40.99609375 72.6650390625 44.99609375 86.998046875 50.99609375 106.998046875 c 0
 56.99609375 126.331054688 65.3291015625 151.998046875 75.99609375 183.998046875 c 0
 87.3291015625 217.998046875 99.99609375 258.331054688 113.99609375 304.998046875 c 0
 127.99609375 351.665039062 139.663085938 388.998046875 148.99609375 416.998046875 c 0
 178.99609375 512.998046875 201.329101562 579.665039062 215.99609375 616.998046875 c 0
 225.329101562 640.331054688 233.662109375 656.6640625 240.995117188 665.997070312 c 0
 251.662109375 679.997070312 265.329101562 689.997070312 281.99609375 695.997070312 c 0
 295.99609375 701.330078125 309.663085938 703.997070312 322.99609375 703.997070312 c 2
 328.99609375 703.997070312 l 2
 344.329101562 703.997070312 356.329101562 701.6640625 364.99609375 696.997070312 c 0
 377.663085938 690.997070312 384.663085938 680.997070312 385.99609375 666.997070312 c 0
 386.23828125 661.6640625 386.359375 655.703125 386.359375 649.114257812 c 0
 386.359375 619.461914062 383.905273438 577.08984375 378.99609375 521.998046875 c 0
 372.99609375 454.665039062 364.99609375 377.998046875 354.99609375 291.998046875 c 0
 352.99609375 272.665039062 350.99609375 254.665039062 348.99609375 237.998046875 c 1
 364.329101562 285.998046875 378.99609375 331.331054688 392.99609375 373.998046875 c 0
 411.663085938 429.331054688 432.663085938 484.331054688 455.99609375 538.998046875 c 0
 479.329101562 594.331054688 498.329101562 636.998046875 512.99609375 666.998046875 c 0
 518.329101562 676.998046875 527.329101562 685.331054688 539.99609375 691.998046875 c 0
 551.329101562 697.998046875 562.662109375 701.665039062 573.995117188 702.998046875 c 0
 581.328125 703.665039062 587.328125 704.165039062 591.995117188 704.498046875 c 0
 596.662109375 704.831054688 600.329101562 704.6640625 602.99609375 703.997070312 c 2
 606.99609375 703.997070312 l 1
 621.49609375 703.997070312 l 2
 625.163085938 703.997070312 629.99609375 702.997070312 635.99609375 700.997070312 c 0
 642.663085938 699.6640625 647.99609375 697.6640625 651.99609375 694.997070312 c 0
 655.99609375 692.330078125 659.329101562 688.330078125 661.99609375 682.997070312 c 0
 664.663085938 676.997070312 665.99609375 669.997070312 665.99609375 661.997070312 c 0
 663.99609375 641.997070312 648.663085938 544.997070312 619.99609375 370.997070312 c 0
 591.99609375 197.6640625 577.99609375 99.6640625 577.99609375 76.9970703125 c 0
 577.99609375 63.6640625 576.329101562 51.3310546875 572.99609375 39.998046875 c 0
 570.99609375 30.6650390625 567.329101562 22.6650390625 561.99609375 15.998046875 c 0
 554.663085938 6.6650390625 544.663085938 -0.001953125 531.99609375 -4.001953125 c 0
 524.663085938 -6.001953125 517.330078125 -7.1689453125 509.997070312 -7.501953125 c 0
 502.6640625 -7.8349609375 495.331054688 -6.001953125 487.998046875 -2.001953125 c 0
 475.331054688 4.6650390625 467.998046875 18.33203125 465.998046875 38.9990234375 c 0
 465.799804688 41.3798828125 465.700195312 44.16796875 465.700195312 47.36328125 c 0
 465.700195312 97.857421875 490.466796875 250.069335938 539.999023438 503.999023438 c 1
 519.999023438 452.666015625 502.999023438 403.999023438 488.999023438 357.999023438 c 0
 464.999023438 281.999023438 440.33203125 209.999023438 414.999023438 141.999023438 c 0
 388.999023438 73.9990234375 370.666015625 32.33203125 359.999023438 16.9990234375 c 0
 346.666015625 0.9990234375 322.666015625 -7.0009765625 287.999023438 -7.0009765625 c 2
 282.999023438 -7.0009765625 l 2
 269.666015625 -7.0009765625 258.666015625 -5.0009765625 249.999023438 -1.0009765625 c 0
 239.33203125 3.666015625 233.33203125 10.3330078125 231.999023438 19 c 0
 231.947265625 21.4619140625 231.921875 24.16796875 231.921875 27.115234375 c 0
 231.921875 62.4775390625 235.614257812 132.772460938 242.999023438 238 c 0
 248.33203125 316 253.999023438 391.666992188 259.999023438 465 c 1
 255.999023438 451.666992188 248.666015625 427.666992188 237.999023438 393 c 2
 222.999023438 340 l 1
 195.999023438 252 l 2
 187.999023438 224.666992188 179.33203125 196.333984375 169.999023438 167.000976562 c 0
 162.666015625 144.333984375 155.333007812 120.666992188 148 96 c 0
 143.333007812 81.3330078125 140.333007812 70.3330078125 139 63 c 2
EndSplineSet
Validated: 1
EndChar

StartChar: N
Encoding: 78 78 53
Width: 700
GlyphClass: 2
Flags: HMW
HStem: -11.999 21G<55.6646 72.3315> 685.001 20G<247.333 256.667 620 635.333>
VStem: 29.9971 100.002
LayerCount: 2
Fore
SplineSet
237 486 m 1
 231 456 225.666992188 431.000976562 221 411.000976562 c 0
 216.333007812 389.66796875 209.333007812 359.66796875 200 321.000976562 c 0
 190.666992188 283.000976562 179 237.000976562 165 183.000976562 c 0
 151 127.66796875 142 93.0009765625 138 79.0009765625 c 0
 134.666992188 65.0009765625 132.666992188 56.0009765625 132 52.0009765625 c 0
 131.333007812 48.66796875 130.666015625 45.66796875 129.999023438 43.0009765625 c 0
 125.999023438 25.0009765625 117.999023438 11.333984375 105.999023438 2.0009765625 c 0
 93.33203125 -7.33203125 79.6650390625 -11.9990234375 64.998046875 -11.9990234375 c 0
 46.3310546875 -11.9990234375 34.6640625 -5.9990234375 29.9970703125 6.0009765625 c 0
 29.02734375 10.365234375 28.5419921875 15.3017578125 28.5419921875 20.8115234375 c 0
 28.5419921875 30.453125 30.02734375 41.849609375 32.9970703125 55.0009765625 c 0
 35.6640625 68.333984375 48.3310546875 120.000976562 70.998046875 210.000976562 c 0
 105.665039062 348.66796875 129.33203125 444.000976562 141.999023438 496.000976562 c 0
 153.999023438 548.000976562 163.999023438 595.333984375 171.999023438 638.000976562 c 0
 172.666015625 640.66796875 173.333007812 643.66796875 174 647.000976562 c 0
 176 657.000976562 180 665.66796875 186 673.000976562 c 0
 192.666992188 682.333984375 201 689.333984375 211 694.000976562 c 0
 225 701.333984375 239.666992188 705.000976562 255 705.000976562 c 0
 258.333007812 705.000976562 261.666015625 704.66796875 264.999023438 704.000976562 c 0
 278.999023438 704.000976562 290.33203125 701.66796875 298.999023438 697.000976562 c 0
 311.666015625 691.000976562 318.666015625 681.000976562 319.999023438 667.000976562 c 0
 323.999023438 624.333984375 344.666015625 545.333984375 381.999023438 430.000976562 c 0
 413.33203125 332.66796875 441.33203125 251.66796875 465.999023438 187.000976562 c 1
 480.666015625 244.333984375 497.999023438 319.333984375 517.999023438 412.000976562 c 0
 543.999023438 530.000976562 559.33203125 608.000976562 563.999023438 646.000976562 c 0
 564.666015625 650.000976562 565.333007812 653.66796875 566 657.000976562 c 0
 568.666992188 669.000976562 575 679.333984375 585 688.000976562 c 0
 597.666992188 699.333984375 612 705.000976562 628 705.000976562 c 0
 642.666992188 705.000976562 654 702.333984375 662 697.000976562 c 0
 666 694.333984375 669 690.333984375 671 685.000976562 c 0
 671.666992188 679.66796875 672 675.000976562 672 671.000976562 c 0
 672 666.333984375 671.333007812 659.333984375 670 650.000976562 c 0
 669.333007812 638.66796875 658 585.334960938 636 490.001953125 c 0
 632.666992188 476.001953125 629.666992188 462.001953125 627 448.001953125 c 0
 607.666992188 364.668945312 586.666992188 278.668945312 564 190.001953125 c 0
 549.333007812 132.668945312 537.333007812 90.001953125 528 62.001953125 c 0
 519.333007812 35.3349609375 512.333007812 18.3349609375 507 11.001953125 c 0
 494.333007812 -4.998046875 472 -13.3310546875 440 -13.998046875 c 2
 436 -13.998046875 l 2
 424 -13.998046875 414 -11.6650390625 406 -6.998046875 c 0
 396 -1.6650390625 390 5.001953125 388 13.001953125 c 0
 384.666992188 26.3349609375 375.333984375 55.66796875 360.000976562 101.000976562 c 0
 344.000976562 148.333984375 327.333984375 193.666992188 310.000976562 237 c 0
 293.333984375 286.333007812 276.666992188 341 260 401 c 0
 250.666992188 431.666992188 243 460 237 486 c 1
EndSplineSet
Validated: 1
EndChar

StartChar: O
Encoding: 79 79 54
Width: 700
GlyphClass: 2
Flags: HMW
HStem: -24 108<230.998 273.667> 612.001 105.999<434 441.333>
VStem: 76.999 111.999<161.501 244.667>
LayerCount: 2
Fore
SplineSet
628 480 m 0
 627.333007812 477.333007812 627.331054688 477.333984375 627.998046875 480.000976562 c 1
 616.665039062 406.000976562 600.33203125 333.333984375 578.999023438 262.000976562 c 0
 566.999023438 222.66796875 555.999023438 192.334960938 545.999023438 171.001953125 c 0
 530.666015625 139.668945312 514.166015625 112.668945312 496.499023438 90.001953125 c 0
 478.83203125 67.3349609375 460.665039062 48.66796875 441.998046875 34.0009765625 c 0
 423.331054688 19.333984375 402.331054688 7.6669921875 378.998046875 -1 c 0
 354.998046875 -9.6669921875 331.498046875 -15.6669921875 308.498046875 -19 c 0
 285.498046875 -22.3330078125 259.665039062 -24 230.998046875 -24 c 0
 186.998046875 -23.3330078125 150.998046875 -10.666015625 122.998046875 14.0009765625 c 0
 96.3310546875 39.333984375 79.3310546875 72.6669921875 71.998046875 114 c 0
 69.0107421875 130.295898438 67.5166015625 147.14453125 67.5166015625 164.545898438 c 0
 67.5166015625 189.860351562 70.677734375 216.344726562 76.9990234375 244 c 0
 76.9990234375 245.333007812 77.33203125 247.333007812 77.9990234375 250 c 0
 79.33203125 257.333007812 80.6650390625 262.666015625 81.998046875 265.999023438 c 0
 88.6650390625 294.666015625 94.33203125 317.833007812 98.9990234375 335.5 c 0
 103.666015625 353.166992188 110.333007812 376.666992188 119 406 c 0
 136.333007812 463.333007812 159.333007812 516.666015625 188 565.999023438 c 0
 215.333007812 610.666015625 253 647.333007812 301 676 c 0
 352.333007812 704 406 718 462 718 c 0
 490.666992188 718 517 712.666992188 541 702 c 0
 564.333007812 691.333007812 583.333007812 676 598 656 c 0
 612.666992188 636 622.666992188 611 628 581 c 0
 630.666015625 566 632 550.083007812 632 533.25 c 0
 632 516.416015625 630.666015625 498.666015625 628 480 c 0
220.498046875 94.0009765625 m 0
 230.165039062 87.333984375 242 84 256 84 c 0
 291.333007812 84 324.666015625 92.3330078125 355.999023438 109 c 0
 371.999023438 117 387.33203125 128.166992188 401.999023438 142.5 c 0
 416.666015625 156.833007812 429.333007812 173.333007812 440 192 c 0
 444 199.333007812 450.833007812 217.833007812 460.5 247.5 c 0
 470.166992188 277.166992188 480.333984375 312.666992188 491.000976562 354 c 0
 494.333984375 366 497.333984375 378 500.000976562 390 c 0
 506.66796875 418.666992188 512.000976562 447.333984375 516.000976562 476.000976562 c 0
 517.293945312 485.697265625 517.940429688 494.962890625 517.940429688 503.797851562 c 0
 517.940429688 531.407226562 511.626953125 554.80859375 499 574.000976562 c 0
 482.333007812 599.333984375 457.666015625 612.000976562 424.999023438 612.000976562 c 0
 392.33203125 612.000976562 362.665039062 600.66796875 335.998046875 578.000976562 c 0
 307.998046875 554.000976562 283.331054688 520.66796875 261.998046875 478.000976562 c 0
 238.665039062 430.000976562 219.998046875 374.66796875 205.998046875 312.000976562 c 0
 196.665039062 272.66796875 190.998046875 239.000976562 188.998046875 211.000976562 c 0
 188.33203125 202.66796875 187.998046875 194.375976562 187.998046875 186.125976562 c 0
 187.998046875 177.875976562 188.33203125 169.66796875 188.998046875 161.500976562 c 0
 190.331054688 145.16796875 193.498046875 131.500976562 198.498046875 120.500976562 c 0
 203.498046875 109.500976562 210.831054688 100.66796875 220.498046875 94.0009765625 c 0
EndSplineSet
Validated: 1
EndChar

StartChar: P
Encoding: 80 80 55
Width: 700
GlyphClass: 2
Flags: HMW
HStem: -18.998 21G<96.3286 112.329> 218 106.003<313.995 323.329 313.995 339.333> 605.003 105.999<405.996 464.997>
VStem: 59.9951 120 188.995 0.999023
LayerCount: 2
Fore
SplineSet
231.99609375 334.002929688 m 1
 252.7734375 327.28125 277.470703125 323.919921875 306.08984375 323.919921875 c 0
 308.692382812 323.919921875 311.328125 323.947265625 313.995117188 324.002929688 c 0
 332.662109375 324.002929688 350.162109375 325.3359375 366.495117188 328.002929688 c 0
 382.828125 330.669921875 396.995117188 334.002929688 408.995117188 338.002929688 c 0
 420.995117188 342.002929688 431.995117188 347.3359375 441.995117188 354.002929688 c 0
 451.995117188 360.669921875 460.662109375 367.336914062 467.995117188 374.00390625 c 0
 475.328125 380.670898438 481.995117188 388.50390625 487.995117188 397.50390625 c 0
 493.995117188 406.50390625 498.995117188 414.670898438 502.995117188 422.00390625 c 0
 506.995117188 429.336914062 510.662109375 438.169921875 513.995117188 448.502929688 c 0
 517.328125 458.8359375 519.995117188 467.168945312 521.995117188 473.501953125 c 0
 523.995117188 479.834960938 525.995117188 488.001953125 527.995117188 498.001953125 c 0
 530.176757812 506.729492188 531.267578125 514.959960938 531.267578125 522.6953125 c 0
 531.267578125 529.141601562 530.509765625 535.244140625 528.995117188 541.001953125 c 0
 525.662109375 553.668945312 520.329101562 563.8359375 512.99609375 571.502929688 c 0
 505.663085938 579.169921875 496.163085938 585.669921875 484.49609375 591.002929688 c 0
 472.829101562 596.3359375 461.329101562 600.002929688 449.99609375 602.002929688 c 0
 438.663085938 604.002929688 427.663085938 605.002929688 416.99609375 605.002929688 c 0
 394.99609375 605.002929688 355.329101562 603.002929688 297.99609375 599.002929688 c 1
 277.329101562 519.669921875 263.662109375 466.002929688 256.995117188 438.002929688 c 0
 247.662109375 400.669921875 239.329101562 366.002929688 231.99609375 334.002929688 c 1
191 109 m 0
 184.333007812 61 180.662109375 35.3359375 179.995117188 32.0029296875 c 0
 175.995117188 15.3359375 165.328125 2.6689453125 147.995117188 -5.998046875 c 0
 133.995117188 -14.6650390625 119.662109375 -18.998046875 104.995117188 -18.998046875 c 0
 87.662109375 -18.998046875 74.662109375 -13.6650390625 65.9951171875 -2.998046875 c 0
 60.953125 3.4189453125 58.4326171875 11.2529296875 58.4326171875 20.505859375 c 0
 58.4326171875 24.7109375 58.953125 29.2099609375 59.9951171875 34.0009765625 c 0
 60.662109375 36.66796875 61.662109375 41.0009765625 62.9951171875 47.0009765625 c 0
 65.662109375 56.333984375 69.662109375 72.333984375 74.9951171875 95.0009765625 c 0
 83.662109375 132.333984375 94.9951171875 183.666992188 108.995117188 249 c 0
 132.328125 359.666992188 145.995117188 425 149.995117188 445 c 0
 161.30078125 497.540039062 174.596679688 554.059570312 189.8828125 614.560546875 c 1
 188.642578125 609.7109375 188.346679688 610.524414062 188.995117188 617.001953125 c 1
 187.662109375 611.668945312 187.329101562 612.001953125 187.99609375 618.001953125 c 0
 184.663085938 626.668945312 183.99609375 635.3359375 185.99609375 644.002929688 c 0
 186.663085938 646.669921875 187.329101562 649.002929688 187.99609375 651.002929688 c 0
 191.99609375 661.002929688 198.330078125 670.002929688 206.997070312 678.002929688 c 0
 215.6640625 686.002929688 224.6640625 691.002929688 233.997070312 693.002929688 c 0
 257.997070312 698.3359375 292.997070312 703.002929688 338.997070312 707.002929688 c 0
 379.548828125 709.780273438 409.916992188 711.168945312 430.102539062 711.168945312 c 0
 434.141601562 711.168945312 437.7734375 711.11328125 440.997070312 711.001953125 c 0
 488.997070312 711.001953125 530.330078125 703.001953125 564.997070312 687.001953125 c 0
 595.6640625 670.334960938 617.497070312 645.16796875 630.497070312 611.500976562 c 0
 637.844726562 592.471679688 641.518554688 571.47265625 641.518554688 548.50390625 c 0
 641.518554688 530.834960938 639.344726562 512.000976562 634.997070312 492.000976562 c 0
 626.330078125 454.000976562 612.330078125 418.333984375 592.997070312 385.000976562 c 0
 573.6640625 351.66796875 550.831054688 322.66796875 524.498046875 298.000976562 c 0
 498.165039062 273.333984375 467.33203125 253.666992188 431.999023438 239 c 0
 395.999023438 225 358.666015625 218 319.999023438 218 c 0
 274.666015625 218 237.999023438 220.666992188 209.999023438 226 c 1
 202.666015625 188 196.333007812 149 191 109 c 0
EndSplineSet
Validated: 1
EndChar

StartChar: Q
Encoding: 81 81 56
Width: 700
GlyphClass: 2
Flags: HMW
HStem: -24.002 21G<240.336 265.336> 612.496 105.504
VStem: 253.001 104.002
LayerCount: 2
Fore
SplineSet
453 -204 m 0
 443.666992188 -209.333007812 434.337890625 -212.002929688 425.004882812 -212.002929688 c 0
 420.337890625 -212.002929688 415.670898438 -211.3359375 411.00390625 -210.002929688 c 0
 397.670898438 -206.002929688 388.00390625 -197.669921875 382.00390625 -185.002929688 c 0
 375.336914062 -171.669921875 364.669921875 -149.169921875 350.002929688 -117.502929688 c 0
 335.3359375 -85.8359375 321.3359375 -53.6689453125 308.002929688 -21.001953125 c 1
 292.002929688 -23.001953125 274.669921875 -24.001953125 256.002929688 -24.001953125 c 0
 224.669921875 -24.001953125 196.669921875 -19.001953125 172.002929688 -9.001953125 c 0
 147.3359375 0.998046875 128.002929688 14.3310546875 114.002929688 30.998046875 c 0
 100.002929688 48.3310546875 89.0029296875 68.3310546875 81.0029296875 90.998046875 c 0
 73.2666015625 115.313476562 69.3974609375 142.276367188 69.3974609375 171.885742188 c 0
 69.3974609375 195.85546875 71.9326171875 221.559570312 77.0029296875 248.998046875 c 0
 80.3359375 265.665039062 84.0029296875 282.33203125 88.0029296875 298.999023438 c 0
 112.002929688 403.666015625 145.002929688 491.333007812 187.002929688 562 c 0
 214.3359375 606.666992188 252.002929688 644 300.002929688 674 c 0
 351.3359375 703.333007812 404.668945312 718 460.001953125 718 c 0
 518.668945312 718 564.001953125 699.333007812 596.001953125 662 c 0
 610.668945312 643.333007812 620.668945312 618.333007812 626.001953125 587 c 0
 628.845703125 570.290039062 630.268554688 552.252929688 630.268554688 532.888671875 c 0
 630.268554688 515.942382812 629.178710938 497.979492188 627.000976562 479 c 0
 622.333984375 443 614.333984375 401.333007812 603.000976562 354 c 0
 583.66796875 270 565.000976562 207 547.000976562 165 c 0
 518.333984375 97 477.666992188 47 425 15 c 1
 438.333007812 -14.3330078125 455 -48 475 -86 c 0
 486.368164062 -108.104492188 492.052734375 -120.038085938 492.052734375 -121.80078125 c 0
 492.052734375 -121.8984375 492.03515625 -121.96484375 492 -122 c 0
 494.083007812 -127 495.125 -132.130859375 495.125 -137.390625 c 0
 495.125 -140.546875 494.75 -143.75 494 -147 c 0
 493.333007812 -149 492.666015625 -151.333007812 491.999023438 -154 c 0
 487.999023438 -164 482.33203125 -173.666992188 474.999023438 -183 c 0
 467.666015625 -192.333007812 460.333007812 -199.333007812 453 -204 c 0
252.00390625 113.997070312 m 0
 250.818359375 121.704101562 250.224609375 129.08203125 250.224609375 136.130859375 c 0
 250.224609375 144.93359375 251.150390625 153.22265625 253.000976562 160.997070312 c 0
 257.66796875 182.330078125 269.334960938 198.997070312 288.001953125 210.997070312 c 0
 299.334960938 218.330078125 310.334960938 222.330078125 321.001953125 222.997070312 c 0
 329.668945312 222.997070312 337.3359375 219.997070312 344.002929688 213.997070312 c 0
 350.669921875 207.997070312 355.002929688 198.6640625 357.002929688 185.997070312 c 0
 361.002929688 157.330078125 368.669921875 125.663085938 380.002929688 90.99609375 c 1
 404.669921875 108.329101562 424.336914062 133.99609375 439.00390625 167.99609375 c 0
 443.00390625 177.329101562 449.670898438 196.99609375 459.00390625 226.99609375 c 0
 468.336914062 256.99609375 478.336914062 294.663085938 489.00390625 339.99609375 c 2
 493.00390625 355.99609375 l 2
 502.336914062 395.329101562 509.00390625 432.99609375 513.00390625 468.99609375 c 0
 514.057617188 479.08203125 514.584960938 488.692382812 514.584960938 497.827148438 c 0
 514.584960938 529.14453125 508.390625 554.8671875 496.00390625 574.99609375 c 0
 480.870117188 600 457.129882812 612.502929688 424.784179688 612.502929688 c 0
 424.358398438 612.502929688 423.931640625 612.5 423.50390625 612.49609375 c 0
 390.50390625 612.163085938 360.336914062 600.330078125 333.00390625 576.997070312 c 0
 304.336914062 552.330078125 279.336914062 517.997070312 258.00390625 473.997070312 c 0
 234.00390625 421.997070312 215.670898438 367.997070312 203.00390625 311.997070312 c 0
 198.336914062 291.997070312 194.336914062 271.6640625 191.00390625 250.997070312 c 0
 187.731445312 230.997070312 186.094726562 212.137695312 186.094726562 194.41796875 c 0
 186.094726562 179.65234375 187.231445312 165.678710938 189.50390625 152.497070312 c 0
 194.50390625 123.497070312 204.670898438 100.6640625 220.00390625 83.9970703125 c 0
 232.670898438 70.6640625 247.670898438 62.9970703125 265.00390625 60.9970703125 c 1
 258.336914062 82.330078125 254.00390625 99.9970703125 252.00390625 113.997070312 c 0
EndSplineSet
Validated: 1
EndChar

StartChar: R
Encoding: 82 82 57
Width: 700
GlyphClass: 2
Flags: HMW
HStem: -18.9961 21G<92.3325 99.999 99.999 102.999> 694.003 20G<259.998 275.665>
LayerCount: 2
Fore
SplineSet
191 129 m 0
 183.666992188 73.6669921875 179.33203125 42.3369140625 177.999023438 35.00390625 c 0
 173.999023438 17.6708984375 163.666015625 4.00390625 146.999023438 -5.99609375 c 0
 132.999023438 -14.6630859375 118.33203125 -18.99609375 102.999023438 -18.99609375 c 2
 99.9990234375 -18.99609375 l 2
 84.666015625 -18.99609375 72.666015625 -13.6630859375 63.9990234375 -2.99609375 c 0
 58.666015625 3.2255859375 55.9990234375 10.78125 55.9990234375 19.669921875 c 0
 55.9990234375 24.1142578125 56.666015625 28.8916015625 57.9990234375 34.0029296875 c 0
 58.666015625 36.669921875 59.666015625 39.3369140625 60.9990234375 42.00390625 c 0
 70.9990234375 75.3369140625 78.666015625 103.336914062 83.9990234375 126.00390625 c 0
 85.33203125 132.00390625 88.33203125 145.170898438 92.9990234375 165.50390625 c 0
 97.666015625 185.836914062 103.999023438 214.00390625 111.999023438 250.00390625 c 0
 119.999023438 286.00390625 124.999023438 308.336914062 126.999023438 317.00390625 c 0
 128.999023438 325.670898438 133.666015625 343.670898438 140.999023438 371.00390625 c 0
 152.999023438 417.00390625 162.33203125 457.670898438 168.999023438 493.00390625 c 0
 173.666015625 515.00390625 178.999023438 544.670898438 184.999023438 582.00390625 c 0
 190.999023438 619.336914062 194.999023438 642.00390625 196.999023438 650.00390625 c 1
 196.33203125 645.336914062 196.665039062 647.00390625 197.998046875 655.00390625 c 0
 197.998046875 656.336914062 198.331054688 657.669921875 198.998046875 659.002929688 c 0
 201.665039062 671.002929688 209.498046875 683.169921875 222.498046875 695.502929688 c 0
 235.498046875 707.8359375 250.998046875 714.002929688 268.998046875 714.002929688 c 0
 282.331054688 714.002929688 292.331054688 711.3359375 298.998046875 706.002929688 c 1
 352.331054688 703.3359375 400.998046875 696.168945312 444.998046875 684.501953125 c 0
 488.998046875 672.834960938 524.665039062 658.66796875 551.998046875 642.000976562 c 0
 578.665039062 625.333984375 599.33203125 605.666992188 613.999023438 583 c 0
 628.666015625 560.333007812 637.666015625 537.666015625 640.999023438 514.999023438 c 0
 642.387695312 505.555664062 643.08203125 496.053710938 643.08203125 486.495117188 c 0
 643.08203125 473.109375 641.720703125 459.611328125 638.998046875 445.999023438 c 0
 626.998046875 393.999023438 598.665039062 354.999023438 553.998046875 328.999023438 c 0
 539.998046875 320.33203125 525.331054688 313.665039062 509.998046875 308.998046875 c 0
 493.998046875 303.665039062 475.331054688 298.83203125 453.998046875 294.499023438 c 0
 432.665039062 290.166015625 414.665039062 286.999023438 399.998046875 284.999023438 c 0
 385.331054688 282.999023438 373.331054688 281.666015625 363.998046875 280.999023438 c 1
 411.998046875 251.666015625 452.665039062 217.999023438 485.998046875 179.999023438 c 0
 524.665039062 134.666015625 547.998046875 95.3330078125 555.998046875 62 c 0
 556.665039062 54.6669921875 556.33203125 47.5 554.999023438 40.5 c 0
 553.666015625 33.5 550.999023438 27 546.999023438 21 c 0
 539.666015625 9 530.333007812 -0.6669921875 519 -8 c 0
 509 -14.6669921875 499 -18 489 -18 c 0
 470.333007812 -18 456.333007812 -8 447 12 c 0
 440.333007812 26 429.5 43 414.5 63 c 0
 399.5 83 381 105.333007812 359 130 c 0
 337 154.666992188 311 179 281 203 c 0
 257 222.333007812 233 238.333007812 209 251 c 1
 203.666992188 217.666992188 197.666992188 177 191 129 c 0
263.998046875 449.002929688 m 0
 258.665039062 432.3359375 249.997070312 406.002929688 237.997070312 370.002929688 c 1
 242.6640625 370.002929688 249.1640625 369.8359375 257.497070312 369.502929688 c 0
 265.830078125 369.169921875 275.997070312 369.669921875 287.997070312 371.002929688 c 0
 315.997070312 372.3359375 339.330078125 373.668945312 357.997070312 375.001953125 c 0
 405.997070312 379.001953125 441.330078125 384.334960938 463.997070312 391.001953125 c 0
 476.6640625 395.001953125 487.831054688 399.668945312 497.498046875 405.001953125 c 0
 507.165039062 410.334960938 514.498046875 416.16796875 519.498046875 422.500976562 c 0
 524.498046875 428.833984375 527.998046875 436.333984375 529.998046875 445.000976562 c 0
 530.8984375 449.14453125 531.349609375 453.313476562 531.349609375 457.505859375 c 0
 531.349609375 468.827148438 528.065429688 480.325195312 521.498046875 492.000976562 c 0
 512.498046875 508.000976562 499.331054688 522.333984375 481.998046875 535.000976562 c 0
 464.665039062 547.66796875 443.998046875 559.334960938 419.998046875 570.001953125 c 0
 395.998046875 580.668945312 373.998046875 589.001953125 353.998046875 595.001953125 c 0
 333.998046875 601.001953125 315.665039062 605.668945312 298.998046875 609.001953125 c 1
 290.331054688 567.001953125 282.998046875 530.001953125 276.998046875 498.001953125 c 0
 274.331054688 484.668945312 269.998046875 468.3359375 263.998046875 449.002929688 c 0
EndSplineSet
Validated: 1
EndChar

StartChar: S
Encoding: 83 83 58
Width: 700
GlyphClass: 2
Flags: HMW
HStem: -28.999 108.99<193.333 254.337> 621 102.999<456.335 512.336>
VStem: 457.006 118.995
LayerCount: 2
Fore
SplineSet
38 73 m 0
 36.1494140625 81.1435546875 35.224609375 88.9765625 35.224609375 96.501953125 c 0
 35.224609375 102.529296875 35.8173828125 108.358398438 37.00390625 113.9921875 c 0
 37.6708984375 117.9921875 39.00390625 121.659179688 41.00390625 124.9921875 c 0
 48.3369140625 140.325195312 59.669921875 151.658203125 75.0029296875 158.991210938 c 0
 83.669921875 162.991210938 90.5029296875 165.491210938 95.5029296875 166.491210938 c 0
 100.502929688 167.491210938 104.502929688 167.991210938 107.502929688 167.991210938 c 2
 116.002929688 167.991210938 l 2
 123.3359375 167.32421875 129.3359375 163.991210938 134.002929688 157.991210938 c 0
 138.669921875 151.991210938 143.336914062 144.32421875 148.00390625 134.991210938 c 0
 154.670898438 118.32421875 166.50390625 104.991210938 183.50390625 94.9912109375 c 0
 200.50390625 84.9912109375 221.670898438 79.9912109375 247.00390625 79.9912109375 c 0
 261.670898438 79.9912109375 277.837890625 81.9912109375 295.504882812 85.9912109375 c 0
 313.171875 89.9912109375 330.838867188 96.158203125 348.505859375 104.491210938 c 0
 366.172851562 112.82421875 382.505859375 122.32421875 397.505859375 132.991210938 c 0
 412.505859375 143.658203125 425.338867188 155.991210938 436.005859375 169.991210938 c 0
 446.672851562 183.991210938 453.672851562 198.658203125 457.005859375 213.991210938 c 0
 459.005859375 222.658203125 460.338867188 230.658203125 461.005859375 237.991210938 c 0
 461.672851562 245.32421875 461.172851562 252.991210938 459.505859375 260.991210938 c 0
 457.838867188 268.991210938 454.838867188 276.32421875 450.505859375 282.991210938 c 0
 446.172851562 289.658203125 439.672851562 296.325195312 431.005859375 302.9921875 c 0
 422.338867188 309.659179688 411.171875 315.826171875 397.504882812 321.493164062 c 0
 383.837890625 327.16015625 366.670898438 332.327148438 346.00390625 336.994140625 c 0
 325.336914062 341.661132812 302.169921875 345.328125 276.502929688 347.995117188 c 0
 250.8359375 350.662109375 228.668945312 357.329101562 210.001953125 367.99609375 c 0
 192.668945312 377.99609375 179.668945312 390.329101562 171.001953125 404.99609375 c 0
 162.334960938 419.663085938 156.501953125 435.330078125 153.501953125 451.997070312 c 0
 152.215820312 459.139648438 151.573242188 466.283203125 151.573242188 473.42578125 c 0
 151.573242188 482.950195312 152.715820312 492.473632812 155.001953125 501.998046875 c 0
 160.334960938 525.331054688 169.334960938 547.831054688 182.001953125 569.498046875 c 0
 194.668945312 591.165039062 211.168945312 611.33203125 231.501953125 629.999023438 c 0
 251.834960938 648.666015625 275.001953125 664.999023438 301.001953125 678.999023438 c 0
 328.334960938 692.999023438 359.001953125 703.999023438 393.001953125 711.999023438 c 0
 427.668945312 719.999023438 464.3359375 723.999023438 503.002929688 723.999023438 c 0
 521.669921875 723.999023438 546.336914062 722.33203125 577.00390625 718.999023438 c 0
 605.670898438 715.666015625 625.670898438 711.666015625 637.00390625 706.999023438 c 0
 650.336914062 701.666015625 658.669921875 692.666015625 662.002929688 679.999023438 c 0
 663.3359375 674.999023438 664.002929688 669.916015625 664.002929688 664.749023438 c 0
 664.002929688 659.58203125 663.336914062 654.33203125 662.002929688 648.999023438 c 0
 658.669921875 634.33203125 652.336914062 622.999023438 643.00390625 614.999023438 c 0
 635.670898438 608.33203125 627.337890625 604.33203125 618.004882812 602.999023438 c 0
 614.004882812 602.33203125 610.504882812 601.999023438 607.504882812 601.999023438 c 0
 604.504882812 601.999023438 601.004882812 602.33203125 597.004882812 602.999023438 c 0
 590.337890625 603.666015625 583.670898438 605.333007812 577.00390625 608 c 0
 567.00390625 610.666992188 559.00390625 612.666992188 553.00390625 614 c 0
 546.336914062 615.333007812 535.669921875 616.833007812 521.002929688 618.5 c 0
 506.3359375 620.166992188 489.668945312 621 471.001953125 621 c 0
 441.668945312 621 413.001953125 616.833007812 385.001953125 608.5 c 0
 357.001953125 600.166992188 333.334960938 588.333984375 314.001953125 573.000976562 c 0
 294.668945312 557.66796875 283.001953125 540.66796875 279.001953125 522.000976562 c 0
 277.948242188 517.18359375 277.420898438 512.536132812 277.420898438 508.059570312 c 0
 277.420898438 492.708984375 283.615234375 479.356445312 296.001953125 468.000976562 c 0
 313.334960938 452.66796875 341.001953125 444.000976562 379.001953125 442.000976562 c 0
 417.001953125 440.000976562 450.001953125 434.333984375 478.001953125 425.000976562 c 0
 505.334960938 415.66796875 526.16796875 404.000976562 540.500976562 390.000976562 c 0
 554.833984375 376.000976562 565.500976562 359.500976562 572.500976562 340.500976562 c 0
 579.182617188 322.364257812 582.5234375 304.530273438 582.5234375 287.000976562 c 0
 582.5234375 275.354492188 581.370117188 253.953125 576.000976562 228.001953125 c 0
 568.66796875 197.334960938 556.66796875 168.16796875 540.000976562 140.500976562 c 0
 523.333984375 112.833984375 503.666992188 88.833984375 481 68.5009765625 c 0
 458.333007812 48.16796875 433.333007812 30.66796875 406 16.0009765625 c 0
 376.666992188 1.333984375 346 -9.9990234375 314 -17.9990234375 c 0
 282 -25.33203125 250 -28.9990234375 218 -28.9990234375 c 0
 168.666992188 -28.9990234375 127.666992188 -19.33203125 95 0.0009765625 c 0
 64.3330078125 19.333984375 45.3330078125 43.6669921875 38 73 c 0
EndSplineSet
Validated: 1
EndChar

